0
SECTION
2
HEADER
9
$INSUNITS
70
4
9
$ACADVER
1
AC1014
9
$HANDSEED
5
FFFF
0
ENDSEC
0
SECTION
2
TABLES
0
TABLE
2
VPORT
5
8
100
AcDbSymbolTable
0
ENDTAB
0
TABLE
2
LTYPE
5
5
100
AcDbSymbolTable
0
LTYPE
5
14
100
AcDbSymbolTableRecord
100
AcDbLinetypeTableRecord
2
BYBLOCK
70
0
0
LTYPE
5
15
100
AcDbSymbolTableRecord
100
AcDbLinetypeTableRecord
2
BYLAYER
70
0
0
ENDTAB
0
TABLE
2
LAYER
5
2
100
AcDbSymbolTable
70
2
0
LAYER
5
50
100
AcDbSymbolTableRecord
100
AcDbLayerTableRecord
2
0
70
0
6
CONTINUOUS
0
ENDTAB
0
TABLE
2
STYLE
5
3
100
AcDbSymbolTable
70
1
0
STYLE
5
11
100
AcDbSymbolTableRecord
100
AcDbTextStyleTableRecord
2
STANDARD
70
0
0
ENDTAB
0
TABLE
2
VIEW
5
6
100
AcDbSymbolTable
70
0
0
ENDTAB
0
TABLE
2
UCS
5
7
100
AcDbSymbolTable
70
0
0
ENDTAB
0
TABLE
2
APPID
5
9
100
AcDbSymbolTable
70
2
0
APPID
5
12
100
AcDbSymbolTableRecord
100
AcDbRegAppTableRecord
2
ACAD
70
0
0
ENDTAB
0
TABLE
2
DIMSTYLE
5
A
100
AcDbSymbolTable
70
1
0
ENDTAB
0
TABLE
2
BLOCK_RECORD
5
1
100
AcDbSymbolTable
70
1
0
BLOCK_RECORD
5
1F
100
AcDbSymbolTableRecord
100
AcDbBlockTableRecord
2
*MODEL_SPACE
0
BLOCK_RECORD
5
1B
100
AcDbSymbolTableRecord
100
AcDbBlockTableRecord
2
*PAPER_SPACE
0
ENDTAB
0
ENDSEC
0
SECTION
2
BLOCKS
0
BLOCK
5
20
100
AcDbEntity
100
AcDbBlockBegin
2
*MODEL_SPACE
0
ENDBLK
5
21
100
AcDbEntity
100
AcDbBlockEnd
0
BLOCK
5
1C
100
AcDbEntity
100
AcDbBlockBegin
2
*PAPER_SPACE
0
ENDBLK
5
1D
100
AcDbEntity
100
AcDbBlockEnd
0
ENDSEC
0
SECTION
2
ENTITIES
0
LWPOLYLINE
5
100
100
AcDbEntity
8
0
100
AcDbPolyline
90
4
70
1
43
0.0
10
-1.8999999999999999
20
1.9880895352071046
10
-1.8999999999999999
20
-1.9880895352071046
42
0.40100550778573457
10
1.8999999999999999
20
-1.9880895352071046
10
1.8999999999999995
20
1.9880895352071053
42
0.40100550778573446
0
ARC
5
101
100
AcDbEntity
8
0
100
AcDbCircle
10
1.3877787807814457e-16
20
0
30
0
40
12.000000000000002
100
AcDbArc
50
227.38636660230583
51
267.61363339769412
0
LINE
5
102
100
AcDbEntity
8
0
100
AcDbLine
10
-0.49965496306208612
20
-11.98959319234341
30
0
11
-0.49965496306207752
21
-5.0185719650934875
31
0
0
ARC
5
103
100
AcDbEntity
8
0
100
AcDbCircle
10
0
20
-5
30
0
40
0.5
100
AcDbArc
50
-2.1286801056157296
51
182.12868010561587
0
LINE
5
104
100
AcDbEntity
8
0
100
AcDbLine
10
0.49965496306207779
20
-5.0185719650934875
30
0
11
0.49965496306207779
21
-11.989593192343408
31
0
0
ARC
5
105
100
AcDbEntity
8
0
100
AcDbCircle
10
1.3877787807814457e-16
20
0
30
0
40
12
100
AcDbArc
50
272.38636660230583
51
312.61363339769417
0
LINE
5
106
100
AcDbEntity
8
0
100
AcDbLine
10
8.1246132373393838
20
-8.8312320626087999
30
0
11
3.1953568557555951
21
-3.9019756810250117
31
0
0
ARC
5
107
100
AcDbEntity
8
0
100
AcDbCircle
10
3.5355339059327378
20
-3.5355339059327373
30
0
40
0.50000000000000011
100
AcDbArc
50
42.871319894384101
51
227.12868010561601
0
LINE
5
108
100
AcDbEntity
8
0
100
AcDbLine
10
3.9019756810250121
20
-3.1953568557555934
30
0
11
8.8312320626087999
21
-8.124613237339382
31
0
0
ARC
5
109
100
AcDbEntity
8
0
100
AcDbCircle
10
1.3877787807814457e-16
20
0
30
0
40
12
100
AcDbArc
50
317.38636660230583
51
357.61363339769412
0
LINE
5
110
100
AcDbEntity
8
0
100
AcDbLine
10
11.98959319234341
20
-0.49965496306207779
30
0
11
5.0185719650934875
21
-0.49965496306207863
31
0
0
ARC
5
111
100
AcDbEntity
8
0
100
AcDbCircle
10
5
20
-1.1449174941446927e-15
30
0
40
0.49999999999999989
100
AcDbArc
50
87.871319894384158
51
272.12868010561584
0
LINE
5
112
100
AcDbEntity
8
0
100
AcDbLine
10
5.0185719650934875
20
0.49965496306207657
30
0
11
11.989593192343408
21
0.49965496306207502
31
0
0
ARC
5
113
100
AcDbEntity
8
0
100
AcDbCircle
10
1.3877787807814457e-16
20
0
30
0
40
12
100
AcDbArc
50
2.3863666023058761
51
42.613633397694166
0
LINE
5
114
100
AcDbEntity
8
0
100
AcDbLine
10
8.8312320626088052
20
8.1246132373393785
30
0
11
3.9019756810250135
21
3.1953568557555934
31
0
0
ARC
5
115
100
AcDbEntity
8
0
100
AcDbCircle
10
3.5355339059327391
20
3.5355339059327378
30
0
40
0.50000000000000011
100
AcDbArc
50
132.87131989438419
51
317.1286801056159
0
LINE
5
116
100
AcDbEntity
8
0
100
AcDbLine
10
3.1953568557555947
20
3.9019756810250117
30
0
11
8.1246132373393838
21
8.8312320626087999
31
0
0
ARC
5
117
100
AcDbEntity
8
0
100
AcDbCircle
10
1.3877787807814457e-16
20
0
30
0
40
12.000000000000002
100
AcDbArc
50
47.386366602305827
51
87.613633397694159
0
LINE
5
118
100
AcDbEntity
8
0
100
AcDbLine
10
0.49965496306207835
20
11.989593192343413
30
0
11
0.49965496306207835
21
5.0185719650934875
31
0
0
ARC
5
119
100
AcDbEntity
8
0
100
AcDbCircle
10
3.4694469519536142e-16
20
5
30
0
40
0.49999999999999983
100
AcDbArc
50
-182.1286801056157
51
2.1286801056157061
0
LINE
5
120
100
AcDbEntity
8
0
100
AcDbLine
10
-0.49965496306207724
20
5.0185719650934866
30
0
11
-0.49965496306207613
21
11.989593192343408
31
0
0
ARC
5
121
100
AcDbEntity
8
0
100
AcDbCircle
10
1.3877787807814457e-16
20
0
30
0
40
12
100
AcDbArc
50
92.386366602305827
51
132.61363339769417
0
LINE
5
122
100
AcDbEntity
8
0
100
AcDbLine
10
-8.124613237339382
20
8.8312320626088034
30
0
11
-3.1953568557555934
21
3.9019756810250117
31
0
0
ARC
5
123
100
AcDbEntity
8
0
100
AcDbCircle
10
-3.5355339059327378
20
3.5355339059327378
30
0
40
0.50000000000000011
100
AcDbArc
50
-137.12868010561584
51
47.128680105615821
0
LINE
5
124
100
AcDbEntity
8
0
100
AcDbLine
10
-3.9019756810250117
20
3.1953568557555934
30
0
11
-8.8312320626087999
21
8.124613237339382
31
0
0
ARC
5
125
100
AcDbEntity
8
0
100
AcDbCircle
10
1.3877787807814457e-16
20
0
30
0
40
12
100
AcDbArc
50
137.38636660230586
51
177.61363339769414
0
LINE
5
126
100
AcDbEntity
8
0
100
AcDbLine
10
-11.989593192343413
20
0.49965496306208723
30
0
11
-5.0185719650934875
21
0.49965496306207918
31
0
0
ARC
5
127
100
AcDbEntity
8
0
100
AcDbCircle
10
-5
20
1.1449174941446927e-15
30
0
40
0.50000000000000056
100
AcDbArc
50
-92.128680105615828
51
92.128680105615828
0
LINE
5
128
100
AcDbEntity
8
0
100
AcDbLine
10
-5.0185719650934875
20
-0.49965496306207713
30
0
11
-11.989593192343408
21
-0.49965496306207502
31
0
0
ARC
5
129
100
AcDbEntity
8
0
100
AcDbCircle
10
1.3877787807814457e-16
20
0
30
0
40
12
100
AcDbArc
50
182.38636660230586
51
222.61363339769414
0
LINE
5
130
100
AcDbEntity
8
0
100
AcDbLine
10
-8.8312320626088034
20
-8.124613237339382
30
0
11
-3.9019756810250126
21
-3.1953568557555934
31
0
0
ARC
5
131
100
AcDbEntity
8
0
100
AcDbCircle
10
-3.5355339059327391
20
-3.5355339059327378
30
0
40
0.50000000000000011
100
AcDbArc
50
-47.128680105615828
51
137.12868010561579
0
LINE
5
132
100
AcDbEntity
8
0
100
AcDbLine
10
-3.1953568557555947
20
-3.9019756810250117
30
0
11
-8.124613237339382
21
-8.8312320626087999
31
0
0
ENDSEC
0
SECTION
2
OBJECTS
0
DICTIONARY
5
C
100
AcDbDictionary
3
ACAD_GROUP
350
D
3
ACAD_MLINESTYLE
350
17
0
DICTIONARY
5
D
100
AcDbDictionary
0
DICTIONARY
5
1A
330
C
100
AcDbDictionary
0
DICTIONARY
5
17
100
AcDbDictionary
0
ENDSEC
0
EOF
