G04 #@! TF.FileFunction,Copper,L1,Top,Signal*
%FSLAX46Y46*%
G04 Gerber Fmt 4.6, Leading zero omitted, Abs format (unit mm)*
G04 Created by KiCad (PCBNEW 4.0.2-stable) date Wednesday, January 18, 2017 'PMt' 01:23:50 PM*
%MOMM*%
G01*
G04 APERTURE LIST*
%ADD10C,0.100000*%
%ADD11C,0.685800*%
%ADD12R,1.000000X1.250000*%
%ADD13R,1.250000X1.000000*%
%ADD14R,2.032000X2.032000*%
%ADD15O,2.032000X2.032000*%
%ADD16R,1.198880X1.198880*%
%ADD17R,2.032000X1.727200*%
%ADD18O,2.032000X1.727200*%
%ADD19R,1.727200X2.032000*%
%ADD20O,1.727200X2.032000*%
%ADD21R,1.300000X0.700000*%
%ADD22R,1.270000X0.406400*%
%ADD23C,0.609600*%
%ADD24C,0.304800*%
%ADD25C,0.152400*%
G04 APERTURE END LIST*
D10*
D11*
X147015200Y-93446600D03*
X149123400Y-92811600D03*
X146202400Y-88036400D03*
X137515600Y-84404200D03*
X135128000Y-84404200D03*
X136321800Y-84404200D03*
X136423400Y-85674200D03*
X135229600Y-85674200D03*
X137617200Y-85674200D03*
X137668000Y-86995000D03*
X135280400Y-86995000D03*
X136474200Y-86995000D03*
X136398000Y-93649800D03*
X140919200Y-95351600D03*
X136448800Y-105029000D03*
X135178800Y-105029000D03*
X137693400Y-105029000D03*
X129768600Y-101346000D03*
X133553200Y-99187000D03*
X133553200Y-101041200D03*
X137591800Y-97815400D03*
X137668000Y-99288600D03*
X137668000Y-100660200D03*
X147904200Y-85801200D03*
X147955000Y-84404200D03*
X152628600Y-89357200D03*
X152501600Y-90500200D03*
X152628600Y-91846400D03*
X133299200Y-94234000D03*
X135255000Y-102235000D03*
X137769600Y-103581200D03*
X135255000Y-103581200D03*
X136525000Y-103581200D03*
X141605000Y-98679000D03*
X138049000Y-102209600D03*
X136779000Y-102209600D03*
X139293600Y-102209600D03*
X141757400Y-102920800D03*
X141630400Y-101371400D03*
X141630400Y-100076000D03*
X148564600Y-102311200D03*
X147320000Y-106070400D03*
X146050000Y-106070400D03*
X147320000Y-104800400D03*
X146050000Y-104800400D03*
X146050000Y-102311200D03*
X147320000Y-102311200D03*
X146050000Y-103581200D03*
X147320000Y-103581200D03*
X152374600Y-100965000D03*
X152374600Y-99695000D03*
X151130000Y-100965000D03*
X149860000Y-100965000D03*
X148590000Y-100965000D03*
X147320000Y-100965000D03*
X146050000Y-100965000D03*
X151130000Y-99695000D03*
X149860000Y-99695000D03*
X148590000Y-99695000D03*
X147320000Y-99695000D03*
X146050000Y-99695000D03*
X148590000Y-98425000D03*
X147320000Y-98425000D03*
X146050000Y-98425000D03*
X148590000Y-97155000D03*
X147320000Y-97155000D03*
X148590000Y-95885000D03*
D12*
X143811500Y-91503500D03*
X141811500Y-91503500D03*
D13*
X135890000Y-96663000D03*
X135890000Y-98663000D03*
D14*
X140525500Y-105092500D03*
D15*
X143065500Y-105092500D03*
D16*
X143733520Y-88709500D03*
X141635480Y-88709500D03*
X134937500Y-89628980D03*
X134937500Y-91727020D03*
X150939500Y-94645480D03*
X150939500Y-96743520D03*
X137985500Y-89628980D03*
X137985500Y-91727020D03*
D17*
X130619500Y-91313000D03*
D18*
X130619500Y-93853000D03*
X130619500Y-96393000D03*
X130619500Y-98933000D03*
D19*
X140017500Y-85471000D03*
D20*
X142557500Y-85471000D03*
X145097500Y-85471000D03*
D21*
X147828000Y-89474000D03*
X147828000Y-91374000D03*
D22*
X139128500Y-94551500D03*
X139128500Y-95186500D03*
X139128500Y-95846900D03*
X139128500Y-96507300D03*
X139128500Y-97142300D03*
X139128500Y-97802700D03*
X139128500Y-98463100D03*
X139128500Y-99098100D03*
X139128500Y-99758500D03*
X139128500Y-100393500D03*
X144462500Y-100393500D03*
X144462500Y-99758500D03*
X144462500Y-99098100D03*
X144462500Y-98463100D03*
X144462500Y-97802700D03*
X144462500Y-97142300D03*
X144462500Y-96507300D03*
X144462500Y-95846900D03*
X144462500Y-95186500D03*
X144462500Y-94551500D03*
D11*
X145542000Y-89916000D03*
X134366000Y-96774000D03*
X139954000Y-88646000D03*
X135128000Y-93218000D03*
X152654000Y-97028000D03*
X139446000Y-92964000D03*
D23*
X144335500Y-88709500D02*
X143733520Y-88709500D01*
X145542000Y-89916000D02*
X144335500Y-88709500D01*
D24*
X143811500Y-91503500D02*
X143446500Y-91503500D01*
X143811500Y-91503500D02*
X143811500Y-93011500D01*
X144462500Y-93662500D02*
X144462500Y-94551500D01*
X143811500Y-93011500D02*
X144462500Y-93662500D01*
X143811500Y-91503500D02*
X143827500Y-91503500D01*
X143827500Y-91503500D02*
X145796000Y-93472000D01*
X145478500Y-94551500D02*
X144462500Y-94551500D01*
X145796000Y-94234000D02*
X145478500Y-94551500D01*
X145796000Y-93472000D02*
X145796000Y-94234000D01*
D23*
X143811500Y-91503500D02*
X147698500Y-91503500D01*
X147698500Y-91503500D02*
X147828000Y-91374000D01*
X143733520Y-88709500D02*
X143733520Y-91425520D01*
X143733520Y-91425520D02*
X143811500Y-91503500D01*
X142557500Y-85471000D02*
X142557500Y-85661500D01*
X142557500Y-85661500D02*
X143733520Y-86837520D01*
X143733520Y-86837520D02*
X143733520Y-88709500D01*
D24*
X135890000Y-96663000D02*
X134477000Y-96663000D01*
X134477000Y-96663000D02*
X134366000Y-96774000D01*
X139128500Y-96507300D02*
X136045700Y-96507300D01*
X136045700Y-96507300D02*
X135890000Y-96663000D01*
X144462500Y-97142300D02*
X139128500Y-97142300D01*
X144462500Y-96507300D02*
X139128500Y-96507300D01*
X144462500Y-97142300D02*
X145656300Y-97142300D01*
X145656300Y-97142300D02*
X146291300Y-96507300D01*
X144462500Y-96507300D02*
X146291300Y-96507300D01*
D23*
X148153120Y-94645480D02*
X150939500Y-94645480D01*
X146291300Y-96507300D02*
X148153120Y-94645480D01*
X147828000Y-89474000D02*
X150180000Y-89474000D01*
X150939500Y-90233500D02*
X150939500Y-94645480D01*
X150180000Y-89474000D02*
X150939500Y-90233500D01*
X145097500Y-85471000D02*
X145415000Y-85471000D01*
X145415000Y-85471000D02*
X147828000Y-87884000D01*
X147828000Y-87884000D02*
X147828000Y-89474000D01*
D25*
X130619500Y-96393000D02*
X132969000Y-96393000D01*
X138112500Y-95186500D02*
X139128500Y-95186500D01*
X137922000Y-94996000D02*
X138112500Y-95186500D01*
X134366000Y-94996000D02*
X137922000Y-94996000D01*
X132969000Y-96393000D02*
X134366000Y-94996000D01*
X137985500Y-89628980D02*
X138904980Y-89628980D01*
X142938500Y-95186500D02*
X144462500Y-95186500D01*
X140462000Y-92710000D02*
X142938500Y-95186500D01*
X140462000Y-91186000D02*
X140462000Y-92710000D01*
X138904980Y-89628980D02*
X140462000Y-91186000D01*
X130619500Y-91313000D02*
X131191000Y-91313000D01*
X131191000Y-91313000D02*
X134112000Y-88392000D01*
X134112000Y-88392000D02*
X136748520Y-88392000D01*
X136748520Y-88392000D02*
X137985500Y-89628980D01*
X134937500Y-89628980D02*
X135602980Y-89628980D01*
X142836900Y-95846900D02*
X144462500Y-95846900D01*
X140716000Y-93726000D02*
X142836900Y-95846900D01*
X137668000Y-93726000D02*
X140716000Y-93726000D01*
X136398000Y-92456000D02*
X137668000Y-93726000D01*
X136398000Y-90424000D02*
X136398000Y-92456000D01*
X135602980Y-89628980D02*
X136398000Y-90424000D01*
X130619500Y-93853000D02*
X131953000Y-93853000D01*
X133350000Y-91216480D02*
X134937500Y-89628980D01*
X133350000Y-92456000D02*
X133350000Y-91216480D01*
X131953000Y-93853000D02*
X132588000Y-93218000D01*
X132588000Y-93218000D02*
X133350000Y-92456000D01*
X130619500Y-98933000D02*
X131191000Y-98933000D01*
X131191000Y-98933000D02*
X134620000Y-95504000D01*
X138010900Y-95846900D02*
X139128500Y-95846900D01*
X137668000Y-95504000D02*
X138010900Y-95846900D01*
X134620000Y-95504000D02*
X137668000Y-95504000D01*
X130619500Y-98933000D02*
X130683000Y-98933000D01*
D24*
X139128500Y-98463100D02*
X140525500Y-98463100D01*
X140462000Y-98552000D02*
X140525500Y-98552000D01*
X140462000Y-98526600D02*
X140462000Y-98552000D01*
X140525500Y-98463100D02*
X140462000Y-98526600D01*
X139128500Y-97802700D02*
X140220700Y-97802700D01*
D23*
X140525500Y-98107500D02*
X140525500Y-98552000D01*
X140525500Y-98552000D02*
X140525500Y-105092500D01*
X140220700Y-97802700D02*
X140525500Y-98107500D01*
D24*
X144462500Y-98463100D02*
X142748000Y-98463100D01*
X143002000Y-98552000D02*
X142748000Y-98552000D01*
X142836900Y-98552000D02*
X143002000Y-98552000D01*
X142748000Y-98463100D02*
X142836900Y-98552000D01*
X144462500Y-97802700D02*
X143268700Y-97802700D01*
D23*
X143065500Y-102425500D02*
X143065500Y-105092500D01*
X142748000Y-102108000D02*
X143065500Y-102425500D01*
X142748000Y-98323400D02*
X142748000Y-98552000D01*
X142748000Y-98552000D02*
X142748000Y-102108000D01*
X143268700Y-97802700D02*
X142748000Y-98323400D01*
X141635480Y-88709500D02*
X140017500Y-88709500D01*
X140017500Y-88709500D02*
X139954000Y-88646000D01*
D25*
X134937500Y-91727020D02*
X134937500Y-93027500D01*
X134937500Y-93027500D02*
X135128000Y-93218000D01*
D24*
X150939500Y-96743520D02*
X152369520Y-96743520D01*
X152369520Y-96743520D02*
X152654000Y-97028000D01*
D25*
X137985500Y-91727020D02*
X138209020Y-91727020D01*
X138209020Y-91727020D02*
X139446000Y-92964000D01*
G36*
X153620400Y-106884400D02*
X128827600Y-106884400D01*
X128827600Y-104403115D01*
X130751170Y-104403115D01*
X130953011Y-104891608D01*
X131326426Y-105265676D01*
X131814566Y-105468369D01*
X132343115Y-105468830D01*
X132831608Y-105266989D01*
X133205676Y-104893574D01*
X133408369Y-104405434D01*
X133408830Y-103876885D01*
X133206989Y-103388392D01*
X132833574Y-103014324D01*
X132345434Y-102811631D01*
X131816885Y-102811170D01*
X131328392Y-103013011D01*
X130954324Y-103386426D01*
X130751631Y-103874566D01*
X130751170Y-104403115D01*
X128827600Y-104403115D01*
X128827600Y-93853000D01*
X129350517Y-93853000D01*
X129433656Y-94270967D01*
X129670415Y-94625302D01*
X130024750Y-94862061D01*
X130442717Y-94945200D01*
X130796283Y-94945200D01*
X131214250Y-94862061D01*
X131568585Y-94625302D01*
X131805344Y-94270967D01*
X131827854Y-94157800D01*
X131953000Y-94157800D01*
X132069642Y-94134598D01*
X132168526Y-94068526D01*
X133565526Y-92671526D01*
X133586692Y-92639849D01*
X133631598Y-92572642D01*
X133654800Y-92456000D01*
X133654800Y-91342732D01*
X133869952Y-91127580D01*
X134104982Y-91127580D01*
X134104982Y-92326460D01*
X134120922Y-92411174D01*
X134170988Y-92488978D01*
X134247380Y-92541175D01*
X134338060Y-92559538D01*
X134632700Y-92559538D01*
X134632700Y-92920554D01*
X134556600Y-93103823D01*
X134556401Y-93331180D01*
X134643224Y-93541306D01*
X134803849Y-93702211D01*
X135013823Y-93789400D01*
X135241180Y-93789599D01*
X135451306Y-93702776D01*
X135612211Y-93542151D01*
X135699400Y-93332177D01*
X135699599Y-93104820D01*
X135612776Y-92894694D01*
X135452151Y-92733789D01*
X135242300Y-92646651D01*
X135242300Y-92559538D01*
X135536940Y-92559538D01*
X135621654Y-92543598D01*
X135699458Y-92493532D01*
X135751655Y-92417140D01*
X135770018Y-92326460D01*
X135770018Y-91127580D01*
X135754078Y-91042866D01*
X135704012Y-90965062D01*
X135627620Y-90912865D01*
X135536940Y-90894502D01*
X134338060Y-90894502D01*
X134253346Y-90910442D01*
X134175542Y-90960508D01*
X134123345Y-91036900D01*
X134104982Y-91127580D01*
X133869952Y-91127580D01*
X134536034Y-90461498D01*
X135536940Y-90461498D01*
X135621654Y-90445558D01*
X135699458Y-90395492D01*
X135751655Y-90319100D01*
X135770018Y-90228420D01*
X135770018Y-90227070D01*
X136093200Y-90550252D01*
X136093200Y-92456000D01*
X136116402Y-92572642D01*
X136182474Y-92671526D01*
X137452474Y-93941526D01*
X137551358Y-94007598D01*
X137668000Y-94030800D01*
X140589748Y-94030800D01*
X142621374Y-96062426D01*
X142716968Y-96126300D01*
X139981147Y-96126300D01*
X139996578Y-96050100D01*
X139996578Y-95643700D01*
X139980638Y-95558986D01*
X139953413Y-95516678D01*
X139978215Y-95480380D01*
X139996578Y-95389700D01*
X139996578Y-94983300D01*
X139980638Y-94898586D01*
X139930572Y-94820782D01*
X139854180Y-94768585D01*
X139763500Y-94750222D01*
X138493500Y-94750222D01*
X138408786Y-94766162D01*
X138330982Y-94816228D01*
X138286246Y-94881700D01*
X138238752Y-94881700D01*
X138137526Y-94780474D01*
X138038642Y-94714402D01*
X137922000Y-94691200D01*
X134366000Y-94691200D01*
X134249358Y-94714402D01*
X134150474Y-94780474D01*
X132842748Y-96088200D01*
X131827854Y-96088200D01*
X131805344Y-95975033D01*
X131568585Y-95620698D01*
X131214250Y-95383939D01*
X130796283Y-95300800D01*
X130442717Y-95300800D01*
X130024750Y-95383939D01*
X129670415Y-95620698D01*
X129433656Y-95975033D01*
X129350517Y-96393000D01*
X129433656Y-96810967D01*
X129670415Y-97165302D01*
X130024750Y-97402061D01*
X130442717Y-97485200D01*
X130796283Y-97485200D01*
X131214250Y-97402061D01*
X131568585Y-97165302D01*
X131805344Y-96810967D01*
X131827854Y-96697800D01*
X132969000Y-96697800D01*
X133001641Y-96691307D01*
X131546804Y-98146144D01*
X131214250Y-97923939D01*
X130796283Y-97840800D01*
X130442717Y-97840800D01*
X130024750Y-97923939D01*
X129670415Y-98160698D01*
X129433656Y-98515033D01*
X129350517Y-98933000D01*
X129433656Y-99350967D01*
X129670415Y-99705302D01*
X130024750Y-99942061D01*
X130442717Y-100025200D01*
X130796283Y-100025200D01*
X131214250Y-99942061D01*
X131568585Y-99705302D01*
X131805344Y-99350967D01*
X131888483Y-98933000D01*
X131844279Y-98710773D01*
X133794512Y-96760540D01*
X133794401Y-96887180D01*
X133881224Y-97097306D01*
X134041849Y-97258211D01*
X134251823Y-97345400D01*
X134479180Y-97345599D01*
X134689306Y-97258776D01*
X134850211Y-97098151D01*
X134872697Y-97044000D01*
X135031922Y-97044000D01*
X135031922Y-97163000D01*
X135047862Y-97247714D01*
X135097928Y-97325518D01*
X135174320Y-97377715D01*
X135265000Y-97396078D01*
X136515000Y-97396078D01*
X136599714Y-97380138D01*
X136677518Y-97330072D01*
X136729715Y-97253680D01*
X136748078Y-97163000D01*
X136748078Y-96888300D01*
X138270709Y-96888300D01*
X138260422Y-96939100D01*
X138260422Y-97345500D01*
X138276362Y-97430214D01*
X138303587Y-97472522D01*
X138278785Y-97508820D01*
X138260422Y-97599500D01*
X138260422Y-98005900D01*
X138276362Y-98090614D01*
X138303587Y-98132922D01*
X138278785Y-98169220D01*
X138260422Y-98259900D01*
X138260422Y-98666300D01*
X138276362Y-98751014D01*
X138326428Y-98828818D01*
X138402820Y-98881015D01*
X138493500Y-98899378D01*
X139763500Y-98899378D01*
X139848214Y-98883438D01*
X139909346Y-98844100D01*
X139992100Y-98844100D01*
X139992100Y-103843422D01*
X139509500Y-103843422D01*
X139424786Y-103859362D01*
X139346982Y-103909428D01*
X139294785Y-103985820D01*
X139276422Y-104076500D01*
X139276422Y-106108500D01*
X139292362Y-106193214D01*
X139342428Y-106271018D01*
X139418820Y-106323215D01*
X139509500Y-106341578D01*
X141541500Y-106341578D01*
X141626214Y-106325638D01*
X141704018Y-106275572D01*
X141756215Y-106199180D01*
X141774578Y-106108500D01*
X141774578Y-104076500D01*
X141758638Y-103991786D01*
X141708572Y-103913982D01*
X141632180Y-103861785D01*
X141541500Y-103843422D01*
X141058900Y-103843422D01*
X141058900Y-98107500D01*
X141018297Y-97903377D01*
X141018297Y-97903376D01*
X140902671Y-97730329D01*
X140695642Y-97523300D01*
X142793758Y-97523300D01*
X142370829Y-97946229D01*
X142255203Y-98119277D01*
X142214600Y-98323400D01*
X142214600Y-102108000D01*
X142255203Y-102312123D01*
X142370829Y-102485171D01*
X142532100Y-102646442D01*
X142532100Y-103956418D01*
X142185435Y-104188052D01*
X141915640Y-104591829D01*
X141820900Y-105068117D01*
X141820900Y-105116883D01*
X141915640Y-105593171D01*
X142185435Y-105996948D01*
X142589212Y-106266743D01*
X143065500Y-106361483D01*
X143541788Y-106266743D01*
X143945565Y-105996948D01*
X144215360Y-105593171D01*
X144310100Y-105116883D01*
X144310100Y-105068117D01*
X144215360Y-104591829D01*
X144089266Y-104403115D01*
X149801170Y-104403115D01*
X150003011Y-104891608D01*
X150376426Y-105265676D01*
X150864566Y-105468369D01*
X151393115Y-105468830D01*
X151881608Y-105266989D01*
X152255676Y-104893574D01*
X152458369Y-104405434D01*
X152458830Y-103876885D01*
X152256989Y-103388392D01*
X151883574Y-103014324D01*
X151395434Y-102811631D01*
X150866885Y-102811170D01*
X150378392Y-103013011D01*
X150004324Y-103386426D01*
X149801631Y-103874566D01*
X149801170Y-104403115D01*
X144089266Y-104403115D01*
X143945565Y-104188052D01*
X143598900Y-103956418D01*
X143598900Y-102425500D01*
X143558297Y-102221377D01*
X143442671Y-102048329D01*
X143281400Y-101887058D01*
X143281400Y-98844100D01*
X143682794Y-98844100D01*
X143736820Y-98881015D01*
X143827500Y-98899378D01*
X145097500Y-98899378D01*
X145182214Y-98883438D01*
X145260018Y-98833372D01*
X145312215Y-98756980D01*
X145330578Y-98666300D01*
X145330578Y-98259900D01*
X145314638Y-98175186D01*
X145287413Y-98132878D01*
X145312215Y-98096580D01*
X145330578Y-98005900D01*
X145330578Y-97599500D01*
X145316240Y-97523300D01*
X145656300Y-97523300D01*
X145802103Y-97494298D01*
X145925708Y-97411708D01*
X146298060Y-97039355D01*
X146495423Y-97000097D01*
X146668471Y-96884471D01*
X147408862Y-96144080D01*
X150106982Y-96144080D01*
X150106982Y-97342960D01*
X150122922Y-97427674D01*
X150172988Y-97505478D01*
X150249380Y-97557675D01*
X150340060Y-97576038D01*
X151538940Y-97576038D01*
X151623654Y-97560098D01*
X151701458Y-97510032D01*
X151753655Y-97433640D01*
X151772018Y-97342960D01*
X151772018Y-97124520D01*
X152082416Y-97124520D01*
X152082401Y-97141180D01*
X152169224Y-97351306D01*
X152329849Y-97512211D01*
X152539823Y-97599400D01*
X152767180Y-97599599D01*
X152977306Y-97512776D01*
X153138211Y-97352151D01*
X153225400Y-97142177D01*
X153225599Y-96914820D01*
X153138776Y-96704694D01*
X152978151Y-96543789D01*
X152768177Y-96456600D01*
X152612515Y-96456464D01*
X152515323Y-96391522D01*
X152369520Y-96362520D01*
X151772018Y-96362520D01*
X151772018Y-96144080D01*
X151756078Y-96059366D01*
X151706012Y-95981562D01*
X151629620Y-95929365D01*
X151538940Y-95911002D01*
X150340060Y-95911002D01*
X150255346Y-95926942D01*
X150177542Y-95977008D01*
X150125345Y-96053400D01*
X150106982Y-96144080D01*
X147408862Y-96144080D01*
X148374062Y-95178880D01*
X150106982Y-95178880D01*
X150106982Y-95244920D01*
X150122922Y-95329634D01*
X150172988Y-95407438D01*
X150249380Y-95459635D01*
X150340060Y-95477998D01*
X151538940Y-95477998D01*
X151623654Y-95462058D01*
X151701458Y-95411992D01*
X151753655Y-95335600D01*
X151772018Y-95244920D01*
X151772018Y-94046040D01*
X151756078Y-93961326D01*
X151706012Y-93883522D01*
X151629620Y-93831325D01*
X151538940Y-93812962D01*
X151472900Y-93812962D01*
X151472900Y-90233500D01*
X151432297Y-90029377D01*
X151316671Y-89856329D01*
X150557171Y-89096829D01*
X150384123Y-88981203D01*
X150180000Y-88940600D01*
X148614511Y-88940600D01*
X148568680Y-88909285D01*
X148478000Y-88890922D01*
X148361400Y-88890922D01*
X148361400Y-87884000D01*
X148320797Y-87679877D01*
X148320797Y-87679876D01*
X148205171Y-87506829D01*
X147321457Y-86623115D01*
X149801170Y-86623115D01*
X150003011Y-87111608D01*
X150376426Y-87485676D01*
X150864566Y-87688369D01*
X151393115Y-87688830D01*
X151881608Y-87486989D01*
X152255676Y-87113574D01*
X152458369Y-86625434D01*
X152458830Y-86096885D01*
X152256989Y-85608392D01*
X151883574Y-85234324D01*
X151395434Y-85031631D01*
X150866885Y-85031170D01*
X150378392Y-85233011D01*
X150004324Y-85606426D01*
X149801631Y-86094566D01*
X149801170Y-86623115D01*
X147321457Y-86623115D01*
X146189700Y-85491358D01*
X146189700Y-85294217D01*
X146106561Y-84876250D01*
X145869802Y-84521915D01*
X145515467Y-84285156D01*
X145097500Y-84202017D01*
X144679533Y-84285156D01*
X144325198Y-84521915D01*
X144088439Y-84876250D01*
X144005300Y-85294217D01*
X144005300Y-85647783D01*
X144088439Y-86065750D01*
X144325198Y-86420085D01*
X144679533Y-86656844D01*
X145097500Y-86739983D01*
X145515467Y-86656844D01*
X145713908Y-86524250D01*
X147294600Y-88104942D01*
X147294600Y-88890922D01*
X147178000Y-88890922D01*
X147093286Y-88906862D01*
X147015482Y-88956928D01*
X146963285Y-89033320D01*
X146944922Y-89124000D01*
X146944922Y-89824000D01*
X146960862Y-89908714D01*
X147010928Y-89986518D01*
X147087320Y-90038715D01*
X147178000Y-90057078D01*
X148478000Y-90057078D01*
X148562714Y-90041138D01*
X148615144Y-90007400D01*
X149959058Y-90007400D01*
X150406100Y-90454442D01*
X150406100Y-93812962D01*
X150340060Y-93812962D01*
X150255346Y-93828902D01*
X150177542Y-93878968D01*
X150125345Y-93955360D01*
X150106982Y-94046040D01*
X150106982Y-94112080D01*
X148153120Y-94112080D01*
X147948997Y-94152683D01*
X147775949Y-94268309D01*
X145917958Y-96126300D01*
X145315147Y-96126300D01*
X145330578Y-96050100D01*
X145330578Y-95643700D01*
X145314638Y-95558986D01*
X145287413Y-95516678D01*
X145312215Y-95480380D01*
X145330578Y-95389700D01*
X145330578Y-94983300D01*
X145321019Y-94932500D01*
X145478500Y-94932500D01*
X145624303Y-94903498D01*
X145747908Y-94820908D01*
X146065408Y-94503408D01*
X146147998Y-94379802D01*
X146177001Y-94234000D01*
X146177000Y-94233995D01*
X146177000Y-93472000D01*
X146147998Y-93326198D01*
X146065408Y-93202592D01*
X146065405Y-93202590D01*
X144899716Y-92036900D01*
X147698500Y-92036900D01*
X147902623Y-91996297D01*
X147961319Y-91957078D01*
X148478000Y-91957078D01*
X148562714Y-91941138D01*
X148640518Y-91891072D01*
X148692715Y-91814680D01*
X148711078Y-91724000D01*
X148711078Y-91024000D01*
X148695138Y-90939286D01*
X148645072Y-90861482D01*
X148568680Y-90809285D01*
X148478000Y-90790922D01*
X147178000Y-90790922D01*
X147093286Y-90806862D01*
X147015482Y-90856928D01*
X146963285Y-90933320D01*
X146955837Y-90970100D01*
X144544578Y-90970100D01*
X144544578Y-90878500D01*
X144528638Y-90793786D01*
X144478572Y-90715982D01*
X144402180Y-90663785D01*
X144311500Y-90645422D01*
X144266920Y-90645422D01*
X144266920Y-89542018D01*
X144332960Y-89542018D01*
X144400893Y-89529235D01*
X145019383Y-90147725D01*
X145057224Y-90239306D01*
X145217849Y-90400211D01*
X145427823Y-90487400D01*
X145655180Y-90487599D01*
X145865306Y-90400776D01*
X146026211Y-90240151D01*
X146113400Y-90030177D01*
X146113599Y-89802820D01*
X146026776Y-89592694D01*
X145866151Y-89431789D01*
X145773772Y-89393430D01*
X144712671Y-88332329D01*
X144566038Y-88234353D01*
X144566038Y-88110060D01*
X144550098Y-88025346D01*
X144500032Y-87947542D01*
X144423640Y-87895345D01*
X144332960Y-87876982D01*
X144266920Y-87876982D01*
X144266920Y-86837520D01*
X144226317Y-86633396D01*
X144180004Y-86564083D01*
X144110691Y-86460349D01*
X144110688Y-86460347D01*
X143591370Y-85941028D01*
X143649700Y-85647783D01*
X143649700Y-85294217D01*
X143566561Y-84876250D01*
X143329802Y-84521915D01*
X142975467Y-84285156D01*
X142557500Y-84202017D01*
X142139533Y-84285156D01*
X141785198Y-84521915D01*
X141548439Y-84876250D01*
X141465300Y-85294217D01*
X141465300Y-85647783D01*
X141548439Y-86065750D01*
X141785198Y-86420085D01*
X142139533Y-86656844D01*
X142557500Y-86739983D01*
X142827863Y-86686204D01*
X143200120Y-87058461D01*
X143200120Y-87876982D01*
X143134080Y-87876982D01*
X143049366Y-87892922D01*
X142971562Y-87942988D01*
X142919365Y-88019380D01*
X142901002Y-88110060D01*
X142901002Y-89308940D01*
X142916942Y-89393654D01*
X142967008Y-89471458D01*
X143043400Y-89523655D01*
X143134080Y-89542018D01*
X143200120Y-89542018D01*
X143200120Y-90678521D01*
X143148982Y-90711428D01*
X143096785Y-90787820D01*
X143078422Y-90878500D01*
X143078422Y-91438537D01*
X143065500Y-91503500D01*
X143078422Y-91568463D01*
X143078422Y-92128500D01*
X143094362Y-92213214D01*
X143144428Y-92291018D01*
X143220820Y-92343215D01*
X143311500Y-92361578D01*
X143430500Y-92361578D01*
X143430500Y-93011500D01*
X143459502Y-93157303D01*
X143542092Y-93280908D01*
X144081500Y-93820316D01*
X144081500Y-94115222D01*
X143827500Y-94115222D01*
X143742786Y-94131162D01*
X143664982Y-94181228D01*
X143612785Y-94257620D01*
X143594422Y-94348300D01*
X143594422Y-94754700D01*
X143610362Y-94839414D01*
X143629169Y-94868641D01*
X143620246Y-94881700D01*
X143064752Y-94881700D01*
X140766800Y-92583748D01*
X140766800Y-91186000D01*
X140743598Y-91069358D01*
X140677526Y-90970474D01*
X139120506Y-89413454D01*
X139021622Y-89347382D01*
X138904980Y-89324180D01*
X138818018Y-89324180D01*
X138818018Y-89029540D01*
X138802078Y-88944826D01*
X138752012Y-88867022D01*
X138675620Y-88814825D01*
X138584940Y-88796462D01*
X137584034Y-88796462D01*
X137546752Y-88759180D01*
X139382401Y-88759180D01*
X139469224Y-88969306D01*
X139629849Y-89130211D01*
X139839823Y-89217400D01*
X139889521Y-89217443D01*
X140017500Y-89242901D01*
X140017505Y-89242900D01*
X140802962Y-89242900D01*
X140802962Y-89308940D01*
X140818902Y-89393654D01*
X140868968Y-89471458D01*
X140945360Y-89523655D01*
X141036040Y-89542018D01*
X142234920Y-89542018D01*
X142319634Y-89526078D01*
X142397438Y-89476012D01*
X142449635Y-89399620D01*
X142467998Y-89308940D01*
X142467998Y-88110060D01*
X142452058Y-88025346D01*
X142401992Y-87947542D01*
X142325600Y-87895345D01*
X142234920Y-87876982D01*
X141036040Y-87876982D01*
X140951326Y-87892922D01*
X140873522Y-87942988D01*
X140821325Y-88019380D01*
X140802962Y-88110060D01*
X140802962Y-88176100D01*
X140292437Y-88176100D01*
X140278151Y-88161789D01*
X140068177Y-88074600D01*
X139840820Y-88074401D01*
X139630694Y-88161224D01*
X139469789Y-88321849D01*
X139382600Y-88531823D01*
X139382401Y-88759180D01*
X137546752Y-88759180D01*
X136964046Y-88176474D01*
X136865162Y-88110402D01*
X136748520Y-88087200D01*
X134112000Y-88087200D01*
X133995358Y-88110402D01*
X133918452Y-88161789D01*
X133896474Y-88176474D01*
X131792766Y-90280182D01*
X131726180Y-90234685D01*
X131635500Y-90216322D01*
X129603500Y-90216322D01*
X129518786Y-90232262D01*
X129440982Y-90282328D01*
X129388785Y-90358720D01*
X129370422Y-90449400D01*
X129370422Y-92176600D01*
X129386362Y-92261314D01*
X129436428Y-92339118D01*
X129512820Y-92391315D01*
X129603500Y-92409678D01*
X131635500Y-92409678D01*
X131720214Y-92393738D01*
X131798018Y-92343672D01*
X131850215Y-92267280D01*
X131868578Y-92176600D01*
X131868578Y-91066474D01*
X134238252Y-88696800D01*
X136622268Y-88696800D01*
X137152982Y-89227514D01*
X137152982Y-90228420D01*
X137168922Y-90313134D01*
X137218988Y-90390938D01*
X137295380Y-90443135D01*
X137386060Y-90461498D01*
X138584940Y-90461498D01*
X138669654Y-90445558D01*
X138747458Y-90395492D01*
X138799655Y-90319100D01*
X138818018Y-90228420D01*
X138818018Y-89973070D01*
X140157200Y-91312252D01*
X140157200Y-92710000D01*
X140180402Y-92826642D01*
X140246474Y-92925526D01*
X140748641Y-93427693D01*
X140716000Y-93421200D01*
X139796930Y-93421200D01*
X139930211Y-93288151D01*
X140017400Y-93078177D01*
X140017599Y-92850820D01*
X139930776Y-92640694D01*
X139770151Y-92479789D01*
X139560177Y-92392600D01*
X139332820Y-92392401D01*
X139313455Y-92400403D01*
X138818018Y-91904966D01*
X138818018Y-91127580D01*
X138802078Y-91042866D01*
X138752012Y-90965062D01*
X138675620Y-90912865D01*
X138584940Y-90894502D01*
X137386060Y-90894502D01*
X137301346Y-90910442D01*
X137223542Y-90960508D01*
X137171345Y-91036900D01*
X137152982Y-91127580D01*
X137152982Y-92326460D01*
X137168922Y-92411174D01*
X137218988Y-92488978D01*
X137295380Y-92541175D01*
X137386060Y-92559538D01*
X138584940Y-92559538D01*
X138606440Y-92555492D01*
X138882279Y-92831331D01*
X138874600Y-92849823D01*
X138874401Y-93077180D01*
X138961224Y-93287306D01*
X139094885Y-93421200D01*
X137794252Y-93421200D01*
X136702800Y-92329748D01*
X136702800Y-90424000D01*
X136679598Y-90307358D01*
X136613526Y-90208474D01*
X135818506Y-89413454D01*
X135770018Y-89381055D01*
X135770018Y-89029540D01*
X135754078Y-88944826D01*
X135704012Y-88867022D01*
X135627620Y-88814825D01*
X135536940Y-88796462D01*
X134338060Y-88796462D01*
X134253346Y-88812402D01*
X134175542Y-88862468D01*
X134123345Y-88938860D01*
X134104982Y-89029540D01*
X134104982Y-90030446D01*
X133134474Y-91000954D01*
X133068402Y-91099838D01*
X133045200Y-91216480D01*
X133045200Y-92329748D01*
X131827671Y-93547277D01*
X131805344Y-93435033D01*
X131568585Y-93080698D01*
X131214250Y-92843939D01*
X130796283Y-92760800D01*
X130442717Y-92760800D01*
X130024750Y-92843939D01*
X129670415Y-93080698D01*
X129433656Y-93435033D01*
X129350517Y-93853000D01*
X128827600Y-93853000D01*
X128827600Y-86623115D01*
X130751170Y-86623115D01*
X130953011Y-87111608D01*
X131326426Y-87485676D01*
X131814566Y-87688369D01*
X132343115Y-87688830D01*
X132831608Y-87486989D01*
X133205676Y-87113574D01*
X133408369Y-86625434D01*
X133408830Y-86096885D01*
X133206989Y-85608392D01*
X132833574Y-85234324D01*
X132345434Y-85031631D01*
X131816885Y-85031170D01*
X131328392Y-85233011D01*
X130954324Y-85606426D01*
X130751631Y-86094566D01*
X130751170Y-86623115D01*
X128827600Y-86623115D01*
X128827600Y-83615600D01*
X153620400Y-83615600D01*
X153620400Y-106884400D01*
X153620400Y-106884400D01*
G37*
X153620400Y-106884400D02*
X128827600Y-106884400D01*
X128827600Y-104403115D01*
X130751170Y-104403115D01*
X130953011Y-104891608D01*
X131326426Y-105265676D01*
X131814566Y-105468369D01*
X132343115Y-105468830D01*
X132831608Y-105266989D01*
X133205676Y-104893574D01*
X133408369Y-104405434D01*
X133408830Y-103876885D01*
X133206989Y-103388392D01*
X132833574Y-103014324D01*
X132345434Y-102811631D01*
X131816885Y-102811170D01*
X131328392Y-103013011D01*
X130954324Y-103386426D01*
X130751631Y-103874566D01*
X130751170Y-104403115D01*
X128827600Y-104403115D01*
X128827600Y-93853000D01*
X129350517Y-93853000D01*
X129433656Y-94270967D01*
X129670415Y-94625302D01*
X130024750Y-94862061D01*
X130442717Y-94945200D01*
X130796283Y-94945200D01*
X131214250Y-94862061D01*
X131568585Y-94625302D01*
X131805344Y-94270967D01*
X131827854Y-94157800D01*
X131953000Y-94157800D01*
X132069642Y-94134598D01*
X132168526Y-94068526D01*
X133565526Y-92671526D01*
X133586692Y-92639849D01*
X133631598Y-92572642D01*
X133654800Y-92456000D01*
X133654800Y-91342732D01*
X133869952Y-91127580D01*
X134104982Y-91127580D01*
X134104982Y-92326460D01*
X134120922Y-92411174D01*
X134170988Y-92488978D01*
X134247380Y-92541175D01*
X134338060Y-92559538D01*
X134632700Y-92559538D01*
X134632700Y-92920554D01*
X134556600Y-93103823D01*
X134556401Y-93331180D01*
X134643224Y-93541306D01*
X134803849Y-93702211D01*
X135013823Y-93789400D01*
X135241180Y-93789599D01*
X135451306Y-93702776D01*
X135612211Y-93542151D01*
X135699400Y-93332177D01*
X135699599Y-93104820D01*
X135612776Y-92894694D01*
X135452151Y-92733789D01*
X135242300Y-92646651D01*
X135242300Y-92559538D01*
X135536940Y-92559538D01*
X135621654Y-92543598D01*
X135699458Y-92493532D01*
X135751655Y-92417140D01*
X135770018Y-92326460D01*
X135770018Y-91127580D01*
X135754078Y-91042866D01*
X135704012Y-90965062D01*
X135627620Y-90912865D01*
X135536940Y-90894502D01*
X134338060Y-90894502D01*
X134253346Y-90910442D01*
X134175542Y-90960508D01*
X134123345Y-91036900D01*
X134104982Y-91127580D01*
X133869952Y-91127580D01*
X134536034Y-90461498D01*
X135536940Y-90461498D01*
X135621654Y-90445558D01*
X135699458Y-90395492D01*
X135751655Y-90319100D01*
X135770018Y-90228420D01*
X135770018Y-90227070D01*
X136093200Y-90550252D01*
X136093200Y-92456000D01*
X136116402Y-92572642D01*
X136182474Y-92671526D01*
X137452474Y-93941526D01*
X137551358Y-94007598D01*
X137668000Y-94030800D01*
X140589748Y-94030800D01*
X142621374Y-96062426D01*
X142716968Y-96126300D01*
X139981147Y-96126300D01*
X139996578Y-96050100D01*
X139996578Y-95643700D01*
X139980638Y-95558986D01*
X139953413Y-95516678D01*
X139978215Y-95480380D01*
X139996578Y-95389700D01*
X139996578Y-94983300D01*
X139980638Y-94898586D01*
X139930572Y-94820782D01*
X139854180Y-94768585D01*
X139763500Y-94750222D01*
X138493500Y-94750222D01*
X138408786Y-94766162D01*
X138330982Y-94816228D01*
X138286246Y-94881700D01*
X138238752Y-94881700D01*
X138137526Y-94780474D01*
X138038642Y-94714402D01*
X137922000Y-94691200D01*
X134366000Y-94691200D01*
X134249358Y-94714402D01*
X134150474Y-94780474D01*
X132842748Y-96088200D01*
X131827854Y-96088200D01*
X131805344Y-95975033D01*
X131568585Y-95620698D01*
X131214250Y-95383939D01*
X130796283Y-95300800D01*
X130442717Y-95300800D01*
X130024750Y-95383939D01*
X129670415Y-95620698D01*
X129433656Y-95975033D01*
X129350517Y-96393000D01*
X129433656Y-96810967D01*
X129670415Y-97165302D01*
X130024750Y-97402061D01*
X130442717Y-97485200D01*
X130796283Y-97485200D01*
X131214250Y-97402061D01*
X131568585Y-97165302D01*
X131805344Y-96810967D01*
X131827854Y-96697800D01*
X132969000Y-96697800D01*
X133001641Y-96691307D01*
X131546804Y-98146144D01*
X131214250Y-97923939D01*
X130796283Y-97840800D01*
X130442717Y-97840800D01*
X130024750Y-97923939D01*
X129670415Y-98160698D01*
X129433656Y-98515033D01*
X129350517Y-98933000D01*
X129433656Y-99350967D01*
X129670415Y-99705302D01*
X130024750Y-99942061D01*
X130442717Y-100025200D01*
X130796283Y-100025200D01*
X131214250Y-99942061D01*
X131568585Y-99705302D01*
X131805344Y-99350967D01*
X131888483Y-98933000D01*
X131844279Y-98710773D01*
X133794512Y-96760540D01*
X133794401Y-96887180D01*
X133881224Y-97097306D01*
X134041849Y-97258211D01*
X134251823Y-97345400D01*
X134479180Y-97345599D01*
X134689306Y-97258776D01*
X134850211Y-97098151D01*
X134872697Y-97044000D01*
X135031922Y-97044000D01*
X135031922Y-97163000D01*
X135047862Y-97247714D01*
X135097928Y-97325518D01*
X135174320Y-97377715D01*
X135265000Y-97396078D01*
X136515000Y-97396078D01*
X136599714Y-97380138D01*
X136677518Y-97330072D01*
X136729715Y-97253680D01*
X136748078Y-97163000D01*
X136748078Y-96888300D01*
X138270709Y-96888300D01*
X138260422Y-96939100D01*
X138260422Y-97345500D01*
X138276362Y-97430214D01*
X138303587Y-97472522D01*
X138278785Y-97508820D01*
X138260422Y-97599500D01*
X138260422Y-98005900D01*
X138276362Y-98090614D01*
X138303587Y-98132922D01*
X138278785Y-98169220D01*
X138260422Y-98259900D01*
X138260422Y-98666300D01*
X138276362Y-98751014D01*
X138326428Y-98828818D01*
X138402820Y-98881015D01*
X138493500Y-98899378D01*
X139763500Y-98899378D01*
X139848214Y-98883438D01*
X139909346Y-98844100D01*
X139992100Y-98844100D01*
X139992100Y-103843422D01*
X139509500Y-103843422D01*
X139424786Y-103859362D01*
X139346982Y-103909428D01*
X139294785Y-103985820D01*
X139276422Y-104076500D01*
X139276422Y-106108500D01*
X139292362Y-106193214D01*
X139342428Y-106271018D01*
X139418820Y-106323215D01*
X139509500Y-106341578D01*
X141541500Y-106341578D01*
X141626214Y-106325638D01*
X141704018Y-106275572D01*
X141756215Y-106199180D01*
X141774578Y-106108500D01*
X141774578Y-104076500D01*
X141758638Y-103991786D01*
X141708572Y-103913982D01*
X141632180Y-103861785D01*
X141541500Y-103843422D01*
X141058900Y-103843422D01*
X141058900Y-98107500D01*
X141018297Y-97903377D01*
X141018297Y-97903376D01*
X140902671Y-97730329D01*
X140695642Y-97523300D01*
X142793758Y-97523300D01*
X142370829Y-97946229D01*
X142255203Y-98119277D01*
X142214600Y-98323400D01*
X142214600Y-102108000D01*
X142255203Y-102312123D01*
X142370829Y-102485171D01*
X142532100Y-102646442D01*
X142532100Y-103956418D01*
X142185435Y-104188052D01*
X141915640Y-104591829D01*
X141820900Y-105068117D01*
X141820900Y-105116883D01*
X141915640Y-105593171D01*
X142185435Y-105996948D01*
X142589212Y-106266743D01*
X143065500Y-106361483D01*
X143541788Y-106266743D01*
X143945565Y-105996948D01*
X144215360Y-105593171D01*
X144310100Y-105116883D01*
X144310100Y-105068117D01*
X144215360Y-104591829D01*
X144089266Y-104403115D01*
X149801170Y-104403115D01*
X150003011Y-104891608D01*
X150376426Y-105265676D01*
X150864566Y-105468369D01*
X151393115Y-105468830D01*
X151881608Y-105266989D01*
X152255676Y-104893574D01*
X152458369Y-104405434D01*
X152458830Y-103876885D01*
X152256989Y-103388392D01*
X151883574Y-103014324D01*
X151395434Y-102811631D01*
X150866885Y-102811170D01*
X150378392Y-103013011D01*
X150004324Y-103386426D01*
X149801631Y-103874566D01*
X149801170Y-104403115D01*
X144089266Y-104403115D01*
X143945565Y-104188052D01*
X143598900Y-103956418D01*
X143598900Y-102425500D01*
X143558297Y-102221377D01*
X143442671Y-102048329D01*
X143281400Y-101887058D01*
X143281400Y-98844100D01*
X143682794Y-98844100D01*
X143736820Y-98881015D01*
X143827500Y-98899378D01*
X145097500Y-98899378D01*
X145182214Y-98883438D01*
X145260018Y-98833372D01*
X145312215Y-98756980D01*
X145330578Y-98666300D01*
X145330578Y-98259900D01*
X145314638Y-98175186D01*
X145287413Y-98132878D01*
X145312215Y-98096580D01*
X145330578Y-98005900D01*
X145330578Y-97599500D01*
X145316240Y-97523300D01*
X145656300Y-97523300D01*
X145802103Y-97494298D01*
X145925708Y-97411708D01*
X146298060Y-97039355D01*
X146495423Y-97000097D01*
X146668471Y-96884471D01*
X147408862Y-96144080D01*
X150106982Y-96144080D01*
X150106982Y-97342960D01*
X150122922Y-97427674D01*
X150172988Y-97505478D01*
X150249380Y-97557675D01*
X150340060Y-97576038D01*
X151538940Y-97576038D01*
X151623654Y-97560098D01*
X151701458Y-97510032D01*
X151753655Y-97433640D01*
X151772018Y-97342960D01*
X151772018Y-97124520D01*
X152082416Y-97124520D01*
X152082401Y-97141180D01*
X152169224Y-97351306D01*
X152329849Y-97512211D01*
X152539823Y-97599400D01*
X152767180Y-97599599D01*
X152977306Y-97512776D01*
X153138211Y-97352151D01*
X153225400Y-97142177D01*
X153225599Y-96914820D01*
X153138776Y-96704694D01*
X152978151Y-96543789D01*
X152768177Y-96456600D01*
X152612515Y-96456464D01*
X152515323Y-96391522D01*
X152369520Y-96362520D01*
X151772018Y-96362520D01*
X151772018Y-96144080D01*
X151756078Y-96059366D01*
X151706012Y-95981562D01*
X151629620Y-95929365D01*
X151538940Y-95911002D01*
X150340060Y-95911002D01*
X150255346Y-95926942D01*
X150177542Y-95977008D01*
X150125345Y-96053400D01*
X150106982Y-96144080D01*
X147408862Y-96144080D01*
X148374062Y-95178880D01*
X150106982Y-95178880D01*
X150106982Y-95244920D01*
X150122922Y-95329634D01*
X150172988Y-95407438D01*
X150249380Y-95459635D01*
X150340060Y-95477998D01*
X151538940Y-95477998D01*
X151623654Y-95462058D01*
X151701458Y-95411992D01*
X151753655Y-95335600D01*
X151772018Y-95244920D01*
X151772018Y-94046040D01*
X151756078Y-93961326D01*
X151706012Y-93883522D01*
X151629620Y-93831325D01*
X151538940Y-93812962D01*
X151472900Y-93812962D01*
X151472900Y-90233500D01*
X151432297Y-90029377D01*
X151316671Y-89856329D01*
X150557171Y-89096829D01*
X150384123Y-88981203D01*
X150180000Y-88940600D01*
X148614511Y-88940600D01*
X148568680Y-88909285D01*
X148478000Y-88890922D01*
X148361400Y-88890922D01*
X148361400Y-87884000D01*
X148320797Y-87679877D01*
X148320797Y-87679876D01*
X148205171Y-87506829D01*
X147321457Y-86623115D01*
X149801170Y-86623115D01*
X150003011Y-87111608D01*
X150376426Y-87485676D01*
X150864566Y-87688369D01*
X151393115Y-87688830D01*
X151881608Y-87486989D01*
X152255676Y-87113574D01*
X152458369Y-86625434D01*
X152458830Y-86096885D01*
X152256989Y-85608392D01*
X151883574Y-85234324D01*
X151395434Y-85031631D01*
X150866885Y-85031170D01*
X150378392Y-85233011D01*
X150004324Y-85606426D01*
X149801631Y-86094566D01*
X149801170Y-86623115D01*
X147321457Y-86623115D01*
X146189700Y-85491358D01*
X146189700Y-85294217D01*
X146106561Y-84876250D01*
X145869802Y-84521915D01*
X145515467Y-84285156D01*
X145097500Y-84202017D01*
X144679533Y-84285156D01*
X144325198Y-84521915D01*
X144088439Y-84876250D01*
X144005300Y-85294217D01*
X144005300Y-85647783D01*
X144088439Y-86065750D01*
X144325198Y-86420085D01*
X144679533Y-86656844D01*
X145097500Y-86739983D01*
X145515467Y-86656844D01*
X145713908Y-86524250D01*
X147294600Y-88104942D01*
X147294600Y-88890922D01*
X147178000Y-88890922D01*
X147093286Y-88906862D01*
X147015482Y-88956928D01*
X146963285Y-89033320D01*
X146944922Y-89124000D01*
X146944922Y-89824000D01*
X146960862Y-89908714D01*
X147010928Y-89986518D01*
X147087320Y-90038715D01*
X147178000Y-90057078D01*
X148478000Y-90057078D01*
X148562714Y-90041138D01*
X148615144Y-90007400D01*
X149959058Y-90007400D01*
X150406100Y-90454442D01*
X150406100Y-93812962D01*
X150340060Y-93812962D01*
X150255346Y-93828902D01*
X150177542Y-93878968D01*
X150125345Y-93955360D01*
X150106982Y-94046040D01*
X150106982Y-94112080D01*
X148153120Y-94112080D01*
X147948997Y-94152683D01*
X147775949Y-94268309D01*
X145917958Y-96126300D01*
X145315147Y-96126300D01*
X145330578Y-96050100D01*
X145330578Y-95643700D01*
X145314638Y-95558986D01*
X145287413Y-95516678D01*
X145312215Y-95480380D01*
X145330578Y-95389700D01*
X145330578Y-94983300D01*
X145321019Y-94932500D01*
X145478500Y-94932500D01*
X145624303Y-94903498D01*
X145747908Y-94820908D01*
X146065408Y-94503408D01*
X146147998Y-94379802D01*
X146177001Y-94234000D01*
X146177000Y-94233995D01*
X146177000Y-93472000D01*
X146147998Y-93326198D01*
X146065408Y-93202592D01*
X146065405Y-93202590D01*
X144899716Y-92036900D01*
X147698500Y-92036900D01*
X147902623Y-91996297D01*
X147961319Y-91957078D01*
X148478000Y-91957078D01*
X148562714Y-91941138D01*
X148640518Y-91891072D01*
X148692715Y-91814680D01*
X148711078Y-91724000D01*
X148711078Y-91024000D01*
X148695138Y-90939286D01*
X148645072Y-90861482D01*
X148568680Y-90809285D01*
X148478000Y-90790922D01*
X147178000Y-90790922D01*
X147093286Y-90806862D01*
X147015482Y-90856928D01*
X146963285Y-90933320D01*
X146955837Y-90970100D01*
X144544578Y-90970100D01*
X144544578Y-90878500D01*
X144528638Y-90793786D01*
X144478572Y-90715982D01*
X144402180Y-90663785D01*
X144311500Y-90645422D01*
X144266920Y-90645422D01*
X144266920Y-89542018D01*
X144332960Y-89542018D01*
X144400893Y-89529235D01*
X145019383Y-90147725D01*
X145057224Y-90239306D01*
X145217849Y-90400211D01*
X145427823Y-90487400D01*
X145655180Y-90487599D01*
X145865306Y-90400776D01*
X146026211Y-90240151D01*
X146113400Y-90030177D01*
X146113599Y-89802820D01*
X146026776Y-89592694D01*
X145866151Y-89431789D01*
X145773772Y-89393430D01*
X144712671Y-88332329D01*
X144566038Y-88234353D01*
X144566038Y-88110060D01*
X144550098Y-88025346D01*
X144500032Y-87947542D01*
X144423640Y-87895345D01*
X144332960Y-87876982D01*
X144266920Y-87876982D01*
X144266920Y-86837520D01*
X144226317Y-86633396D01*
X144180004Y-86564083D01*
X144110691Y-86460349D01*
X144110688Y-86460347D01*
X143591370Y-85941028D01*
X143649700Y-85647783D01*
X143649700Y-85294217D01*
X143566561Y-84876250D01*
X143329802Y-84521915D01*
X142975467Y-84285156D01*
X142557500Y-84202017D01*
X142139533Y-84285156D01*
X141785198Y-84521915D01*
X141548439Y-84876250D01*
X141465300Y-85294217D01*
X141465300Y-85647783D01*
X141548439Y-86065750D01*
X141785198Y-86420085D01*
X142139533Y-86656844D01*
X142557500Y-86739983D01*
X142827863Y-86686204D01*
X143200120Y-87058461D01*
X143200120Y-87876982D01*
X143134080Y-87876982D01*
X143049366Y-87892922D01*
X142971562Y-87942988D01*
X142919365Y-88019380D01*
X142901002Y-88110060D01*
X142901002Y-89308940D01*
X142916942Y-89393654D01*
X142967008Y-89471458D01*
X143043400Y-89523655D01*
X143134080Y-89542018D01*
X143200120Y-89542018D01*
X143200120Y-90678521D01*
X143148982Y-90711428D01*
X143096785Y-90787820D01*
X143078422Y-90878500D01*
X143078422Y-91438537D01*
X143065500Y-91503500D01*
X143078422Y-91568463D01*
X143078422Y-92128500D01*
X143094362Y-92213214D01*
X143144428Y-92291018D01*
X143220820Y-92343215D01*
X143311500Y-92361578D01*
X143430500Y-92361578D01*
X143430500Y-93011500D01*
X143459502Y-93157303D01*
X143542092Y-93280908D01*
X144081500Y-93820316D01*
X144081500Y-94115222D01*
X143827500Y-94115222D01*
X143742786Y-94131162D01*
X143664982Y-94181228D01*
X143612785Y-94257620D01*
X143594422Y-94348300D01*
X143594422Y-94754700D01*
X143610362Y-94839414D01*
X143629169Y-94868641D01*
X143620246Y-94881700D01*
X143064752Y-94881700D01*
X140766800Y-92583748D01*
X140766800Y-91186000D01*
X140743598Y-91069358D01*
X140677526Y-90970474D01*
X139120506Y-89413454D01*
X139021622Y-89347382D01*
X138904980Y-89324180D01*
X138818018Y-89324180D01*
X138818018Y-89029540D01*
X138802078Y-88944826D01*
X138752012Y-88867022D01*
X138675620Y-88814825D01*
X138584940Y-88796462D01*
X137584034Y-88796462D01*
X137546752Y-88759180D01*
X139382401Y-88759180D01*
X139469224Y-88969306D01*
X139629849Y-89130211D01*
X139839823Y-89217400D01*
X139889521Y-89217443D01*
X140017500Y-89242901D01*
X140017505Y-89242900D01*
X140802962Y-89242900D01*
X140802962Y-89308940D01*
X140818902Y-89393654D01*
X140868968Y-89471458D01*
X140945360Y-89523655D01*
X141036040Y-89542018D01*
X142234920Y-89542018D01*
X142319634Y-89526078D01*
X142397438Y-89476012D01*
X142449635Y-89399620D01*
X142467998Y-89308940D01*
X142467998Y-88110060D01*
X142452058Y-88025346D01*
X142401992Y-87947542D01*
X142325600Y-87895345D01*
X142234920Y-87876982D01*
X141036040Y-87876982D01*
X140951326Y-87892922D01*
X140873522Y-87942988D01*
X140821325Y-88019380D01*
X140802962Y-88110060D01*
X140802962Y-88176100D01*
X140292437Y-88176100D01*
X140278151Y-88161789D01*
X140068177Y-88074600D01*
X139840820Y-88074401D01*
X139630694Y-88161224D01*
X139469789Y-88321849D01*
X139382600Y-88531823D01*
X139382401Y-88759180D01*
X137546752Y-88759180D01*
X136964046Y-88176474D01*
X136865162Y-88110402D01*
X136748520Y-88087200D01*
X134112000Y-88087200D01*
X133995358Y-88110402D01*
X133918452Y-88161789D01*
X133896474Y-88176474D01*
X131792766Y-90280182D01*
X131726180Y-90234685D01*
X131635500Y-90216322D01*
X129603500Y-90216322D01*
X129518786Y-90232262D01*
X129440982Y-90282328D01*
X129388785Y-90358720D01*
X129370422Y-90449400D01*
X129370422Y-92176600D01*
X129386362Y-92261314D01*
X129436428Y-92339118D01*
X129512820Y-92391315D01*
X129603500Y-92409678D01*
X131635500Y-92409678D01*
X131720214Y-92393738D01*
X131798018Y-92343672D01*
X131850215Y-92267280D01*
X131868578Y-92176600D01*
X131868578Y-91066474D01*
X134238252Y-88696800D01*
X136622268Y-88696800D01*
X137152982Y-89227514D01*
X137152982Y-90228420D01*
X137168922Y-90313134D01*
X137218988Y-90390938D01*
X137295380Y-90443135D01*
X137386060Y-90461498D01*
X138584940Y-90461498D01*
X138669654Y-90445558D01*
X138747458Y-90395492D01*
X138799655Y-90319100D01*
X138818018Y-90228420D01*
X138818018Y-89973070D01*
X140157200Y-91312252D01*
X140157200Y-92710000D01*
X140180402Y-92826642D01*
X140246474Y-92925526D01*
X140748641Y-93427693D01*
X140716000Y-93421200D01*
X139796930Y-93421200D01*
X139930211Y-93288151D01*
X140017400Y-93078177D01*
X140017599Y-92850820D01*
X139930776Y-92640694D01*
X139770151Y-92479789D01*
X139560177Y-92392600D01*
X139332820Y-92392401D01*
X139313455Y-92400403D01*
X138818018Y-91904966D01*
X138818018Y-91127580D01*
X138802078Y-91042866D01*
X138752012Y-90965062D01*
X138675620Y-90912865D01*
X138584940Y-90894502D01*
X137386060Y-90894502D01*
X137301346Y-90910442D01*
X137223542Y-90960508D01*
X137171345Y-91036900D01*
X137152982Y-91127580D01*
X137152982Y-92326460D01*
X137168922Y-92411174D01*
X137218988Y-92488978D01*
X137295380Y-92541175D01*
X137386060Y-92559538D01*
X138584940Y-92559538D01*
X138606440Y-92555492D01*
X138882279Y-92831331D01*
X138874600Y-92849823D01*
X138874401Y-93077180D01*
X138961224Y-93287306D01*
X139094885Y-93421200D01*
X137794252Y-93421200D01*
X136702800Y-92329748D01*
X136702800Y-90424000D01*
X136679598Y-90307358D01*
X136613526Y-90208474D01*
X135818506Y-89413454D01*
X135770018Y-89381055D01*
X135770018Y-89029540D01*
X135754078Y-88944826D01*
X135704012Y-88867022D01*
X135627620Y-88814825D01*
X135536940Y-88796462D01*
X134338060Y-88796462D01*
X134253346Y-88812402D01*
X134175542Y-88862468D01*
X134123345Y-88938860D01*
X134104982Y-89029540D01*
X134104982Y-90030446D01*
X133134474Y-91000954D01*
X133068402Y-91099838D01*
X133045200Y-91216480D01*
X133045200Y-92329748D01*
X131827671Y-93547277D01*
X131805344Y-93435033D01*
X131568585Y-93080698D01*
X131214250Y-92843939D01*
X130796283Y-92760800D01*
X130442717Y-92760800D01*
X130024750Y-92843939D01*
X129670415Y-93080698D01*
X129433656Y-93435033D01*
X129350517Y-93853000D01*
X128827600Y-93853000D01*
X128827600Y-86623115D01*
X130751170Y-86623115D01*
X130953011Y-87111608D01*
X131326426Y-87485676D01*
X131814566Y-87688369D01*
X132343115Y-87688830D01*
X132831608Y-87486989D01*
X133205676Y-87113574D01*
X133408369Y-86625434D01*
X133408830Y-86096885D01*
X133206989Y-85608392D01*
X132833574Y-85234324D01*
X132345434Y-85031631D01*
X131816885Y-85031170D01*
X131328392Y-85233011D01*
X130954324Y-85606426D01*
X130751631Y-86094566D01*
X130751170Y-86623115D01*
X128827600Y-86623115D01*
X128827600Y-83615600D01*
X153620400Y-83615600D01*
X153620400Y-106884400D01*
M02*
