G04 #@! TF.FileFunction,Legend,Bot*
%FSLAX46Y46*%
G04 Gerber Fmt 4.6, Leading zero omitted, Abs format (unit mm)*
G04 Created by KiCad (PCBNEW 4.0.2-stable) date Wednesday, January 18, 2017 'PMt' 01:23:50 PM*
%MOMM*%
G01*
G04 APERTURE LIST*
%ADD10C,0.100000*%
%ADD11C,0.150000*%
%ADD12C,2.301600*%
%ADD13R,2.133600X2.133600*%
%ADD14O,2.133600X2.133600*%
%ADD15R,2.133600X1.828800*%
%ADD16O,2.133600X1.828800*%
%ADD17R,1.828800X2.133600*%
%ADD18O,1.828800X2.133600*%
%ADD19R,2.101600X1.701600*%
%ADD20R,1.701600X2.101600*%
%ADD21R,1.601600X1.401600*%
%ADD22R,1.401600X1.601600*%
G04 APERTURE END LIST*
D10*
D11*
X139598304Y-86901400D02*
X139693542Y-86853781D01*
X139836399Y-86853781D01*
X139979257Y-86901400D01*
X140074495Y-86996638D01*
X140122114Y-87091876D01*
X140169733Y-87282352D01*
X140169733Y-87425210D01*
X140122114Y-87615686D01*
X140074495Y-87710924D01*
X139979257Y-87806162D01*
X139836399Y-87853781D01*
X139741161Y-87853781D01*
X139598304Y-87806162D01*
X139550685Y-87758543D01*
X139550685Y-87425210D01*
X139741161Y-87425210D01*
X139122114Y-87853781D02*
X139122114Y-86853781D01*
X138550685Y-87853781D01*
X138550685Y-86853781D01*
X138074495Y-87853781D02*
X138074495Y-86853781D01*
X137836400Y-86853781D01*
X137693542Y-86901400D01*
X137598304Y-86996638D01*
X137550685Y-87091876D01*
X137503066Y-87282352D01*
X137503066Y-87425210D01*
X137550685Y-87615686D01*
X137598304Y-87710924D01*
X137693542Y-87806162D01*
X137836400Y-87853781D01*
X138074495Y-87853781D01*
X145122733Y-86548981D02*
X144789400Y-87548981D01*
X144456066Y-86548981D01*
X143551304Y-87453743D02*
X143598923Y-87501362D01*
X143741780Y-87548981D01*
X143837018Y-87548981D01*
X143979876Y-87501362D01*
X144075114Y-87406124D01*
X144122733Y-87310886D01*
X144170352Y-87120410D01*
X144170352Y-86977552D01*
X144122733Y-86787076D01*
X144075114Y-86691838D01*
X143979876Y-86596600D01*
X143837018Y-86548981D01*
X143741780Y-86548981D01*
X143598923Y-86596600D01*
X143551304Y-86644219D01*
X142551304Y-87453743D02*
X142598923Y-87501362D01*
X142741780Y-87548981D01*
X142837018Y-87548981D01*
X142979876Y-87501362D01*
X143075114Y-87406124D01*
X143122733Y-87310886D01*
X143170352Y-87120410D01*
X143170352Y-86977552D01*
X143122733Y-86787076D01*
X143075114Y-86691838D01*
X142979876Y-86596600D01*
X142837018Y-86548981D01*
X142741780Y-86548981D01*
X142598923Y-86596600D01*
X142551304Y-86644219D01*
X148173962Y-86396581D02*
X147840629Y-87396581D01*
X147507295Y-86396581D01*
X147173962Y-87396581D02*
X147173962Y-86396581D01*
X146840628Y-87110867D01*
X146507295Y-86396581D01*
X146507295Y-87396581D01*
X142489000Y-95720162D02*
X142441381Y-95624924D01*
X142441381Y-95482067D01*
X142489000Y-95339209D01*
X142584238Y-95243971D01*
X142679476Y-95196352D01*
X142869952Y-95148733D01*
X143012810Y-95148733D01*
X143203286Y-95196352D01*
X143298524Y-95243971D01*
X143393762Y-95339209D01*
X143441381Y-95482067D01*
X143441381Y-95577305D01*
X143393762Y-95720162D01*
X143346143Y-95767781D01*
X143012810Y-95767781D01*
X143012810Y-95577305D01*
X143441381Y-96339209D02*
X143393762Y-96243971D01*
X143346143Y-96196352D01*
X143250905Y-96148733D01*
X142965190Y-96148733D01*
X142869952Y-96196352D01*
X142822333Y-96243971D01*
X142774714Y-96339209D01*
X142774714Y-96482067D01*
X142822333Y-96577305D01*
X142869952Y-96624924D01*
X142965190Y-96672543D01*
X143250905Y-96672543D01*
X143346143Y-96624924D01*
X143393762Y-96577305D01*
X143441381Y-96482067D01*
X143441381Y-96339209D01*
X142489000Y-97624924D02*
X142441381Y-97529686D01*
X142441381Y-97386829D01*
X142489000Y-97243971D01*
X142584238Y-97148733D01*
X142679476Y-97101114D01*
X142869952Y-97053495D01*
X143012810Y-97053495D01*
X143203286Y-97101114D01*
X143298524Y-97148733D01*
X143393762Y-97243971D01*
X143441381Y-97386829D01*
X143441381Y-97482067D01*
X143393762Y-97624924D01*
X143346143Y-97672543D01*
X143012810Y-97672543D01*
X143012810Y-97482067D01*
X143441381Y-98243971D02*
X143393762Y-98148733D01*
X143346143Y-98101114D01*
X143250905Y-98053495D01*
X142965190Y-98053495D01*
X142869952Y-98101114D01*
X142822333Y-98148733D01*
X142774714Y-98243971D01*
X142774714Y-98386829D01*
X142822333Y-98482067D01*
X142869952Y-98529686D01*
X142965190Y-98577305D01*
X143250905Y-98577305D01*
X143346143Y-98529686D01*
X143393762Y-98482067D01*
X143441381Y-98386829D01*
X143441381Y-98243971D01*
X142489000Y-99529686D02*
X142441381Y-99434448D01*
X142441381Y-99291591D01*
X142489000Y-99148733D01*
X142584238Y-99053495D01*
X142679476Y-99005876D01*
X142869952Y-98958257D01*
X143012810Y-98958257D01*
X143203286Y-99005876D01*
X143298524Y-99053495D01*
X143393762Y-99148733D01*
X143441381Y-99291591D01*
X143441381Y-99386829D01*
X143393762Y-99529686D01*
X143346143Y-99577305D01*
X143012810Y-99577305D01*
X143012810Y-99386829D01*
X143441381Y-100148733D02*
X143393762Y-100053495D01*
X143346143Y-100005876D01*
X143250905Y-99958257D01*
X142965190Y-99958257D01*
X142869952Y-100005876D01*
X142822333Y-100053495D01*
X142774714Y-100148733D01*
X142774714Y-100291591D01*
X142822333Y-100386829D01*
X142869952Y-100434448D01*
X142965190Y-100482067D01*
X143250905Y-100482067D01*
X143346143Y-100434448D01*
X143393762Y-100386829D01*
X143441381Y-100291591D01*
X143441381Y-100148733D01*
X144705667Y-94386828D02*
X144705667Y-94863019D01*
X144991381Y-94291590D02*
X143991381Y-94624923D01*
X144991381Y-94958257D01*
X144991381Y-95434447D02*
X144943762Y-95339209D01*
X144848524Y-95291590D01*
X143991381Y-95291590D01*
X144991381Y-96243972D02*
X144467571Y-96243972D01*
X144372333Y-96196353D01*
X144324714Y-96101115D01*
X144324714Y-95910638D01*
X144372333Y-95815400D01*
X144943762Y-96243972D02*
X144991381Y-96148734D01*
X144991381Y-95910638D01*
X144943762Y-95815400D01*
X144848524Y-95767781D01*
X144753286Y-95767781D01*
X144658048Y-95815400D01*
X144610429Y-95910638D01*
X144610429Y-96148734D01*
X144562810Y-96243972D01*
X144324714Y-96720162D02*
X144991381Y-96720162D01*
X144419952Y-96720162D02*
X144372333Y-96767781D01*
X144324714Y-96863019D01*
X144324714Y-97005877D01*
X144372333Y-97101115D01*
X144467571Y-97148734D01*
X144991381Y-97148734D01*
X144467571Y-98720163D02*
X144467571Y-98386829D01*
X144991381Y-98386829D02*
X143991381Y-98386829D01*
X143991381Y-98863020D01*
X144991381Y-99386829D02*
X144943762Y-99291591D01*
X144896143Y-99243972D01*
X144800905Y-99196353D01*
X144515190Y-99196353D01*
X144419952Y-99243972D01*
X144372333Y-99291591D01*
X144324714Y-99386829D01*
X144324714Y-99529687D01*
X144372333Y-99624925D01*
X144419952Y-99672544D01*
X144515190Y-99720163D01*
X144800905Y-99720163D01*
X144896143Y-99672544D01*
X144943762Y-99624925D01*
X144991381Y-99529687D01*
X144991381Y-99386829D01*
X144991381Y-100148734D02*
X144324714Y-100148734D01*
X144515190Y-100148734D02*
X144419952Y-100196353D01*
X144372333Y-100243972D01*
X144324714Y-100339210D01*
X144324714Y-100434449D01*
X144991381Y-101196354D02*
X143991381Y-101196354D01*
X144943762Y-101196354D02*
X144991381Y-101101116D01*
X144991381Y-100910639D01*
X144943762Y-100815401D01*
X144896143Y-100767782D01*
X144800905Y-100720163D01*
X144515190Y-100720163D01*
X144419952Y-100767782D01*
X144372333Y-100815401D01*
X144324714Y-100910639D01*
X144324714Y-101101116D01*
X144372333Y-101196354D01*
X139965181Y-101587371D02*
X139965181Y-101777848D01*
X140012800Y-101873086D01*
X140108038Y-101968324D01*
X140298514Y-102015943D01*
X140631848Y-102015943D01*
X140822324Y-101968324D01*
X140917562Y-101873086D01*
X140965181Y-101777848D01*
X140965181Y-101587371D01*
X140917562Y-101492133D01*
X140822324Y-101396895D01*
X140631848Y-101349276D01*
X140298514Y-101349276D01*
X140108038Y-101396895D01*
X140012800Y-101492133D01*
X139965181Y-101587371D01*
X140965181Y-102968324D02*
X140965181Y-102396895D01*
X140965181Y-102682609D02*
X139965181Y-102682609D01*
X140108038Y-102587371D01*
X140203276Y-102492133D01*
X140250895Y-102396895D01*
X143140181Y-101663571D02*
X143140181Y-101854048D01*
X143187800Y-101949286D01*
X143283038Y-102044524D01*
X143473514Y-102092143D01*
X143806848Y-102092143D01*
X143997324Y-102044524D01*
X144092562Y-101949286D01*
X144140181Y-101854048D01*
X144140181Y-101663571D01*
X144092562Y-101568333D01*
X143997324Y-101473095D01*
X143806848Y-101425476D01*
X143473514Y-101425476D01*
X143283038Y-101473095D01*
X143187800Y-101568333D01*
X143140181Y-101663571D01*
X143235419Y-102473095D02*
X143187800Y-102520714D01*
X143140181Y-102615952D01*
X143140181Y-102854048D01*
X143187800Y-102949286D01*
X143235419Y-102996905D01*
X143330657Y-103044524D01*
X143425895Y-103044524D01*
X143568752Y-102996905D01*
X144140181Y-102425476D01*
X144140181Y-103044524D01*
X132687962Y-99141162D02*
X132735581Y-99284019D01*
X132735581Y-99522115D01*
X132687962Y-99617353D01*
X132640343Y-99664972D01*
X132545105Y-99712591D01*
X132449867Y-99712591D01*
X132354629Y-99664972D01*
X132307010Y-99617353D01*
X132259390Y-99522115D01*
X132211771Y-99331638D01*
X132164152Y-99236400D01*
X132116533Y-99188781D01*
X132021295Y-99141162D01*
X131926057Y-99141162D01*
X131830819Y-99188781D01*
X131783200Y-99236400D01*
X131735581Y-99331638D01*
X131735581Y-99569734D01*
X131783200Y-99712591D01*
X131735581Y-99998305D02*
X131735581Y-100569734D01*
X132735581Y-100284019D02*
X131735581Y-100284019D01*
X132211771Y-101236401D02*
X132259390Y-101379258D01*
X132307010Y-101426877D01*
X132402248Y-101474496D01*
X132545105Y-101474496D01*
X132640343Y-101426877D01*
X132687962Y-101379258D01*
X132735581Y-101284020D01*
X132735581Y-100903067D01*
X131735581Y-100903067D01*
X131735581Y-101236401D01*
X131783200Y-101331639D01*
X131830819Y-101379258D01*
X131926057Y-101426877D01*
X132021295Y-101426877D01*
X132116533Y-101379258D01*
X132164152Y-101331639D01*
X132211771Y-101236401D01*
X132211771Y-100903067D01*
X132259390Y-102093543D02*
X132735581Y-102093543D01*
X131735581Y-101760210D02*
X132259390Y-102093543D01*
X131735581Y-102426877D01*
X133167381Y-95267638D02*
X132167381Y-95267638D01*
X132167381Y-95648591D01*
X132215000Y-95743829D01*
X132262619Y-95791448D01*
X132357857Y-95839067D01*
X132500714Y-95839067D01*
X132595952Y-95791448D01*
X132643571Y-95743829D01*
X132691190Y-95648591D01*
X132691190Y-95267638D01*
X132167381Y-96172400D02*
X133167381Y-96410495D01*
X132453095Y-96600972D01*
X133167381Y-96791448D01*
X132167381Y-97029543D01*
X133167381Y-97410495D02*
X132167381Y-97410495D01*
X132881667Y-97743829D01*
X132167381Y-98077162D01*
X133167381Y-98077162D01*
X133192781Y-91354400D02*
X132192781Y-91354400D01*
X133192781Y-91830590D02*
X132192781Y-91830590D01*
X133192781Y-92402019D01*
X132192781Y-92402019D01*
X133192781Y-93402019D02*
X133192781Y-92830590D01*
X133192781Y-93116304D02*
X132192781Y-93116304D01*
X132335638Y-93021066D01*
X132430876Y-92925828D01*
X132478495Y-92830590D01*
X130525781Y-87773000D02*
X129525781Y-87773000D01*
X130525781Y-88249190D02*
X129525781Y-88249190D01*
X130525781Y-88820619D01*
X129525781Y-88820619D01*
X129621019Y-89249190D02*
X129573400Y-89296809D01*
X129525781Y-89392047D01*
X129525781Y-89630143D01*
X129573400Y-89725381D01*
X129621019Y-89773000D01*
X129716257Y-89820619D01*
X129811495Y-89820619D01*
X129954352Y-89773000D01*
X130525781Y-89201571D01*
X130525781Y-89820619D01*
X141811500Y-90478500D02*
X143811500Y-90478500D01*
X143811500Y-92528500D02*
X141811500Y-92528500D01*
X134865000Y-98663000D02*
X134865000Y-96663000D01*
X136915000Y-96663000D02*
X136915000Y-98663000D01*
X143284500Y-87834500D02*
X142084500Y-87834500D01*
X142084500Y-89584500D02*
X143284500Y-89584500D01*
X134062500Y-90078000D02*
X134062500Y-91278000D01*
X135812500Y-91278000D02*
X135812500Y-90078000D01*
X150064500Y-95094500D02*
X150064500Y-96294500D01*
X151814500Y-96294500D02*
X151814500Y-95094500D01*
X137047000Y-90078000D02*
X137047000Y-91278000D01*
X138797000Y-91278000D02*
X138797000Y-90078000D01*
X142914666Y-93854543D02*
X142962285Y-93902162D01*
X143105142Y-93949781D01*
X143200380Y-93949781D01*
X143343238Y-93902162D01*
X143438476Y-93806924D01*
X143486095Y-93711686D01*
X143533714Y-93521210D01*
X143533714Y-93378352D01*
X143486095Y-93187876D01*
X143438476Y-93092638D01*
X143343238Y-92997400D01*
X143200380Y-92949781D01*
X143105142Y-92949781D01*
X142962285Y-92997400D01*
X142914666Y-93045019D01*
X142533714Y-93045019D02*
X142486095Y-92997400D01*
X142390857Y-92949781D01*
X142152761Y-92949781D01*
X142057523Y-92997400D01*
X142009904Y-93045019D01*
X141962285Y-93140257D01*
X141962285Y-93235495D01*
X142009904Y-93378352D01*
X142581333Y-93949781D01*
X141962285Y-93949781D01*
X139142743Y-97572534D02*
X139190362Y-97524915D01*
X139237981Y-97382058D01*
X139237981Y-97286820D01*
X139190362Y-97143962D01*
X139095124Y-97048724D01*
X138999886Y-97001105D01*
X138809410Y-96953486D01*
X138666552Y-96953486D01*
X138476076Y-97001105D01*
X138380838Y-97048724D01*
X138285600Y-97143962D01*
X138237981Y-97286820D01*
X138237981Y-97382058D01*
X138285600Y-97524915D01*
X138333219Y-97572534D01*
X138571314Y-98429677D02*
X139237981Y-98429677D01*
X138190362Y-98191581D02*
X138904648Y-97953486D01*
X138904648Y-98572534D01*
X146953266Y-89631781D02*
X147286600Y-89155590D01*
X147524695Y-89631781D02*
X147524695Y-88631781D01*
X147143742Y-88631781D01*
X147048504Y-88679400D01*
X147000885Y-88727019D01*
X146953266Y-88822257D01*
X146953266Y-88965114D01*
X147000885Y-89060352D01*
X147048504Y-89107971D01*
X147143742Y-89155590D01*
X147524695Y-89155590D01*
X146000885Y-89631781D02*
X146572314Y-89631781D01*
X146286600Y-89631781D02*
X146286600Y-88631781D01*
X146381838Y-88774638D01*
X146477076Y-88869876D01*
X146572314Y-88917495D01*
X133599181Y-89114334D02*
X133122990Y-88781000D01*
X133599181Y-88542905D02*
X132599181Y-88542905D01*
X132599181Y-88923858D01*
X132646800Y-89019096D01*
X132694419Y-89066715D01*
X132789657Y-89114334D01*
X132932514Y-89114334D01*
X133027752Y-89066715D01*
X133075371Y-89019096D01*
X133122990Y-88923858D01*
X133122990Y-88542905D01*
X132694419Y-89495286D02*
X132646800Y-89542905D01*
X132599181Y-89638143D01*
X132599181Y-89876239D01*
X132646800Y-89971477D01*
X132694419Y-90019096D01*
X132789657Y-90066715D01*
X132884895Y-90066715D01*
X133027752Y-90019096D01*
X133599181Y-89447667D01*
X133599181Y-90066715D01*
X149804381Y-94295934D02*
X149328190Y-93962600D01*
X149804381Y-93724505D02*
X148804381Y-93724505D01*
X148804381Y-94105458D01*
X148852000Y-94200696D01*
X148899619Y-94248315D01*
X148994857Y-94295934D01*
X149137714Y-94295934D01*
X149232952Y-94248315D01*
X149280571Y-94200696D01*
X149328190Y-94105458D01*
X149328190Y-93724505D01*
X148804381Y-94629267D02*
X148804381Y-95248315D01*
X149185333Y-94914981D01*
X149185333Y-95057839D01*
X149232952Y-95153077D01*
X149280571Y-95200696D01*
X149375810Y-95248315D01*
X149613905Y-95248315D01*
X149709143Y-95200696D01*
X149756762Y-95153077D01*
X149804381Y-95057839D01*
X149804381Y-94772124D01*
X149756762Y-94676886D01*
X149709143Y-94629267D01*
X138653781Y-93940334D02*
X138177590Y-93607000D01*
X138653781Y-93368905D02*
X137653781Y-93368905D01*
X137653781Y-93749858D01*
X137701400Y-93845096D01*
X137749019Y-93892715D01*
X137844257Y-93940334D01*
X137987114Y-93940334D01*
X138082352Y-93892715D01*
X138129971Y-93845096D01*
X138177590Y-93749858D01*
X138177590Y-93368905D01*
X137987114Y-94797477D02*
X138653781Y-94797477D01*
X137606162Y-94559381D02*
X138320448Y-94321286D01*
X138320448Y-94940334D01*
%LPC*%
D12*
X132080000Y-104140000D03*
X151130000Y-104140000D03*
X132080000Y-86360000D03*
D13*
X140525500Y-105092500D03*
D14*
X143065500Y-105092500D03*
D15*
X130619500Y-91313000D03*
D16*
X130619500Y-93853000D03*
X130619500Y-96393000D03*
X130619500Y-98933000D03*
D17*
X140017500Y-85471000D03*
D18*
X142557500Y-85471000D03*
X145097500Y-85471000D03*
D12*
X151130000Y-86360000D03*
D19*
X144811500Y-91503500D03*
X140811500Y-91503500D03*
D20*
X135890000Y-95663000D03*
X135890000Y-99663000D03*
D21*
X141334500Y-88709500D03*
X144034500Y-88709500D03*
D22*
X134937500Y-92028000D03*
X134937500Y-89328000D03*
X150939500Y-97044500D03*
X150939500Y-94344500D03*
X137922000Y-92028000D03*
X137922000Y-89328000D03*
M02*
