G04 #@! TF.FileFunction,Soldermask,Bot*
%FSLAX46Y46*%
G04 Gerber Fmt 4.6, Leading zero omitted, Abs format (unit mm)*
G04 Created by KiCad (PCBNEW 4.0.2-stable) date Wednesday, January 18, 2017 'PMt' 01:23:50 PM*
%MOMM*%
G01*
G04 APERTURE LIST*
%ADD10C,0.100000*%
G04 APERTURE END LIST*
D10*
G36*
X143279963Y-104042321D02*
X143279968Y-104042323D01*
X143280010Y-104042327D01*
X143478902Y-104103894D01*
X143662047Y-104202921D01*
X143822470Y-104335634D01*
X143954060Y-104496980D01*
X144051806Y-104680812D01*
X144111983Y-104880129D01*
X144132300Y-105087338D01*
X144132300Y-105097696D01*
X144132211Y-105110501D01*
X144132210Y-105110507D01*
X144132196Y-105112557D01*
X144108988Y-105319462D01*
X144046034Y-105517919D01*
X143945731Y-105700369D01*
X143811901Y-105859861D01*
X143649640Y-105990322D01*
X143465130Y-106086782D01*
X143265398Y-106145566D01*
X143265362Y-106145569D01*
X143265353Y-106145572D01*
X143058055Y-106164438D01*
X142851037Y-106142679D01*
X142851032Y-106142677D01*
X142850990Y-106142673D01*
X142652098Y-106081106D01*
X142468953Y-105982079D01*
X142308530Y-105849366D01*
X142176940Y-105688020D01*
X142079194Y-105504188D01*
X142019017Y-105304871D01*
X141998700Y-105097662D01*
X141998700Y-105087304D01*
X141998789Y-105074499D01*
X141998790Y-105074493D01*
X141998804Y-105072443D01*
X142022012Y-104865538D01*
X142084966Y-104667081D01*
X142185269Y-104484631D01*
X142319099Y-104325139D01*
X142481360Y-104194678D01*
X142665870Y-104098218D01*
X142865602Y-104039434D01*
X142865638Y-104039431D01*
X142865647Y-104039428D01*
X143072945Y-104020562D01*
X143279963Y-104042321D01*
X143279963Y-104042321D01*
G37*
G36*
X141592300Y-106159300D02*
X139458700Y-106159300D01*
X139458700Y-104025700D01*
X141592300Y-104025700D01*
X141592300Y-106159300D01*
X141592300Y-106159300D01*
G37*
G36*
X132200877Y-102989964D02*
X132421944Y-103035344D01*
X132630000Y-103122802D01*
X132817100Y-103249003D01*
X132976124Y-103409140D01*
X133101013Y-103597115D01*
X133187015Y-103805770D01*
X133230781Y-104026809D01*
X133230781Y-104026814D01*
X133230849Y-104027158D01*
X133227250Y-104284931D01*
X133227173Y-104285269D01*
X133227173Y-104285278D01*
X133177251Y-104505010D01*
X133085459Y-104711178D01*
X132955366Y-104895596D01*
X132791932Y-105051232D01*
X132601380Y-105172161D01*
X132390971Y-105253773D01*
X132168718Y-105292962D01*
X131943080Y-105288235D01*
X131722662Y-105239774D01*
X131515851Y-105149420D01*
X131330535Y-105020622D01*
X131173762Y-104858279D01*
X131051506Y-104668574D01*
X130968424Y-104458734D01*
X130927686Y-104236765D01*
X130930836Y-104011102D01*
X130977759Y-103790347D01*
X131066664Y-103582915D01*
X131194169Y-103396699D01*
X131355413Y-103238797D01*
X131544259Y-103115220D01*
X131753510Y-103030677D01*
X131975193Y-102988389D01*
X132200877Y-102989964D01*
X132200877Y-102989964D01*
G37*
G36*
X151250877Y-102989964D02*
X151471944Y-103035344D01*
X151680000Y-103122802D01*
X151867100Y-103249003D01*
X152026124Y-103409140D01*
X152151013Y-103597115D01*
X152237015Y-103805770D01*
X152280781Y-104026809D01*
X152280781Y-104026814D01*
X152280849Y-104027158D01*
X152277250Y-104284931D01*
X152277173Y-104285269D01*
X152277173Y-104285278D01*
X152227251Y-104505010D01*
X152135459Y-104711178D01*
X152005366Y-104895596D01*
X151841932Y-105051232D01*
X151651380Y-105172161D01*
X151440971Y-105253773D01*
X151218718Y-105292962D01*
X150993080Y-105288235D01*
X150772662Y-105239774D01*
X150565851Y-105149420D01*
X150380535Y-105020622D01*
X150223762Y-104858279D01*
X150101506Y-104668574D01*
X150018424Y-104458734D01*
X149977686Y-104236765D01*
X149980836Y-104011102D01*
X150027759Y-103790347D01*
X150116664Y-103582915D01*
X150244169Y-103396699D01*
X150405413Y-103238797D01*
X150594259Y-103115220D01*
X150803510Y-103030677D01*
X151025193Y-102988389D01*
X151250877Y-102989964D01*
X151250877Y-102989964D01*
G37*
G36*
X136740800Y-100713800D02*
X135039200Y-100713800D01*
X135039200Y-98612200D01*
X136740800Y-98612200D01*
X136740800Y-100713800D01*
X136740800Y-100713800D01*
G37*
G36*
X130787773Y-98018674D02*
X130787779Y-98018675D01*
X130789829Y-98018689D01*
X130967176Y-98038582D01*
X131137282Y-98092543D01*
X131293668Y-98178516D01*
X131430376Y-98293228D01*
X131542199Y-98432308D01*
X131624879Y-98590460D01*
X131675265Y-98761659D01*
X131675268Y-98761690D01*
X131675272Y-98761704D01*
X131691441Y-98939380D01*
X131672792Y-99116818D01*
X131672791Y-99116823D01*
X131672786Y-99116866D01*
X131620014Y-99287344D01*
X131535134Y-99444326D01*
X131421380Y-99581831D01*
X131283083Y-99694623D01*
X131125513Y-99778405D01*
X130954670Y-99829985D01*
X130777062Y-99847400D01*
X130461903Y-99847400D01*
X130451227Y-99847326D01*
X130451221Y-99847325D01*
X130449171Y-99847311D01*
X130271824Y-99827418D01*
X130101718Y-99773457D01*
X129945332Y-99687484D01*
X129808624Y-99572772D01*
X129696801Y-99433692D01*
X129614121Y-99275540D01*
X129563735Y-99104341D01*
X129563732Y-99104310D01*
X129563728Y-99104296D01*
X129547559Y-98926620D01*
X129566208Y-98749182D01*
X129566209Y-98749177D01*
X129566214Y-98749134D01*
X129618986Y-98578656D01*
X129703866Y-98421674D01*
X129817620Y-98284169D01*
X129955917Y-98171377D01*
X130113487Y-98087595D01*
X130284330Y-98036015D01*
X130461938Y-98018600D01*
X130777097Y-98018600D01*
X130787773Y-98018674D01*
X130787773Y-98018674D01*
G37*
G36*
X151640300Y-97845300D02*
X150238700Y-97845300D01*
X150238700Y-96243700D01*
X151640300Y-96243700D01*
X151640300Y-97845300D01*
X151640300Y-97845300D01*
G37*
G36*
X130787773Y-95478674D02*
X130787779Y-95478675D01*
X130789829Y-95478689D01*
X130967176Y-95498582D01*
X131137282Y-95552543D01*
X131293668Y-95638516D01*
X131430376Y-95753228D01*
X131542199Y-95892308D01*
X131624879Y-96050460D01*
X131675265Y-96221659D01*
X131675268Y-96221690D01*
X131675272Y-96221704D01*
X131691441Y-96399380D01*
X131672792Y-96576818D01*
X131672791Y-96576823D01*
X131672786Y-96576866D01*
X131620014Y-96747344D01*
X131535134Y-96904326D01*
X131421380Y-97041831D01*
X131283083Y-97154623D01*
X131125513Y-97238405D01*
X130954670Y-97289985D01*
X130777062Y-97307400D01*
X130461903Y-97307400D01*
X130451227Y-97307326D01*
X130451221Y-97307325D01*
X130449171Y-97307311D01*
X130271824Y-97287418D01*
X130101718Y-97233457D01*
X129945332Y-97147484D01*
X129808624Y-97032772D01*
X129696801Y-96893692D01*
X129614121Y-96735540D01*
X129563735Y-96564341D01*
X129563732Y-96564310D01*
X129563728Y-96564296D01*
X129547559Y-96386620D01*
X129566208Y-96209182D01*
X129566209Y-96209177D01*
X129566214Y-96209134D01*
X129618986Y-96038656D01*
X129703866Y-95881674D01*
X129817620Y-95744169D01*
X129955917Y-95631377D01*
X130113487Y-95547595D01*
X130284330Y-95496015D01*
X130461938Y-95478600D01*
X130777097Y-95478600D01*
X130787773Y-95478674D01*
X130787773Y-95478674D01*
G37*
G36*
X136740800Y-96713800D02*
X135039200Y-96713800D01*
X135039200Y-94612200D01*
X136740800Y-94612200D01*
X136740800Y-96713800D01*
X136740800Y-96713800D01*
G37*
G36*
X151640300Y-95145300D02*
X150238700Y-95145300D01*
X150238700Y-93543700D01*
X151640300Y-93543700D01*
X151640300Y-95145300D01*
X151640300Y-95145300D01*
G37*
G36*
X130787773Y-92938674D02*
X130787779Y-92938675D01*
X130789829Y-92938689D01*
X130967176Y-92958582D01*
X131137282Y-93012543D01*
X131293668Y-93098516D01*
X131430376Y-93213228D01*
X131542199Y-93352308D01*
X131624879Y-93510460D01*
X131675265Y-93681659D01*
X131675268Y-93681690D01*
X131675272Y-93681704D01*
X131691441Y-93859380D01*
X131672792Y-94036818D01*
X131672791Y-94036823D01*
X131672786Y-94036866D01*
X131620014Y-94207344D01*
X131535134Y-94364326D01*
X131421380Y-94501831D01*
X131283083Y-94614623D01*
X131125513Y-94698405D01*
X130954670Y-94749985D01*
X130777062Y-94767400D01*
X130461903Y-94767400D01*
X130451227Y-94767326D01*
X130451221Y-94767325D01*
X130449171Y-94767311D01*
X130271824Y-94747418D01*
X130101718Y-94693457D01*
X129945332Y-94607484D01*
X129808624Y-94492772D01*
X129696801Y-94353692D01*
X129614121Y-94195540D01*
X129563735Y-94024341D01*
X129563732Y-94024310D01*
X129563728Y-94024296D01*
X129547559Y-93846620D01*
X129566208Y-93669182D01*
X129566209Y-93669177D01*
X129566214Y-93669134D01*
X129618986Y-93498656D01*
X129703866Y-93341674D01*
X129817620Y-93204169D01*
X129955917Y-93091377D01*
X130113487Y-93007595D01*
X130284330Y-92956015D01*
X130461938Y-92938600D01*
X130777097Y-92938600D01*
X130787773Y-92938674D01*
X130787773Y-92938674D01*
G37*
G36*
X135638300Y-92828800D02*
X134236700Y-92828800D01*
X134236700Y-91227200D01*
X135638300Y-91227200D01*
X135638300Y-92828800D01*
X135638300Y-92828800D01*
G37*
G36*
X138622800Y-92828800D02*
X137221200Y-92828800D01*
X137221200Y-91227200D01*
X138622800Y-91227200D01*
X138622800Y-92828800D01*
X138622800Y-92828800D01*
G37*
G36*
X145862300Y-92354300D02*
X143760700Y-92354300D01*
X143760700Y-90652700D01*
X145862300Y-90652700D01*
X145862300Y-92354300D01*
X145862300Y-92354300D01*
G37*
G36*
X141862300Y-92354300D02*
X139760700Y-92354300D01*
X139760700Y-90652700D01*
X141862300Y-90652700D01*
X141862300Y-92354300D01*
X141862300Y-92354300D01*
G37*
G36*
X131686300Y-92227400D02*
X129552700Y-92227400D01*
X129552700Y-90398600D01*
X131686300Y-90398600D01*
X131686300Y-92227400D01*
X131686300Y-92227400D01*
G37*
G36*
X135638300Y-90128800D02*
X134236700Y-90128800D01*
X134236700Y-88527200D01*
X135638300Y-88527200D01*
X135638300Y-90128800D01*
X135638300Y-90128800D01*
G37*
G36*
X138622800Y-90128800D02*
X137221200Y-90128800D01*
X137221200Y-88527200D01*
X138622800Y-88527200D01*
X138622800Y-90128800D01*
X138622800Y-90128800D01*
G37*
G36*
X142135300Y-89410300D02*
X140533700Y-89410300D01*
X140533700Y-88008700D01*
X142135300Y-88008700D01*
X142135300Y-89410300D01*
X142135300Y-89410300D01*
G37*
G36*
X144835300Y-89410300D02*
X143233700Y-89410300D01*
X143233700Y-88008700D01*
X144835300Y-88008700D01*
X144835300Y-89410300D01*
X144835300Y-89410300D01*
G37*
G36*
X151250877Y-85209964D02*
X151471944Y-85255344D01*
X151680000Y-85342802D01*
X151867100Y-85469003D01*
X152026124Y-85629140D01*
X152151013Y-85817115D01*
X152237015Y-86025770D01*
X152280781Y-86246809D01*
X152280781Y-86246814D01*
X152280849Y-86247158D01*
X152277250Y-86504931D01*
X152277173Y-86505269D01*
X152277173Y-86505278D01*
X152227251Y-86725010D01*
X152135459Y-86931178D01*
X152005366Y-87115596D01*
X151841932Y-87271232D01*
X151651380Y-87392161D01*
X151440971Y-87473773D01*
X151218718Y-87512962D01*
X150993080Y-87508235D01*
X150772662Y-87459774D01*
X150565851Y-87369420D01*
X150380535Y-87240622D01*
X150223762Y-87078279D01*
X150101506Y-86888574D01*
X150018424Y-86678734D01*
X149977686Y-86456765D01*
X149980836Y-86231102D01*
X150027759Y-86010347D01*
X150116664Y-85802915D01*
X150244169Y-85616699D01*
X150405413Y-85458797D01*
X150594259Y-85335220D01*
X150803510Y-85250677D01*
X151025193Y-85208389D01*
X151250877Y-85209964D01*
X151250877Y-85209964D01*
G37*
G36*
X132200877Y-85209964D02*
X132421944Y-85255344D01*
X132630000Y-85342802D01*
X132817100Y-85469003D01*
X132976124Y-85629140D01*
X133101013Y-85817115D01*
X133187015Y-86025770D01*
X133230781Y-86246809D01*
X133230781Y-86246814D01*
X133230849Y-86247158D01*
X133227250Y-86504931D01*
X133227173Y-86505269D01*
X133227173Y-86505278D01*
X133177251Y-86725010D01*
X133085459Y-86931178D01*
X132955366Y-87115596D01*
X132791932Y-87271232D01*
X132601380Y-87392161D01*
X132390971Y-87473773D01*
X132168718Y-87512962D01*
X131943080Y-87508235D01*
X131722662Y-87459774D01*
X131515851Y-87369420D01*
X131330535Y-87240622D01*
X131173762Y-87078279D01*
X131051506Y-86888574D01*
X130968424Y-86678734D01*
X130927686Y-86456765D01*
X130930836Y-86231102D01*
X130977759Y-86010347D01*
X131066664Y-85802915D01*
X131194169Y-85616699D01*
X131355413Y-85458797D01*
X131544259Y-85335220D01*
X131753510Y-85250677D01*
X131975193Y-85208389D01*
X132200877Y-85209964D01*
X132200877Y-85209964D01*
G37*
G36*
X145281318Y-84417708D02*
X145281323Y-84417709D01*
X145281366Y-84417714D01*
X145451844Y-84470486D01*
X145608826Y-84555366D01*
X145746331Y-84669120D01*
X145859123Y-84807417D01*
X145942905Y-84964987D01*
X145994485Y-85135830D01*
X146011900Y-85313438D01*
X146011900Y-85628597D01*
X146011826Y-85639273D01*
X146011825Y-85639279D01*
X146011811Y-85641329D01*
X145991918Y-85818676D01*
X145937957Y-85988782D01*
X145851984Y-86145168D01*
X145737272Y-86281876D01*
X145598192Y-86393699D01*
X145440040Y-86476379D01*
X145268841Y-86526765D01*
X145268810Y-86526768D01*
X145268796Y-86526772D01*
X145091120Y-86542941D01*
X144913682Y-86524292D01*
X144913677Y-86524291D01*
X144913634Y-86524286D01*
X144743156Y-86471514D01*
X144586174Y-86386634D01*
X144448669Y-86272880D01*
X144335877Y-86134583D01*
X144252095Y-85977013D01*
X144200515Y-85806170D01*
X144183100Y-85628562D01*
X144183100Y-85313403D01*
X144183174Y-85302727D01*
X144183175Y-85302721D01*
X144183189Y-85300671D01*
X144203082Y-85123324D01*
X144257043Y-84953218D01*
X144343016Y-84796832D01*
X144457728Y-84660124D01*
X144596808Y-84548301D01*
X144754960Y-84465621D01*
X144926159Y-84415235D01*
X144926190Y-84415232D01*
X144926204Y-84415228D01*
X145103880Y-84399059D01*
X145281318Y-84417708D01*
X145281318Y-84417708D01*
G37*
G36*
X142741318Y-84417708D02*
X142741323Y-84417709D01*
X142741366Y-84417714D01*
X142911844Y-84470486D01*
X143068826Y-84555366D01*
X143206331Y-84669120D01*
X143319123Y-84807417D01*
X143402905Y-84964987D01*
X143454485Y-85135830D01*
X143471900Y-85313438D01*
X143471900Y-85628597D01*
X143471826Y-85639273D01*
X143471825Y-85639279D01*
X143471811Y-85641329D01*
X143451918Y-85818676D01*
X143397957Y-85988782D01*
X143311984Y-86145168D01*
X143197272Y-86281876D01*
X143058192Y-86393699D01*
X142900040Y-86476379D01*
X142728841Y-86526765D01*
X142728810Y-86526768D01*
X142728796Y-86526772D01*
X142551120Y-86542941D01*
X142373682Y-86524292D01*
X142373677Y-86524291D01*
X142373634Y-86524286D01*
X142203156Y-86471514D01*
X142046174Y-86386634D01*
X141908669Y-86272880D01*
X141795877Y-86134583D01*
X141712095Y-85977013D01*
X141660515Y-85806170D01*
X141643100Y-85628562D01*
X141643100Y-85313403D01*
X141643174Y-85302727D01*
X141643175Y-85302721D01*
X141643189Y-85300671D01*
X141663082Y-85123324D01*
X141717043Y-84953218D01*
X141803016Y-84796832D01*
X141917728Y-84660124D01*
X142056808Y-84548301D01*
X142214960Y-84465621D01*
X142386159Y-84415235D01*
X142386190Y-84415232D01*
X142386204Y-84415228D01*
X142563880Y-84399059D01*
X142741318Y-84417708D01*
X142741318Y-84417708D01*
G37*
G36*
X140931900Y-86537800D02*
X139103100Y-86537800D01*
X139103100Y-84404200D01*
X140931900Y-84404200D01*
X140931900Y-86537800D01*
X140931900Y-86537800D01*
G37*
M02*
