G04 #@! TF.FileFunction,Legend,Top*
%FSLAX46Y46*%
G04 Gerber Fmt 4.6, Leading zero omitted, Abs format (unit mm)*
G04 Created by KiCad (PCBNEW 4.0.2-stable) date Wednesday, January 18, 2017 'PMt' 01:23:50 PM*
%MOMM*%
G01*
G04 APERTURE LIST*
%ADD10C,0.100000*%
%ADD11C,0.150000*%
%ADD12C,2.301600*%
%ADD13R,1.101600X1.351600*%
%ADD14R,1.351600X1.101600*%
%ADD15R,2.133600X2.133600*%
%ADD16O,2.133600X2.133600*%
%ADD17R,1.300480X1.300480*%
%ADD18R,2.133600X1.828800*%
%ADD19O,2.133600X1.828800*%
%ADD20R,1.828800X2.133600*%
%ADD21O,1.828800X2.133600*%
%ADD22R,1.401600X0.801600*%
%ADD23R,1.371600X0.508000*%
G04 APERTURE END LIST*
D10*
D11*
X152258781Y-95265762D02*
X153258781Y-94932429D01*
X152258781Y-94599095D01*
X153258781Y-94265762D02*
X152258781Y-94265762D01*
X152973067Y-93932428D01*
X152258781Y-93599095D01*
X153258781Y-93599095D01*
X144740381Y-90106333D02*
X145740381Y-89773000D01*
X144740381Y-89439666D01*
X145645143Y-88534904D02*
X145692762Y-88582523D01*
X145740381Y-88725380D01*
X145740381Y-88820618D01*
X145692762Y-88963476D01*
X145597524Y-89058714D01*
X145502286Y-89106333D01*
X145311810Y-89153952D01*
X145168952Y-89153952D01*
X144978476Y-89106333D01*
X144883238Y-89058714D01*
X144788000Y-88963476D01*
X144740381Y-88820618D01*
X144740381Y-88725380D01*
X144788000Y-88582523D01*
X144835619Y-88534904D01*
X145645143Y-87534904D02*
X145692762Y-87582523D01*
X145740381Y-87725380D01*
X145740381Y-87820618D01*
X145692762Y-87963476D01*
X145597524Y-88058714D01*
X145502286Y-88106333D01*
X145311810Y-88153952D01*
X145168952Y-88153952D01*
X144978476Y-88106333D01*
X144883238Y-88058714D01*
X144788000Y-87963476D01*
X144740381Y-87820618D01*
X144740381Y-87725380D01*
X144788000Y-87582523D01*
X144835619Y-87534904D01*
X133751581Y-91703400D02*
X132751581Y-91703400D01*
X133751581Y-91227210D02*
X132751581Y-91227210D01*
X133751581Y-90655781D01*
X132751581Y-90655781D01*
X133751581Y-89655781D02*
X133751581Y-90227210D01*
X133751581Y-89941496D02*
X132751581Y-89941496D01*
X132894438Y-90036734D01*
X132989676Y-90131972D01*
X133037295Y-90227210D01*
X140355581Y-91855800D02*
X139355581Y-91855800D01*
X140355581Y-91379610D02*
X139355581Y-91379610D01*
X140355581Y-90808181D01*
X139355581Y-90808181D01*
X139450819Y-90379610D02*
X139403200Y-90331991D01*
X139355581Y-90236753D01*
X139355581Y-89998657D01*
X139403200Y-89903419D01*
X139450819Y-89855800D01*
X139546057Y-89808181D01*
X139641295Y-89808181D01*
X139784152Y-89855800D01*
X140355581Y-90427229D01*
X140355581Y-89808181D01*
X142311500Y-92353500D02*
X143311500Y-92353500D01*
X143311500Y-90653500D02*
X142311500Y-90653500D01*
X136740000Y-98163000D02*
X136740000Y-97163000D01*
X135040000Y-97163000D02*
X135040000Y-98163000D01*
X141795500Y-103822500D02*
X144335500Y-103822500D01*
X138975500Y-103542500D02*
X140525500Y-103542500D01*
X141795500Y-103822500D02*
X141795500Y-106362500D01*
X140525500Y-106642500D02*
X138975500Y-106642500D01*
X138975500Y-106642500D02*
X138975500Y-103542500D01*
X141795500Y-106362500D02*
X144335500Y-106362500D01*
X144335500Y-106362500D02*
X144335500Y-103822500D01*
X141084500Y-89459500D02*
X143784500Y-89459500D01*
X141084500Y-87959500D02*
X143784500Y-87959500D01*
X142584500Y-88859500D02*
X142584500Y-88609500D01*
X142584500Y-88609500D02*
X142434500Y-88759500D01*
X142334500Y-88359500D02*
X142334500Y-89059500D01*
X142684500Y-88709500D02*
X143034500Y-88709500D01*
X142334500Y-88709500D02*
X142684500Y-88359500D01*
X142684500Y-88359500D02*
X142684500Y-89059500D01*
X142684500Y-89059500D02*
X142334500Y-88709500D01*
X135687500Y-92278000D02*
X135687500Y-89578000D01*
X134187500Y-92278000D02*
X134187500Y-89578000D01*
X135087500Y-90778000D02*
X134837500Y-90778000D01*
X134837500Y-90778000D02*
X134987500Y-90928000D01*
X134587500Y-91028000D02*
X135287500Y-91028000D01*
X134937500Y-90678000D02*
X134937500Y-90328000D01*
X134937500Y-91028000D02*
X134587500Y-90678000D01*
X134587500Y-90678000D02*
X135287500Y-90678000D01*
X135287500Y-90678000D02*
X134937500Y-91028000D01*
X151689500Y-97294500D02*
X151689500Y-94594500D01*
X150189500Y-97294500D02*
X150189500Y-94594500D01*
X151089500Y-95794500D02*
X150839500Y-95794500D01*
X150839500Y-95794500D02*
X150989500Y-95944500D01*
X150589500Y-96044500D02*
X151289500Y-96044500D01*
X150939500Y-95694500D02*
X150939500Y-95344500D01*
X150939500Y-96044500D02*
X150589500Y-95694500D01*
X150589500Y-95694500D02*
X151289500Y-95694500D01*
X151289500Y-95694500D02*
X150939500Y-96044500D01*
X138735500Y-92278000D02*
X138735500Y-89578000D01*
X137235500Y-92278000D02*
X137235500Y-89578000D01*
X138135500Y-90778000D02*
X137885500Y-90778000D01*
X137885500Y-90778000D02*
X138035500Y-90928000D01*
X137635500Y-91028000D02*
X138335500Y-91028000D01*
X137985500Y-90678000D02*
X137985500Y-90328000D01*
X137985500Y-91028000D02*
X137635500Y-90678000D01*
X137635500Y-90678000D02*
X138335500Y-90678000D01*
X138335500Y-90678000D02*
X137985500Y-91028000D01*
X129349500Y-92583000D02*
X129349500Y-100203000D01*
X131889500Y-92583000D02*
X131889500Y-100203000D01*
X132169500Y-89763000D02*
X132169500Y-91313000D01*
X129349500Y-100203000D02*
X131889500Y-100203000D01*
X131889500Y-92583000D02*
X129349500Y-92583000D01*
X129069500Y-91313000D02*
X129069500Y-89763000D01*
X129069500Y-89763000D02*
X132169500Y-89763000D01*
X141287500Y-86741000D02*
X146367500Y-86741000D01*
X146367500Y-86741000D02*
X146367500Y-84201000D01*
X146367500Y-84201000D02*
X141287500Y-84201000D01*
X138467500Y-83921000D02*
X140017500Y-83921000D01*
X141287500Y-84201000D02*
X141287500Y-86741000D01*
X140017500Y-87021000D02*
X138467500Y-87021000D01*
X138467500Y-87021000D02*
X138467500Y-83921000D01*
X146953000Y-91024000D02*
X146953000Y-89824000D01*
X148703000Y-89824000D02*
X148703000Y-91024000D01*
X143573500Y-101282500D02*
X143573500Y-93662500D01*
X140017500Y-93662500D02*
X140017500Y-101282500D01*
X143573500Y-101282500D02*
X140017500Y-101282500D01*
X140017500Y-93662500D02*
X143573500Y-93662500D01*
X140884710Y-94170500D02*
G75*
G03X140884710Y-94170500I-359210J0D01*
G01*
X142430500Y-93662500D02*
X142430500Y-94424500D01*
X142430500Y-94424500D02*
X141160500Y-94424500D01*
X141160500Y-94424500D02*
X141160500Y-93662500D01*
X145629334Y-91733643D02*
X145581715Y-91781262D01*
X145438858Y-91828881D01*
X145343620Y-91828881D01*
X145200762Y-91781262D01*
X145105524Y-91686024D01*
X145057905Y-91590786D01*
X145010286Y-91400310D01*
X145010286Y-91257452D01*
X145057905Y-91066976D01*
X145105524Y-90971738D01*
X145200762Y-90876500D01*
X145343620Y-90828881D01*
X145438858Y-90828881D01*
X145581715Y-90876500D01*
X145629334Y-90924119D01*
X146581715Y-91828881D02*
X146010286Y-91828881D01*
X146296000Y-91828881D02*
X146296000Y-90828881D01*
X146200762Y-90971738D01*
X146105524Y-91066976D01*
X146010286Y-91114595D01*
X135723334Y-100941143D02*
X135675715Y-100988762D01*
X135532858Y-101036381D01*
X135437620Y-101036381D01*
X135294762Y-100988762D01*
X135199524Y-100893524D01*
X135151905Y-100798286D01*
X135104286Y-100607810D01*
X135104286Y-100464952D01*
X135151905Y-100274476D01*
X135199524Y-100179238D01*
X135294762Y-100084000D01*
X135437620Y-100036381D01*
X135532858Y-100036381D01*
X135675715Y-100084000D01*
X135723334Y-100131619D01*
X136056667Y-100036381D02*
X136675715Y-100036381D01*
X136342381Y-100417333D01*
X136485239Y-100417333D01*
X136580477Y-100464952D01*
X136628096Y-100512571D01*
X136675715Y-100607810D01*
X136675715Y-100845905D01*
X136628096Y-100941143D01*
X136580477Y-100988762D01*
X136485239Y-101036381D01*
X136199524Y-101036381D01*
X136104286Y-100988762D01*
X136056667Y-100941143D01*
X150388581Y-90489066D02*
X149912390Y-90822400D01*
X150388581Y-91060495D02*
X149388581Y-91060495D01*
X149388581Y-90679542D01*
X149436200Y-90584304D01*
X149483819Y-90536685D01*
X149579057Y-90489066D01*
X149721914Y-90489066D01*
X149817152Y-90536685D01*
X149864771Y-90584304D01*
X149912390Y-90679542D01*
X149912390Y-91060495D01*
X149388581Y-89584304D02*
X149388581Y-90060495D01*
X149864771Y-90108114D01*
X149817152Y-90060495D01*
X149769533Y-89965257D01*
X149769533Y-89727161D01*
X149817152Y-89631923D01*
X149864771Y-89584304D01*
X149960010Y-89536685D01*
X150198105Y-89536685D01*
X150293343Y-89584304D01*
X150340962Y-89631923D01*
X150388581Y-89727161D01*
X150388581Y-89965257D01*
X150340962Y-90060495D01*
X150293343Y-90108114D01*
X141882881Y-98234405D02*
X142692405Y-98234405D01*
X142787643Y-98186786D01*
X142835262Y-98139167D01*
X142882881Y-98043929D01*
X142882881Y-97853452D01*
X142835262Y-97758214D01*
X142787643Y-97710595D01*
X142692405Y-97662976D01*
X141882881Y-97662976D01*
X142882881Y-96662976D02*
X142882881Y-97234405D01*
X142882881Y-96948691D02*
X141882881Y-96948691D01*
X142025738Y-97043929D01*
X142120976Y-97139167D01*
X142168595Y-97234405D01*
%LPC*%
D12*
X132080000Y-104140000D03*
X151130000Y-104140000D03*
X132080000Y-86360000D03*
D13*
X143811500Y-91503500D03*
X141811500Y-91503500D03*
D14*
X135890000Y-96663000D03*
X135890000Y-98663000D03*
D15*
X140525500Y-105092500D03*
D16*
X143065500Y-105092500D03*
D17*
X143733520Y-88709500D03*
X141635480Y-88709500D03*
X134937500Y-89628980D03*
X134937500Y-91727020D03*
X150939500Y-94645480D03*
X150939500Y-96743520D03*
X137985500Y-89628980D03*
X137985500Y-91727020D03*
D18*
X130619500Y-91313000D03*
D19*
X130619500Y-93853000D03*
X130619500Y-96393000D03*
X130619500Y-98933000D03*
D20*
X140017500Y-85471000D03*
D21*
X142557500Y-85471000D03*
X145097500Y-85471000D03*
D22*
X147828000Y-89474000D03*
X147828000Y-91374000D03*
D12*
X151130000Y-86360000D03*
D23*
X139128500Y-94551500D03*
X139128500Y-95186500D03*
X139128500Y-95846900D03*
X139128500Y-96507300D03*
X139128500Y-97142300D03*
X139128500Y-97802700D03*
X139128500Y-98463100D03*
X139128500Y-99098100D03*
X139128500Y-99758500D03*
X139128500Y-100393500D03*
X144462500Y-100393500D03*
X144462500Y-99758500D03*
X144462500Y-99098100D03*
X144462500Y-98463100D03*
X144462500Y-97802700D03*
X144462500Y-97142300D03*
X144462500Y-96507300D03*
X144462500Y-95846900D03*
X144462500Y-95186500D03*
X144462500Y-94551500D03*
M02*
