G04 #@! TF.FileFunction,Copper,L2,Bot,Signal*
%FSLAX46Y46*%
G04 Gerber Fmt 4.6, Leading zero omitted, Abs format (unit mm)*
G04 Created by KiCad (PCBNEW 4.0.2-stable) date Wednesday, January 18, 2017 'PMt' 01:23:50 PM*
%MOMM*%
G01*
G04 APERTURE LIST*
%ADD10C,0.100000*%
%ADD11C,0.685800*%
%ADD12R,2.032000X2.032000*%
%ADD13O,2.032000X2.032000*%
%ADD14R,2.032000X1.727200*%
%ADD15O,2.032000X1.727200*%
%ADD16R,1.727200X2.032000*%
%ADD17O,1.727200X2.032000*%
%ADD18R,2.000000X1.600000*%
%ADD19R,1.600000X2.000000*%
%ADD20R,1.500000X1.300000*%
%ADD21R,1.300000X1.500000*%
%ADD22C,0.609600*%
%ADD23C,0.304800*%
%ADD24C,0.152400*%
G04 APERTURE END LIST*
D10*
D11*
X147015200Y-93446600D03*
X149123400Y-92811600D03*
X146202400Y-88036400D03*
X137515600Y-84404200D03*
X135128000Y-84404200D03*
X136321800Y-84404200D03*
X136423400Y-85674200D03*
X135229600Y-85674200D03*
X137617200Y-85674200D03*
X137668000Y-86995000D03*
X135280400Y-86995000D03*
X136474200Y-86995000D03*
X136398000Y-93649800D03*
X140919200Y-95351600D03*
X136448800Y-105029000D03*
X135178800Y-105029000D03*
X137693400Y-105029000D03*
X129768600Y-101346000D03*
X133553200Y-99187000D03*
X133553200Y-101041200D03*
X137591800Y-97815400D03*
X137668000Y-99288600D03*
X137668000Y-100660200D03*
X147904200Y-85801200D03*
X147955000Y-84404200D03*
X152628600Y-89357200D03*
X152501600Y-90500200D03*
X152628600Y-91846400D03*
X133299200Y-94234000D03*
X135255000Y-102235000D03*
X137769600Y-103581200D03*
X135255000Y-103581200D03*
X136525000Y-103581200D03*
X141605000Y-98679000D03*
X138049000Y-102209600D03*
X136779000Y-102209600D03*
X139293600Y-102209600D03*
X141757400Y-102920800D03*
X141630400Y-101371400D03*
X141630400Y-100076000D03*
X148564600Y-102311200D03*
X147320000Y-106070400D03*
X146050000Y-106070400D03*
X147320000Y-104800400D03*
X146050000Y-104800400D03*
X146050000Y-102311200D03*
X147320000Y-102311200D03*
X146050000Y-103581200D03*
X147320000Y-103581200D03*
X152374600Y-100965000D03*
X152374600Y-99695000D03*
X151130000Y-100965000D03*
X149860000Y-100965000D03*
X148590000Y-100965000D03*
X147320000Y-100965000D03*
X146050000Y-100965000D03*
X151130000Y-99695000D03*
X149860000Y-99695000D03*
X148590000Y-99695000D03*
X147320000Y-99695000D03*
X146050000Y-99695000D03*
X148590000Y-98425000D03*
X147320000Y-98425000D03*
X146050000Y-98425000D03*
X148590000Y-97155000D03*
X147320000Y-97155000D03*
X148590000Y-95885000D03*
D12*
X140525500Y-105092500D03*
D13*
X143065500Y-105092500D03*
D14*
X130619500Y-91313000D03*
D15*
X130619500Y-93853000D03*
X130619500Y-96393000D03*
X130619500Y-98933000D03*
D16*
X140017500Y-85471000D03*
D17*
X142557500Y-85471000D03*
X145097500Y-85471000D03*
D18*
X144811500Y-91503500D03*
X140811500Y-91503500D03*
D19*
X135890000Y-95663000D03*
X135890000Y-99663000D03*
D20*
X141334500Y-88709500D03*
X144034500Y-88709500D03*
D21*
X134937500Y-92028000D03*
X134937500Y-89328000D03*
X150939500Y-97044500D03*
X150939500Y-94344500D03*
X137922000Y-92028000D03*
X137922000Y-89328000D03*
D11*
X145542000Y-89916000D03*
X134366000Y-96774000D03*
X139954000Y-88646000D03*
X135128000Y-93218000D03*
X152654000Y-97028000D03*
X139446000Y-92964000D03*
D22*
X144811500Y-91503500D02*
X144811500Y-90646500D01*
X144811500Y-90646500D02*
X145542000Y-89916000D01*
D23*
X134366000Y-96774000D02*
X135477000Y-95663000D01*
X135477000Y-95663000D02*
X135890000Y-95663000D01*
D22*
X139954000Y-88646000D02*
X140017500Y-88709500D01*
X140017500Y-88709500D02*
X141334500Y-88709500D01*
D24*
X135128000Y-93218000D02*
X134937500Y-93027500D01*
X134937500Y-93027500D02*
X134937500Y-92028000D01*
D23*
X152637500Y-97044500D02*
X150939500Y-97044500D01*
X152654000Y-97028000D02*
X152637500Y-97044500D01*
D24*
X139446000Y-92964000D02*
X138510000Y-92028000D01*
X138510000Y-92028000D02*
X137922000Y-92028000D01*
G36*
X153620400Y-106884400D02*
X128827600Y-106884400D01*
X128827600Y-106600964D01*
X145761903Y-106600964D01*
X145798107Y-106708789D01*
X146061582Y-106756589D01*
X146301893Y-106708789D01*
X146338097Y-106600964D01*
X147031903Y-106600964D01*
X147068107Y-106708789D01*
X147331582Y-106756589D01*
X147571893Y-106708789D01*
X147608097Y-106600964D01*
X147320000Y-106312867D01*
X147031903Y-106600964D01*
X146338097Y-106600964D01*
X146050000Y-106312867D01*
X145761903Y-106600964D01*
X128827600Y-106600964D01*
X128827600Y-105559564D01*
X134890703Y-105559564D01*
X134926907Y-105667389D01*
X135190382Y-105715189D01*
X135430693Y-105667389D01*
X135466897Y-105559564D01*
X136160703Y-105559564D01*
X136196907Y-105667389D01*
X136460382Y-105715189D01*
X136700693Y-105667389D01*
X136736897Y-105559564D01*
X137405303Y-105559564D01*
X137441507Y-105667389D01*
X137704982Y-105715189D01*
X137945293Y-105667389D01*
X137981497Y-105559564D01*
X137693400Y-105271467D01*
X137405303Y-105559564D01*
X136736897Y-105559564D01*
X136448800Y-105271467D01*
X136160703Y-105559564D01*
X135466897Y-105559564D01*
X135178800Y-105271467D01*
X134890703Y-105559564D01*
X128827600Y-105559564D01*
X128827600Y-104403115D01*
X130751170Y-104403115D01*
X130953011Y-104891608D01*
X131326426Y-105265676D01*
X131814566Y-105468369D01*
X132343115Y-105468830D01*
X132831608Y-105266989D01*
X133058410Y-105040582D01*
X134492611Y-105040582D01*
X134540411Y-105280893D01*
X134648236Y-105317097D01*
X134936333Y-105029000D01*
X135421267Y-105029000D01*
X135709364Y-105317097D01*
X135813800Y-105282031D01*
X135918236Y-105317097D01*
X136206333Y-105029000D01*
X136691267Y-105029000D01*
X136979364Y-105317097D01*
X137071100Y-105286295D01*
X137162836Y-105317097D01*
X137450933Y-105029000D01*
X137935867Y-105029000D01*
X138223964Y-105317097D01*
X138331789Y-105280893D01*
X138379589Y-105017418D01*
X138331789Y-104777107D01*
X138223964Y-104740903D01*
X137935867Y-105029000D01*
X137450933Y-105029000D01*
X137162836Y-104740903D01*
X137071100Y-104771705D01*
X136979364Y-104740903D01*
X136691267Y-105029000D01*
X136206333Y-105029000D01*
X135918236Y-104740903D01*
X135813800Y-104775969D01*
X135709364Y-104740903D01*
X135421267Y-105029000D01*
X134936333Y-105029000D01*
X134648236Y-104740903D01*
X134540411Y-104777107D01*
X134492611Y-105040582D01*
X133058410Y-105040582D01*
X133205676Y-104893574D01*
X133369751Y-104498436D01*
X134890703Y-104498436D01*
X135178800Y-104786533D01*
X135466897Y-104498436D01*
X136160703Y-104498436D01*
X136448800Y-104786533D01*
X136736897Y-104498436D01*
X137405303Y-104498436D01*
X137693400Y-104786533D01*
X137981497Y-104498436D01*
X137945293Y-104390611D01*
X137681818Y-104342811D01*
X137441507Y-104390611D01*
X137405303Y-104498436D01*
X136736897Y-104498436D01*
X136700693Y-104390611D01*
X136437218Y-104342811D01*
X136196907Y-104390611D01*
X136160703Y-104498436D01*
X135466897Y-104498436D01*
X135430693Y-104390611D01*
X135167218Y-104342811D01*
X134926907Y-104390611D01*
X134890703Y-104498436D01*
X133369751Y-104498436D01*
X133408369Y-104405434D01*
X133408625Y-104111764D01*
X134966903Y-104111764D01*
X135003107Y-104219589D01*
X135266582Y-104267389D01*
X135506893Y-104219589D01*
X135543097Y-104111764D01*
X136236903Y-104111764D01*
X136273107Y-104219589D01*
X136536582Y-104267389D01*
X136776893Y-104219589D01*
X136813097Y-104111764D01*
X137481503Y-104111764D01*
X137517707Y-104219589D01*
X137781182Y-104267389D01*
X138021493Y-104219589D01*
X138057697Y-104111764D01*
X138022433Y-104076500D01*
X139276422Y-104076500D01*
X139276422Y-106108500D01*
X139292362Y-106193214D01*
X139342428Y-106271018D01*
X139418820Y-106323215D01*
X139509500Y-106341578D01*
X141541500Y-106341578D01*
X141626214Y-106325638D01*
X141704018Y-106275572D01*
X141756215Y-106199180D01*
X141774578Y-106108500D01*
X141774578Y-105068117D01*
X141820900Y-105068117D01*
X141820900Y-105116883D01*
X141915640Y-105593171D01*
X142185435Y-105996948D01*
X142589212Y-106266743D01*
X143065500Y-106361483D01*
X143541788Y-106266743D01*
X143818302Y-106081982D01*
X145363811Y-106081982D01*
X145411611Y-106322293D01*
X145519436Y-106358497D01*
X145807533Y-106070400D01*
X146292467Y-106070400D01*
X146580564Y-106358497D01*
X146685000Y-106323431D01*
X146789436Y-106358497D01*
X147077533Y-106070400D01*
X147562467Y-106070400D01*
X147850564Y-106358497D01*
X147958389Y-106322293D01*
X148006189Y-106058818D01*
X147958389Y-105818507D01*
X147850564Y-105782303D01*
X147562467Y-106070400D01*
X147077533Y-106070400D01*
X146789436Y-105782303D01*
X146685000Y-105817369D01*
X146580564Y-105782303D01*
X146292467Y-106070400D01*
X145807533Y-106070400D01*
X145519436Y-105782303D01*
X145411611Y-105818507D01*
X145363811Y-106081982D01*
X143818302Y-106081982D01*
X143945565Y-105996948D01*
X144215360Y-105593171D01*
X144267516Y-105330964D01*
X145761903Y-105330964D01*
X145796969Y-105435400D01*
X145761903Y-105539836D01*
X146050000Y-105827933D01*
X146338097Y-105539836D01*
X146303031Y-105435400D01*
X146338097Y-105330964D01*
X147031903Y-105330964D01*
X147066969Y-105435400D01*
X147031903Y-105539836D01*
X147320000Y-105827933D01*
X147608097Y-105539836D01*
X147573031Y-105435400D01*
X147608097Y-105330964D01*
X147320000Y-105042867D01*
X147031903Y-105330964D01*
X146338097Y-105330964D01*
X146050000Y-105042867D01*
X145761903Y-105330964D01*
X144267516Y-105330964D01*
X144310100Y-105116883D01*
X144310100Y-105068117D01*
X144259152Y-104811982D01*
X145363811Y-104811982D01*
X145411611Y-105052293D01*
X145519436Y-105088497D01*
X145807533Y-104800400D01*
X146292467Y-104800400D01*
X146580564Y-105088497D01*
X146685000Y-105053431D01*
X146789436Y-105088497D01*
X147077533Y-104800400D01*
X147562467Y-104800400D01*
X147850564Y-105088497D01*
X147958389Y-105052293D01*
X148006189Y-104788818D01*
X147958389Y-104548507D01*
X147850564Y-104512303D01*
X147562467Y-104800400D01*
X147077533Y-104800400D01*
X146789436Y-104512303D01*
X146685000Y-104547369D01*
X146580564Y-104512303D01*
X146292467Y-104800400D01*
X145807533Y-104800400D01*
X145519436Y-104512303D01*
X145411611Y-104548507D01*
X145363811Y-104811982D01*
X144259152Y-104811982D01*
X144215360Y-104591829D01*
X143945565Y-104188052D01*
X143831392Y-104111764D01*
X145761903Y-104111764D01*
X145788441Y-104190800D01*
X145761903Y-104269836D01*
X146050000Y-104557933D01*
X146338097Y-104269836D01*
X146311559Y-104190800D01*
X146338097Y-104111764D01*
X147031903Y-104111764D01*
X147058441Y-104190800D01*
X147031903Y-104269836D01*
X147320000Y-104557933D01*
X147474818Y-104403115D01*
X149801170Y-104403115D01*
X150003011Y-104891608D01*
X150376426Y-105265676D01*
X150864566Y-105468369D01*
X151393115Y-105468830D01*
X151881608Y-105266989D01*
X152255676Y-104893574D01*
X152458369Y-104405434D01*
X152458830Y-103876885D01*
X152256989Y-103388392D01*
X151883574Y-103014324D01*
X151395434Y-102811631D01*
X150866885Y-102811170D01*
X150378392Y-103013011D01*
X150004324Y-103386426D01*
X149801631Y-103874566D01*
X149801170Y-104403115D01*
X147474818Y-104403115D01*
X147608097Y-104269836D01*
X147581559Y-104190800D01*
X147608097Y-104111764D01*
X147320000Y-103823667D01*
X147031903Y-104111764D01*
X146338097Y-104111764D01*
X146050000Y-103823667D01*
X145761903Y-104111764D01*
X143831392Y-104111764D01*
X143541788Y-103918257D01*
X143065500Y-103823517D01*
X142589212Y-103918257D01*
X142185435Y-104188052D01*
X141915640Y-104591829D01*
X141820900Y-105068117D01*
X141774578Y-105068117D01*
X141774578Y-104076500D01*
X141758638Y-103991786D01*
X141708572Y-103913982D01*
X141632180Y-103861785D01*
X141541500Y-103843422D01*
X139509500Y-103843422D01*
X139424786Y-103859362D01*
X139346982Y-103909428D01*
X139294785Y-103985820D01*
X139276422Y-104076500D01*
X138022433Y-104076500D01*
X137769600Y-103823667D01*
X137481503Y-104111764D01*
X136813097Y-104111764D01*
X136525000Y-103823667D01*
X136236903Y-104111764D01*
X135543097Y-104111764D01*
X135255000Y-103823667D01*
X134966903Y-104111764D01*
X133408625Y-104111764D01*
X133408830Y-103876885D01*
X133291442Y-103592782D01*
X134568811Y-103592782D01*
X134616611Y-103833093D01*
X134724436Y-103869297D01*
X135012533Y-103581200D01*
X135497467Y-103581200D01*
X135785564Y-103869297D01*
X135890000Y-103834231D01*
X135994436Y-103869297D01*
X136282533Y-103581200D01*
X136767467Y-103581200D01*
X137055564Y-103869297D01*
X137147300Y-103838495D01*
X137239036Y-103869297D01*
X137527133Y-103581200D01*
X138012067Y-103581200D01*
X138300164Y-103869297D01*
X138407989Y-103833093D01*
X138455789Y-103569618D01*
X138432268Y-103451364D01*
X141469303Y-103451364D01*
X141505507Y-103559189D01*
X141768982Y-103606989D01*
X141840406Y-103592782D01*
X145363811Y-103592782D01*
X145411611Y-103833093D01*
X145519436Y-103869297D01*
X145807533Y-103581200D01*
X146292467Y-103581200D01*
X146580564Y-103869297D01*
X146685000Y-103834231D01*
X146789436Y-103869297D01*
X147077533Y-103581200D01*
X147562467Y-103581200D01*
X147850564Y-103869297D01*
X147958389Y-103833093D01*
X148006189Y-103569618D01*
X147958389Y-103329307D01*
X147850564Y-103293103D01*
X147562467Y-103581200D01*
X147077533Y-103581200D01*
X146789436Y-103293103D01*
X146685000Y-103328169D01*
X146580564Y-103293103D01*
X146292467Y-103581200D01*
X145807533Y-103581200D01*
X145519436Y-103293103D01*
X145411611Y-103329307D01*
X145363811Y-103592782D01*
X141840406Y-103592782D01*
X142009293Y-103559189D01*
X142045497Y-103451364D01*
X141757400Y-103163267D01*
X141469303Y-103451364D01*
X138432268Y-103451364D01*
X138407989Y-103329307D01*
X138300164Y-103293103D01*
X138012067Y-103581200D01*
X137527133Y-103581200D01*
X137239036Y-103293103D01*
X137147300Y-103323905D01*
X137055564Y-103293103D01*
X136767467Y-103581200D01*
X136282533Y-103581200D01*
X135994436Y-103293103D01*
X135890000Y-103328169D01*
X135785564Y-103293103D01*
X135497467Y-103581200D01*
X135012533Y-103581200D01*
X134724436Y-103293103D01*
X134616611Y-103329307D01*
X134568811Y-103592782D01*
X133291442Y-103592782D01*
X133206989Y-103388392D01*
X132833574Y-103014324D01*
X132345434Y-102811631D01*
X131816885Y-102811170D01*
X131328392Y-103013011D01*
X130954324Y-103386426D01*
X130751631Y-103874566D01*
X130751170Y-104403115D01*
X128827600Y-104403115D01*
X128827600Y-102765564D01*
X134966903Y-102765564D01*
X135003107Y-102873389D01*
X135185638Y-102906504D01*
X135003107Y-102942811D01*
X134966903Y-103050636D01*
X135255000Y-103338733D01*
X135543097Y-103050636D01*
X136236903Y-103050636D01*
X136525000Y-103338733D01*
X136813097Y-103050636D01*
X137481503Y-103050636D01*
X137769600Y-103338733D01*
X138057697Y-103050636D01*
X138021493Y-102942811D01*
X137964009Y-102932382D01*
X141071211Y-102932382D01*
X141119011Y-103172693D01*
X141226836Y-103208897D01*
X141514933Y-102920800D01*
X141999867Y-102920800D01*
X142287964Y-103208897D01*
X142395789Y-103172693D01*
X142443589Y-102909218D01*
X142430172Y-102841764D01*
X145761903Y-102841764D01*
X145796969Y-102946200D01*
X145761903Y-103050636D01*
X146050000Y-103338733D01*
X146338097Y-103050636D01*
X146303031Y-102946200D01*
X146338097Y-102841764D01*
X147031903Y-102841764D01*
X147066969Y-102946200D01*
X147031903Y-103050636D01*
X147320000Y-103338733D01*
X147608097Y-103050636D01*
X147573031Y-102946200D01*
X147608097Y-102841764D01*
X148276503Y-102841764D01*
X148312707Y-102949589D01*
X148576182Y-102997389D01*
X148816493Y-102949589D01*
X148852697Y-102841764D01*
X148564600Y-102553667D01*
X148276503Y-102841764D01*
X147608097Y-102841764D01*
X147320000Y-102553667D01*
X147031903Y-102841764D01*
X146338097Y-102841764D01*
X146050000Y-102553667D01*
X145761903Y-102841764D01*
X142430172Y-102841764D01*
X142395789Y-102668907D01*
X142287964Y-102632703D01*
X141999867Y-102920800D01*
X141514933Y-102920800D01*
X141226836Y-102632703D01*
X141119011Y-102668907D01*
X141071211Y-102932382D01*
X137964009Y-102932382D01*
X137758018Y-102895011D01*
X137517707Y-102942811D01*
X137481503Y-103050636D01*
X136813097Y-103050636D01*
X136776893Y-102942811D01*
X136513418Y-102895011D01*
X136273107Y-102942811D01*
X136236903Y-103050636D01*
X135543097Y-103050636D01*
X135506893Y-102942811D01*
X135324362Y-102909696D01*
X135506893Y-102873389D01*
X135543097Y-102765564D01*
X135517697Y-102740164D01*
X136490903Y-102740164D01*
X136527107Y-102847989D01*
X136790582Y-102895789D01*
X137030893Y-102847989D01*
X137067097Y-102740164D01*
X137760903Y-102740164D01*
X137797107Y-102847989D01*
X138060582Y-102895789D01*
X138300893Y-102847989D01*
X138337097Y-102740164D01*
X139005503Y-102740164D01*
X139041707Y-102847989D01*
X139305182Y-102895789D01*
X139545493Y-102847989D01*
X139581697Y-102740164D01*
X139293600Y-102452067D01*
X139005503Y-102740164D01*
X138337097Y-102740164D01*
X138049000Y-102452067D01*
X137760903Y-102740164D01*
X137067097Y-102740164D01*
X136779000Y-102452067D01*
X136490903Y-102740164D01*
X135517697Y-102740164D01*
X135255000Y-102477467D01*
X134966903Y-102765564D01*
X128827600Y-102765564D01*
X128827600Y-102246582D01*
X134568811Y-102246582D01*
X134616611Y-102486893D01*
X134724436Y-102523097D01*
X135012533Y-102235000D01*
X135497467Y-102235000D01*
X135785564Y-102523097D01*
X135893389Y-102486893D01*
X135941189Y-102223418D01*
X135940745Y-102221182D01*
X136092811Y-102221182D01*
X136140611Y-102461493D01*
X136248436Y-102497697D01*
X136536533Y-102209600D01*
X137021467Y-102209600D01*
X137309564Y-102497697D01*
X137414000Y-102462631D01*
X137518436Y-102497697D01*
X137806533Y-102209600D01*
X138291467Y-102209600D01*
X138579564Y-102497697D01*
X138671300Y-102466895D01*
X138763036Y-102497697D01*
X139051133Y-102209600D01*
X139536067Y-102209600D01*
X139824164Y-102497697D01*
X139931989Y-102461493D01*
X139944916Y-102390236D01*
X141469303Y-102390236D01*
X141757400Y-102678333D01*
X142045497Y-102390236D01*
X142022849Y-102322782D01*
X145363811Y-102322782D01*
X145411611Y-102563093D01*
X145519436Y-102599297D01*
X145807533Y-102311200D01*
X146292467Y-102311200D01*
X146580564Y-102599297D01*
X146685000Y-102564231D01*
X146789436Y-102599297D01*
X147077533Y-102311200D01*
X147562467Y-102311200D01*
X147850564Y-102599297D01*
X147942300Y-102568495D01*
X148034036Y-102599297D01*
X148322133Y-102311200D01*
X148807067Y-102311200D01*
X149095164Y-102599297D01*
X149202989Y-102563093D01*
X149250789Y-102299618D01*
X149202989Y-102059307D01*
X149095164Y-102023103D01*
X148807067Y-102311200D01*
X148322133Y-102311200D01*
X148034036Y-102023103D01*
X147942300Y-102053905D01*
X147850564Y-102023103D01*
X147562467Y-102311200D01*
X147077533Y-102311200D01*
X146789436Y-102023103D01*
X146685000Y-102058169D01*
X146580564Y-102023103D01*
X146292467Y-102311200D01*
X145807533Y-102311200D01*
X145519436Y-102023103D01*
X145411611Y-102059307D01*
X145363811Y-102322782D01*
X142022849Y-102322782D01*
X142009293Y-102282411D01*
X141745818Y-102234611D01*
X141505507Y-102282411D01*
X141469303Y-102390236D01*
X139944916Y-102390236D01*
X139979789Y-102198018D01*
X139931989Y-101957707D01*
X139824164Y-101921503D01*
X139536067Y-102209600D01*
X139051133Y-102209600D01*
X138763036Y-101921503D01*
X138671300Y-101952305D01*
X138579564Y-101921503D01*
X138291467Y-102209600D01*
X137806533Y-102209600D01*
X137518436Y-101921503D01*
X137414000Y-101956569D01*
X137309564Y-101921503D01*
X137021467Y-102209600D01*
X136536533Y-102209600D01*
X136248436Y-101921503D01*
X136140611Y-101957707D01*
X136092811Y-102221182D01*
X135940745Y-102221182D01*
X135893389Y-101983107D01*
X135785564Y-101946903D01*
X135497467Y-102235000D01*
X135012533Y-102235000D01*
X134724436Y-101946903D01*
X134616611Y-101983107D01*
X134568811Y-102246582D01*
X128827600Y-102246582D01*
X128827600Y-101876564D01*
X129480503Y-101876564D01*
X129516707Y-101984389D01*
X129780182Y-102032189D01*
X130020493Y-101984389D01*
X130056697Y-101876564D01*
X129768600Y-101588467D01*
X129480503Y-101876564D01*
X128827600Y-101876564D01*
X128827600Y-101357582D01*
X129082411Y-101357582D01*
X129130211Y-101597893D01*
X129238036Y-101634097D01*
X129526133Y-101346000D01*
X130011067Y-101346000D01*
X130299164Y-101634097D01*
X130406989Y-101597893D01*
X130411729Y-101571764D01*
X133265103Y-101571764D01*
X133301307Y-101679589D01*
X133564782Y-101727389D01*
X133680176Y-101704436D01*
X134966903Y-101704436D01*
X135255000Y-101992533D01*
X135543097Y-101704436D01*
X135534569Y-101679036D01*
X136490903Y-101679036D01*
X136779000Y-101967133D01*
X137067097Y-101679036D01*
X137760903Y-101679036D01*
X138049000Y-101967133D01*
X138337097Y-101679036D01*
X139005503Y-101679036D01*
X139293600Y-101967133D01*
X139358769Y-101901964D01*
X141342303Y-101901964D01*
X141378507Y-102009789D01*
X141641982Y-102057589D01*
X141882293Y-102009789D01*
X141918497Y-101901964D01*
X141630400Y-101613867D01*
X141342303Y-101901964D01*
X139358769Y-101901964D01*
X139581697Y-101679036D01*
X139545493Y-101571211D01*
X139282018Y-101523411D01*
X139041707Y-101571211D01*
X139005503Y-101679036D01*
X138337097Y-101679036D01*
X138300893Y-101571211D01*
X138037418Y-101523411D01*
X137797107Y-101571211D01*
X137760903Y-101679036D01*
X137067097Y-101679036D01*
X137030893Y-101571211D01*
X136767418Y-101523411D01*
X136527107Y-101571211D01*
X136490903Y-101679036D01*
X135534569Y-101679036D01*
X135506893Y-101596611D01*
X135243418Y-101548811D01*
X135003107Y-101596611D01*
X134966903Y-101704436D01*
X133680176Y-101704436D01*
X133805093Y-101679589D01*
X133841297Y-101571764D01*
X133652515Y-101382982D01*
X140944211Y-101382982D01*
X140992011Y-101623293D01*
X141099836Y-101659497D01*
X141387933Y-101371400D01*
X141872867Y-101371400D01*
X142160964Y-101659497D01*
X142268789Y-101623293D01*
X142291961Y-101495564D01*
X145761903Y-101495564D01*
X145798107Y-101603389D01*
X145980638Y-101636504D01*
X145798107Y-101672811D01*
X145761903Y-101780636D01*
X146050000Y-102068733D01*
X146338097Y-101780636D01*
X146301893Y-101672811D01*
X146119362Y-101639696D01*
X146301893Y-101603389D01*
X146338097Y-101495564D01*
X147031903Y-101495564D01*
X147068107Y-101603389D01*
X147250638Y-101636504D01*
X147068107Y-101672811D01*
X147031903Y-101780636D01*
X147320000Y-102068733D01*
X147608097Y-101780636D01*
X148276503Y-101780636D01*
X148564600Y-102068733D01*
X148852697Y-101780636D01*
X148816493Y-101672811D01*
X148647246Y-101642106D01*
X148841893Y-101603389D01*
X148878097Y-101495564D01*
X149571903Y-101495564D01*
X149608107Y-101603389D01*
X149871582Y-101651189D01*
X150111893Y-101603389D01*
X150148097Y-101495564D01*
X150841903Y-101495564D01*
X150878107Y-101603389D01*
X151141582Y-101651189D01*
X151381893Y-101603389D01*
X151418097Y-101495564D01*
X152086503Y-101495564D01*
X152122707Y-101603389D01*
X152386182Y-101651189D01*
X152626493Y-101603389D01*
X152662697Y-101495564D01*
X152374600Y-101207467D01*
X152086503Y-101495564D01*
X151418097Y-101495564D01*
X151130000Y-101207467D01*
X150841903Y-101495564D01*
X150148097Y-101495564D01*
X149860000Y-101207467D01*
X149571903Y-101495564D01*
X148878097Y-101495564D01*
X148590000Y-101207467D01*
X148301903Y-101495564D01*
X148338107Y-101603389D01*
X148507354Y-101634094D01*
X148312707Y-101672811D01*
X148276503Y-101780636D01*
X147608097Y-101780636D01*
X147571893Y-101672811D01*
X147389362Y-101639696D01*
X147571893Y-101603389D01*
X147608097Y-101495564D01*
X147320000Y-101207467D01*
X147031903Y-101495564D01*
X146338097Y-101495564D01*
X146050000Y-101207467D01*
X145761903Y-101495564D01*
X142291961Y-101495564D01*
X142316589Y-101359818D01*
X142268789Y-101119507D01*
X142160964Y-101083303D01*
X141872867Y-101371400D01*
X141387933Y-101371400D01*
X141099836Y-101083303D01*
X140992011Y-101119507D01*
X140944211Y-101382982D01*
X133652515Y-101382982D01*
X133553200Y-101283667D01*
X133265103Y-101571764D01*
X130411729Y-101571764D01*
X130454789Y-101334418D01*
X130406989Y-101094107D01*
X130299164Y-101057903D01*
X130011067Y-101346000D01*
X129526133Y-101346000D01*
X129238036Y-101057903D01*
X129130211Y-101094107D01*
X129082411Y-101357582D01*
X128827600Y-101357582D01*
X128827600Y-100815436D01*
X129480503Y-100815436D01*
X129768600Y-101103533D01*
X129819351Y-101052782D01*
X132867011Y-101052782D01*
X132914811Y-101293093D01*
X133022636Y-101329297D01*
X133310733Y-101041200D01*
X133795667Y-101041200D01*
X134083764Y-101329297D01*
X134191589Y-101293093D01*
X134210153Y-101190764D01*
X137379903Y-101190764D01*
X137416107Y-101298589D01*
X137679582Y-101346389D01*
X137919893Y-101298589D01*
X137956097Y-101190764D01*
X137668000Y-100902667D01*
X137379903Y-101190764D01*
X134210153Y-101190764D01*
X134239389Y-101029618D01*
X134191589Y-100789307D01*
X134083764Y-100753103D01*
X133795667Y-101041200D01*
X133310733Y-101041200D01*
X133022636Y-100753103D01*
X132914811Y-100789307D01*
X132867011Y-101052782D01*
X129819351Y-101052782D01*
X130056697Y-100815436D01*
X130020493Y-100707611D01*
X129757018Y-100659811D01*
X129516707Y-100707611D01*
X129480503Y-100815436D01*
X128827600Y-100815436D01*
X128827600Y-100510636D01*
X133265103Y-100510636D01*
X133553200Y-100798733D01*
X133841297Y-100510636D01*
X133805093Y-100402811D01*
X133541618Y-100355011D01*
X133301307Y-100402811D01*
X133265103Y-100510636D01*
X128827600Y-100510636D01*
X128827600Y-98933000D01*
X129350517Y-98933000D01*
X129433656Y-99350967D01*
X129670415Y-99705302D01*
X130024750Y-99942061D01*
X130442717Y-100025200D01*
X130796283Y-100025200D01*
X131214250Y-99942061D01*
X131242252Y-99923350D01*
X134759800Y-99923350D01*
X134759800Y-100728681D01*
X134810070Y-100850043D01*
X134902957Y-100942930D01*
X135024319Y-100993200D01*
X135629650Y-100993200D01*
X135712200Y-100910650D01*
X135712200Y-99840800D01*
X136067800Y-99840800D01*
X136067800Y-100910650D01*
X136150350Y-100993200D01*
X136755681Y-100993200D01*
X136877043Y-100942930D01*
X136969930Y-100850043D01*
X137001911Y-100772834D01*
X137029611Y-100912093D01*
X137137436Y-100948297D01*
X137425533Y-100660200D01*
X137910467Y-100660200D01*
X138198564Y-100948297D01*
X138306389Y-100912093D01*
X138354189Y-100648618D01*
X138345825Y-100606564D01*
X141342303Y-100606564D01*
X141378507Y-100714389D01*
X141427470Y-100723272D01*
X141378507Y-100733011D01*
X141342303Y-100840836D01*
X141630400Y-101128933D01*
X141782751Y-100976582D01*
X145363811Y-100976582D01*
X145411611Y-101216893D01*
X145519436Y-101253097D01*
X145807533Y-100965000D01*
X146292467Y-100965000D01*
X146580564Y-101253097D01*
X146685000Y-101218031D01*
X146789436Y-101253097D01*
X147077533Y-100965000D01*
X147562467Y-100965000D01*
X147850564Y-101253097D01*
X147955000Y-101218031D01*
X148059436Y-101253097D01*
X148347533Y-100965000D01*
X148832467Y-100965000D01*
X149120564Y-101253097D01*
X149225000Y-101218031D01*
X149329436Y-101253097D01*
X149617533Y-100965000D01*
X150102467Y-100965000D01*
X150390564Y-101253097D01*
X150495000Y-101218031D01*
X150599436Y-101253097D01*
X150887533Y-100965000D01*
X151372467Y-100965000D01*
X151660564Y-101253097D01*
X151752300Y-101222295D01*
X151844036Y-101253097D01*
X152132133Y-100965000D01*
X152617067Y-100965000D01*
X152905164Y-101253097D01*
X153012989Y-101216893D01*
X153060789Y-100953418D01*
X153012989Y-100713107D01*
X152905164Y-100676903D01*
X152617067Y-100965000D01*
X152132133Y-100965000D01*
X151844036Y-100676903D01*
X151752300Y-100707705D01*
X151660564Y-100676903D01*
X151372467Y-100965000D01*
X150887533Y-100965000D01*
X150599436Y-100676903D01*
X150495000Y-100711969D01*
X150390564Y-100676903D01*
X150102467Y-100965000D01*
X149617533Y-100965000D01*
X149329436Y-100676903D01*
X149225000Y-100711969D01*
X149120564Y-100676903D01*
X148832467Y-100965000D01*
X148347533Y-100965000D01*
X148059436Y-100676903D01*
X147955000Y-100711969D01*
X147850564Y-100676903D01*
X147562467Y-100965000D01*
X147077533Y-100965000D01*
X146789436Y-100676903D01*
X146685000Y-100711969D01*
X146580564Y-100676903D01*
X146292467Y-100965000D01*
X145807533Y-100965000D01*
X145519436Y-100676903D01*
X145411611Y-100713107D01*
X145363811Y-100976582D01*
X141782751Y-100976582D01*
X141918497Y-100840836D01*
X141882293Y-100733011D01*
X141833330Y-100724128D01*
X141882293Y-100714389D01*
X141918497Y-100606564D01*
X141630400Y-100318467D01*
X141342303Y-100606564D01*
X138345825Y-100606564D01*
X138306389Y-100408307D01*
X138198564Y-100372103D01*
X137910467Y-100660200D01*
X137425533Y-100660200D01*
X137137436Y-100372103D01*
X137029611Y-100408307D01*
X137020200Y-100460181D01*
X137020200Y-100129636D01*
X137379903Y-100129636D01*
X137668000Y-100417733D01*
X137956097Y-100129636D01*
X137941977Y-100087582D01*
X140944211Y-100087582D01*
X140992011Y-100327893D01*
X141099836Y-100364097D01*
X141387933Y-100076000D01*
X141872867Y-100076000D01*
X142160964Y-100364097D01*
X142268789Y-100327893D01*
X142287353Y-100225564D01*
X145761903Y-100225564D01*
X145796969Y-100330000D01*
X145761903Y-100434436D01*
X146050000Y-100722533D01*
X146338097Y-100434436D01*
X146303031Y-100330000D01*
X146338097Y-100225564D01*
X147031903Y-100225564D01*
X147066969Y-100330000D01*
X147031903Y-100434436D01*
X147320000Y-100722533D01*
X147608097Y-100434436D01*
X147573031Y-100330000D01*
X147608097Y-100225564D01*
X148301903Y-100225564D01*
X148336969Y-100330000D01*
X148301903Y-100434436D01*
X148590000Y-100722533D01*
X148878097Y-100434436D01*
X148843031Y-100330000D01*
X148878097Y-100225564D01*
X149571903Y-100225564D01*
X149606969Y-100330000D01*
X149571903Y-100434436D01*
X149860000Y-100722533D01*
X150148097Y-100434436D01*
X150113031Y-100330000D01*
X150148097Y-100225564D01*
X150841903Y-100225564D01*
X150876969Y-100330000D01*
X150841903Y-100434436D01*
X151130000Y-100722533D01*
X151418097Y-100434436D01*
X151383031Y-100330000D01*
X151418097Y-100225564D01*
X152086503Y-100225564D01*
X152121569Y-100330000D01*
X152086503Y-100434436D01*
X152374600Y-100722533D01*
X152662697Y-100434436D01*
X152627631Y-100330000D01*
X152662697Y-100225564D01*
X152374600Y-99937467D01*
X152086503Y-100225564D01*
X151418097Y-100225564D01*
X151130000Y-99937467D01*
X150841903Y-100225564D01*
X150148097Y-100225564D01*
X149860000Y-99937467D01*
X149571903Y-100225564D01*
X148878097Y-100225564D01*
X148590000Y-99937467D01*
X148301903Y-100225564D01*
X147608097Y-100225564D01*
X147320000Y-99937467D01*
X147031903Y-100225564D01*
X146338097Y-100225564D01*
X146050000Y-99937467D01*
X145761903Y-100225564D01*
X142287353Y-100225564D01*
X142316589Y-100064418D01*
X142268789Y-99824107D01*
X142160964Y-99787903D01*
X141872867Y-100076000D01*
X141387933Y-100076000D01*
X141099836Y-99787903D01*
X140992011Y-99824107D01*
X140944211Y-100087582D01*
X137941977Y-100087582D01*
X137919893Y-100021811D01*
X137656418Y-99974011D01*
X137416107Y-100021811D01*
X137379903Y-100129636D01*
X137020200Y-100129636D01*
X137020200Y-99923350D01*
X136937650Y-99840800D01*
X136067800Y-99840800D01*
X135712200Y-99840800D01*
X134842350Y-99840800D01*
X134759800Y-99923350D01*
X131242252Y-99923350D01*
X131550233Y-99717564D01*
X133265103Y-99717564D01*
X133301307Y-99825389D01*
X133564782Y-99873189D01*
X133805093Y-99825389D01*
X133807183Y-99819164D01*
X137379903Y-99819164D01*
X137416107Y-99926989D01*
X137679582Y-99974789D01*
X137919893Y-99926989D01*
X137956097Y-99819164D01*
X137668000Y-99531067D01*
X137379903Y-99819164D01*
X133807183Y-99819164D01*
X133841297Y-99717564D01*
X133553200Y-99429467D01*
X133265103Y-99717564D01*
X131550233Y-99717564D01*
X131568585Y-99705302D01*
X131805344Y-99350967D01*
X131835655Y-99198582D01*
X132867011Y-99198582D01*
X132914811Y-99438893D01*
X133022636Y-99475097D01*
X133310733Y-99187000D01*
X133795667Y-99187000D01*
X134083764Y-99475097D01*
X134191589Y-99438893D01*
X134239389Y-99175418D01*
X134191589Y-98935107D01*
X134083764Y-98898903D01*
X133795667Y-99187000D01*
X133310733Y-99187000D01*
X133022636Y-98898903D01*
X132914811Y-98935107D01*
X132867011Y-99198582D01*
X131835655Y-99198582D01*
X131888483Y-98933000D01*
X131833471Y-98656436D01*
X133265103Y-98656436D01*
X133553200Y-98944533D01*
X133841297Y-98656436D01*
X133821448Y-98597319D01*
X134759800Y-98597319D01*
X134759800Y-99402650D01*
X134842350Y-99485200D01*
X135712200Y-99485200D01*
X135712200Y-98415350D01*
X136067800Y-98415350D01*
X136067800Y-99485200D01*
X136937650Y-99485200D01*
X137005180Y-99417670D01*
X137029611Y-99540493D01*
X137137436Y-99576697D01*
X137425533Y-99288600D01*
X137910467Y-99288600D01*
X138198564Y-99576697D01*
X138291667Y-99545436D01*
X141342303Y-99545436D01*
X141630400Y-99833533D01*
X141757351Y-99706582D01*
X145363811Y-99706582D01*
X145411611Y-99946893D01*
X145519436Y-99983097D01*
X145807533Y-99695000D01*
X146292467Y-99695000D01*
X146580564Y-99983097D01*
X146685000Y-99948031D01*
X146789436Y-99983097D01*
X147077533Y-99695000D01*
X147562467Y-99695000D01*
X147850564Y-99983097D01*
X147955000Y-99948031D01*
X148059436Y-99983097D01*
X148347533Y-99695000D01*
X148832467Y-99695000D01*
X149120564Y-99983097D01*
X149225000Y-99948031D01*
X149329436Y-99983097D01*
X149617533Y-99695000D01*
X150102467Y-99695000D01*
X150390564Y-99983097D01*
X150495000Y-99948031D01*
X150599436Y-99983097D01*
X150887533Y-99695000D01*
X151372467Y-99695000D01*
X151660564Y-99983097D01*
X151752300Y-99952295D01*
X151844036Y-99983097D01*
X152132133Y-99695000D01*
X152617067Y-99695000D01*
X152905164Y-99983097D01*
X153012989Y-99946893D01*
X153060789Y-99683418D01*
X153012989Y-99443107D01*
X152905164Y-99406903D01*
X152617067Y-99695000D01*
X152132133Y-99695000D01*
X151844036Y-99406903D01*
X151752300Y-99437705D01*
X151660564Y-99406903D01*
X151372467Y-99695000D01*
X150887533Y-99695000D01*
X150599436Y-99406903D01*
X150495000Y-99441969D01*
X150390564Y-99406903D01*
X150102467Y-99695000D01*
X149617533Y-99695000D01*
X149329436Y-99406903D01*
X149225000Y-99441969D01*
X149120564Y-99406903D01*
X148832467Y-99695000D01*
X148347533Y-99695000D01*
X148059436Y-99406903D01*
X147955000Y-99441969D01*
X147850564Y-99406903D01*
X147562467Y-99695000D01*
X147077533Y-99695000D01*
X146789436Y-99406903D01*
X146685000Y-99441969D01*
X146580564Y-99406903D01*
X146292467Y-99695000D01*
X145807533Y-99695000D01*
X145519436Y-99406903D01*
X145411611Y-99443107D01*
X145363811Y-99706582D01*
X141757351Y-99706582D01*
X141918497Y-99545436D01*
X141882293Y-99437611D01*
X141618818Y-99389811D01*
X141378507Y-99437611D01*
X141342303Y-99545436D01*
X138291667Y-99545436D01*
X138306389Y-99540493D01*
X138354189Y-99277018D01*
X138340772Y-99209564D01*
X141316903Y-99209564D01*
X141353107Y-99317389D01*
X141616582Y-99365189D01*
X141856893Y-99317389D01*
X141893097Y-99209564D01*
X141605000Y-98921467D01*
X141316903Y-99209564D01*
X138340772Y-99209564D01*
X138306389Y-99036707D01*
X138198564Y-99000503D01*
X137910467Y-99288600D01*
X137425533Y-99288600D01*
X137137436Y-99000503D01*
X137029611Y-99036707D01*
X137020200Y-99088581D01*
X137020200Y-98758036D01*
X137379903Y-98758036D01*
X137668000Y-99046133D01*
X137956097Y-98758036D01*
X137933449Y-98690582D01*
X140918811Y-98690582D01*
X140966611Y-98930893D01*
X141074436Y-98967097D01*
X141362533Y-98679000D01*
X141847467Y-98679000D01*
X142135564Y-98967097D01*
X142169912Y-98955564D01*
X145761903Y-98955564D01*
X145796969Y-99060000D01*
X145761903Y-99164436D01*
X146050000Y-99452533D01*
X146338097Y-99164436D01*
X146303031Y-99060000D01*
X146338097Y-98955564D01*
X147031903Y-98955564D01*
X147066969Y-99060000D01*
X147031903Y-99164436D01*
X147320000Y-99452533D01*
X147608097Y-99164436D01*
X147573031Y-99060000D01*
X147608097Y-98955564D01*
X148301903Y-98955564D01*
X148336969Y-99060000D01*
X148301903Y-99164436D01*
X148590000Y-99452533D01*
X148878097Y-99164436D01*
X149571903Y-99164436D01*
X149860000Y-99452533D01*
X150148097Y-99164436D01*
X150841903Y-99164436D01*
X151130000Y-99452533D01*
X151418097Y-99164436D01*
X152086503Y-99164436D01*
X152374600Y-99452533D01*
X152662697Y-99164436D01*
X152626493Y-99056611D01*
X152363018Y-99008811D01*
X152122707Y-99056611D01*
X152086503Y-99164436D01*
X151418097Y-99164436D01*
X151381893Y-99056611D01*
X151118418Y-99008811D01*
X150878107Y-99056611D01*
X150841903Y-99164436D01*
X150148097Y-99164436D01*
X150111893Y-99056611D01*
X149848418Y-99008811D01*
X149608107Y-99056611D01*
X149571903Y-99164436D01*
X148878097Y-99164436D01*
X148843031Y-99060000D01*
X148878097Y-98955564D01*
X148590000Y-98667467D01*
X148301903Y-98955564D01*
X147608097Y-98955564D01*
X147320000Y-98667467D01*
X147031903Y-98955564D01*
X146338097Y-98955564D01*
X146050000Y-98667467D01*
X145761903Y-98955564D01*
X142169912Y-98955564D01*
X142243389Y-98930893D01*
X142291189Y-98667418D01*
X142245274Y-98436582D01*
X145363811Y-98436582D01*
X145411611Y-98676893D01*
X145519436Y-98713097D01*
X145807533Y-98425000D01*
X146292467Y-98425000D01*
X146580564Y-98713097D01*
X146685000Y-98678031D01*
X146789436Y-98713097D01*
X147077533Y-98425000D01*
X147562467Y-98425000D01*
X147850564Y-98713097D01*
X147955000Y-98678031D01*
X148059436Y-98713097D01*
X148347533Y-98425000D01*
X148832467Y-98425000D01*
X149120564Y-98713097D01*
X149228389Y-98676893D01*
X149276189Y-98413418D01*
X149228389Y-98173107D01*
X149120564Y-98136903D01*
X148832467Y-98425000D01*
X148347533Y-98425000D01*
X148059436Y-98136903D01*
X147955000Y-98171969D01*
X147850564Y-98136903D01*
X147562467Y-98425000D01*
X147077533Y-98425000D01*
X146789436Y-98136903D01*
X146685000Y-98171969D01*
X146580564Y-98136903D01*
X146292467Y-98425000D01*
X145807533Y-98425000D01*
X145519436Y-98136903D01*
X145411611Y-98173107D01*
X145363811Y-98436582D01*
X142245274Y-98436582D01*
X142243389Y-98427107D01*
X142135564Y-98390903D01*
X141847467Y-98679000D01*
X141362533Y-98679000D01*
X141074436Y-98390903D01*
X140966611Y-98427107D01*
X140918811Y-98690582D01*
X137933449Y-98690582D01*
X137919893Y-98650211D01*
X137656418Y-98602411D01*
X137416107Y-98650211D01*
X137379903Y-98758036D01*
X137020200Y-98758036D01*
X137020200Y-98597319D01*
X136969930Y-98475957D01*
X136877043Y-98383070D01*
X136787462Y-98345964D01*
X137303703Y-98345964D01*
X137339907Y-98453789D01*
X137603382Y-98501589D01*
X137843693Y-98453789D01*
X137879897Y-98345964D01*
X137682369Y-98148436D01*
X141316903Y-98148436D01*
X141605000Y-98436533D01*
X141893097Y-98148436D01*
X141856893Y-98040611D01*
X141593418Y-97992811D01*
X141353107Y-98040611D01*
X141316903Y-98148436D01*
X137682369Y-98148436D01*
X137591800Y-98057867D01*
X137303703Y-98345964D01*
X136787462Y-98345964D01*
X136755681Y-98332800D01*
X136150350Y-98332800D01*
X136067800Y-98415350D01*
X135712200Y-98415350D01*
X135629650Y-98332800D01*
X135024319Y-98332800D01*
X134902957Y-98383070D01*
X134810070Y-98475957D01*
X134759800Y-98597319D01*
X133821448Y-98597319D01*
X133805093Y-98548611D01*
X133541618Y-98500811D01*
X133301307Y-98548611D01*
X133265103Y-98656436D01*
X131833471Y-98656436D01*
X131805344Y-98515033D01*
X131568585Y-98160698D01*
X131214250Y-97923939D01*
X130796283Y-97840800D01*
X130442717Y-97840800D01*
X130024750Y-97923939D01*
X129670415Y-98160698D01*
X129433656Y-98515033D01*
X129350517Y-98933000D01*
X128827600Y-98933000D01*
X128827600Y-97826982D01*
X136905611Y-97826982D01*
X136953411Y-98067293D01*
X137061236Y-98103497D01*
X137349333Y-97815400D01*
X137834267Y-97815400D01*
X138122364Y-98103497D01*
X138230189Y-98067293D01*
X138261548Y-97894436D01*
X145761903Y-97894436D01*
X146050000Y-98182533D01*
X146338097Y-97894436D01*
X146301893Y-97786611D01*
X146038418Y-97738811D01*
X145798107Y-97786611D01*
X145761903Y-97894436D01*
X138261548Y-97894436D01*
X138277989Y-97803818D01*
X138254468Y-97685564D01*
X147031903Y-97685564D01*
X147066969Y-97790000D01*
X147031903Y-97894436D01*
X147320000Y-98182533D01*
X147608097Y-97894436D01*
X147573031Y-97790000D01*
X147608097Y-97685564D01*
X148301903Y-97685564D01*
X148336969Y-97790000D01*
X148301903Y-97894436D01*
X148590000Y-98182533D01*
X148878097Y-97894436D01*
X148843031Y-97790000D01*
X148878097Y-97685564D01*
X148590000Y-97397467D01*
X148301903Y-97685564D01*
X147608097Y-97685564D01*
X147320000Y-97397467D01*
X147031903Y-97685564D01*
X138254468Y-97685564D01*
X138230189Y-97563507D01*
X138122364Y-97527303D01*
X137834267Y-97815400D01*
X137349333Y-97815400D01*
X137061236Y-97527303D01*
X136953411Y-97563507D01*
X136905611Y-97826982D01*
X128827600Y-97826982D01*
X128827600Y-96393000D01*
X129350517Y-96393000D01*
X129433656Y-96810967D01*
X129670415Y-97165302D01*
X130024750Y-97402061D01*
X130442717Y-97485200D01*
X130796283Y-97485200D01*
X131214250Y-97402061D01*
X131568585Y-97165302D01*
X131754420Y-96887180D01*
X133794401Y-96887180D01*
X133881224Y-97097306D01*
X134041849Y-97258211D01*
X134251823Y-97345400D01*
X134479180Y-97345599D01*
X134626236Y-97284836D01*
X137303703Y-97284836D01*
X137591800Y-97572933D01*
X137879897Y-97284836D01*
X137843693Y-97177011D01*
X137786209Y-97166582D01*
X146633811Y-97166582D01*
X146681611Y-97406893D01*
X146789436Y-97443097D01*
X147077533Y-97155000D01*
X147562467Y-97155000D01*
X147850564Y-97443097D01*
X147955000Y-97408031D01*
X148059436Y-97443097D01*
X148347533Y-97155000D01*
X148832467Y-97155000D01*
X149120564Y-97443097D01*
X149228389Y-97406893D01*
X149276189Y-97143418D01*
X149228389Y-96903107D01*
X149120564Y-96866903D01*
X148832467Y-97155000D01*
X148347533Y-97155000D01*
X148059436Y-96866903D01*
X147955000Y-96901969D01*
X147850564Y-96866903D01*
X147562467Y-97155000D01*
X147077533Y-97155000D01*
X146789436Y-96866903D01*
X146681611Y-96903107D01*
X146633811Y-97166582D01*
X137786209Y-97166582D01*
X137580218Y-97129211D01*
X137339907Y-97177011D01*
X137303703Y-97284836D01*
X134626236Y-97284836D01*
X134689306Y-97258776D01*
X134850211Y-97098151D01*
X134937400Y-96888177D01*
X134937446Y-96835438D01*
X134999320Y-96877715D01*
X135090000Y-96896078D01*
X136690000Y-96896078D01*
X136774714Y-96880138D01*
X136852518Y-96830072D01*
X136904715Y-96753680D01*
X136923078Y-96663000D01*
X136923078Y-96624436D01*
X147031903Y-96624436D01*
X147320000Y-96912533D01*
X147608097Y-96624436D01*
X147571893Y-96516611D01*
X147308418Y-96468811D01*
X147068107Y-96516611D01*
X147031903Y-96624436D01*
X136923078Y-96624436D01*
X136923078Y-96415564D01*
X148301903Y-96415564D01*
X148336969Y-96520000D01*
X148301903Y-96624436D01*
X148590000Y-96912533D01*
X148878097Y-96624436D01*
X148843031Y-96520000D01*
X148878097Y-96415564D01*
X148757033Y-96294500D01*
X150056422Y-96294500D01*
X150056422Y-97794500D01*
X150072362Y-97879214D01*
X150122428Y-97957018D01*
X150198820Y-98009215D01*
X150289500Y-98027578D01*
X151589500Y-98027578D01*
X151674214Y-98011638D01*
X151752018Y-97961572D01*
X151804215Y-97885180D01*
X151822578Y-97794500D01*
X151822578Y-97425500D01*
X152243289Y-97425500D01*
X152329849Y-97512211D01*
X152539823Y-97599400D01*
X152767180Y-97599599D01*
X152977306Y-97512776D01*
X153138211Y-97352151D01*
X153225400Y-97142177D01*
X153225599Y-96914820D01*
X153138776Y-96704694D01*
X152978151Y-96543789D01*
X152768177Y-96456600D01*
X152540820Y-96456401D01*
X152330694Y-96543224D01*
X152210208Y-96663500D01*
X151822578Y-96663500D01*
X151822578Y-96294500D01*
X151806638Y-96209786D01*
X151756572Y-96131982D01*
X151680180Y-96079785D01*
X151589500Y-96061422D01*
X150289500Y-96061422D01*
X150204786Y-96077362D01*
X150126982Y-96127428D01*
X150074785Y-96203820D01*
X150056422Y-96294500D01*
X148757033Y-96294500D01*
X148590000Y-96127467D01*
X148301903Y-96415564D01*
X136923078Y-96415564D01*
X136923078Y-95882164D01*
X140631103Y-95882164D01*
X140667307Y-95989989D01*
X140930782Y-96037789D01*
X141171093Y-95989989D01*
X141202455Y-95896582D01*
X147903811Y-95896582D01*
X147951611Y-96136893D01*
X148059436Y-96173097D01*
X148347533Y-95885000D01*
X148832467Y-95885000D01*
X149120564Y-96173097D01*
X149228389Y-96136893D01*
X149276189Y-95873418D01*
X149228389Y-95633107D01*
X149120564Y-95596903D01*
X148832467Y-95885000D01*
X148347533Y-95885000D01*
X148059436Y-95596903D01*
X147951611Y-95633107D01*
X147903811Y-95896582D01*
X141202455Y-95896582D01*
X141207297Y-95882164D01*
X140919200Y-95594067D01*
X140631103Y-95882164D01*
X136923078Y-95882164D01*
X136923078Y-95363182D01*
X140233011Y-95363182D01*
X140280811Y-95603493D01*
X140388636Y-95639697D01*
X140676733Y-95351600D01*
X141161667Y-95351600D01*
X141449764Y-95639697D01*
X141557589Y-95603493D01*
X141602773Y-95354436D01*
X148301903Y-95354436D01*
X148590000Y-95642533D01*
X148878097Y-95354436D01*
X148841893Y-95246611D01*
X148578418Y-95198811D01*
X148338107Y-95246611D01*
X148301903Y-95354436D01*
X141602773Y-95354436D01*
X141605389Y-95340018D01*
X141557589Y-95099707D01*
X141449764Y-95063503D01*
X141161667Y-95351600D01*
X140676733Y-95351600D01*
X140388636Y-95063503D01*
X140280811Y-95099707D01*
X140233011Y-95363182D01*
X136923078Y-95363182D01*
X136923078Y-94821036D01*
X140631103Y-94821036D01*
X140919200Y-95109133D01*
X141207297Y-94821036D01*
X141171093Y-94713211D01*
X140907618Y-94665411D01*
X140667307Y-94713211D01*
X140631103Y-94821036D01*
X136923078Y-94821036D01*
X136923078Y-94663000D01*
X136912137Y-94604850D01*
X149959300Y-94604850D01*
X149959300Y-95160181D01*
X150009570Y-95281543D01*
X150102457Y-95374430D01*
X150223819Y-95424700D01*
X150679150Y-95424700D01*
X150761700Y-95342150D01*
X150761700Y-94522300D01*
X151117300Y-94522300D01*
X151117300Y-95342150D01*
X151199850Y-95424700D01*
X151655181Y-95424700D01*
X151776543Y-95374430D01*
X151869430Y-95281543D01*
X151919700Y-95160181D01*
X151919700Y-94604850D01*
X151837150Y-94522300D01*
X151117300Y-94522300D01*
X150761700Y-94522300D01*
X150041850Y-94522300D01*
X149959300Y-94604850D01*
X136912137Y-94604850D01*
X136907138Y-94578286D01*
X136857072Y-94500482D01*
X136780680Y-94448285D01*
X136690000Y-94429922D01*
X135090000Y-94429922D01*
X135005286Y-94445862D01*
X134927482Y-94495928D01*
X134875285Y-94572320D01*
X134856922Y-94663000D01*
X134856922Y-95744263D01*
X134398656Y-96202529D01*
X134252820Y-96202401D01*
X134042694Y-96289224D01*
X133881789Y-96449849D01*
X133794600Y-96659823D01*
X133794401Y-96887180D01*
X131754420Y-96887180D01*
X131805344Y-96810967D01*
X131888483Y-96393000D01*
X131805344Y-95975033D01*
X131568585Y-95620698D01*
X131214250Y-95383939D01*
X130796283Y-95300800D01*
X130442717Y-95300800D01*
X130024750Y-95383939D01*
X129670415Y-95620698D01*
X129433656Y-95975033D01*
X129350517Y-96393000D01*
X128827600Y-96393000D01*
X128827600Y-93853000D01*
X129350517Y-93853000D01*
X129433656Y-94270967D01*
X129670415Y-94625302D01*
X130024750Y-94862061D01*
X130442717Y-94945200D01*
X130796283Y-94945200D01*
X131214250Y-94862061D01*
X131360164Y-94764564D01*
X133011103Y-94764564D01*
X133047307Y-94872389D01*
X133310782Y-94920189D01*
X133551093Y-94872389D01*
X133587297Y-94764564D01*
X133299200Y-94476467D01*
X133011103Y-94764564D01*
X131360164Y-94764564D01*
X131568585Y-94625302D01*
X131805344Y-94270967D01*
X131810393Y-94245582D01*
X132613011Y-94245582D01*
X132660811Y-94485893D01*
X132768636Y-94522097D01*
X133056733Y-94234000D01*
X133541667Y-94234000D01*
X133829764Y-94522097D01*
X133937589Y-94485893D01*
X133985389Y-94222418D01*
X133977025Y-94180364D01*
X136109903Y-94180364D01*
X136146107Y-94288189D01*
X136409582Y-94335989D01*
X136649893Y-94288189D01*
X136686097Y-94180364D01*
X136482897Y-93977164D01*
X146727103Y-93977164D01*
X146763307Y-94084989D01*
X147026782Y-94132789D01*
X147267093Y-94084989D01*
X147303297Y-93977164D01*
X147015200Y-93689067D01*
X146727103Y-93977164D01*
X136482897Y-93977164D01*
X136398000Y-93892267D01*
X136109903Y-94180364D01*
X133977025Y-94180364D01*
X133937589Y-93982107D01*
X133829764Y-93945903D01*
X133541667Y-94234000D01*
X133056733Y-94234000D01*
X132768636Y-93945903D01*
X132660811Y-93982107D01*
X132613011Y-94245582D01*
X131810393Y-94245582D01*
X131888483Y-93853000D01*
X131858733Y-93703436D01*
X133011103Y-93703436D01*
X133299200Y-93991533D01*
X133587297Y-93703436D01*
X133551093Y-93595611D01*
X133287618Y-93547811D01*
X133047307Y-93595611D01*
X133011103Y-93703436D01*
X131858733Y-93703436D01*
X131805344Y-93435033D01*
X131568585Y-93080698D01*
X131214250Y-92843939D01*
X130796283Y-92760800D01*
X130442717Y-92760800D01*
X130024750Y-92843939D01*
X129670415Y-93080698D01*
X129433656Y-93435033D01*
X129350517Y-93853000D01*
X128827600Y-93853000D01*
X128827600Y-90449400D01*
X129370422Y-90449400D01*
X129370422Y-92176600D01*
X129386362Y-92261314D01*
X129436428Y-92339118D01*
X129512820Y-92391315D01*
X129603500Y-92409678D01*
X131635500Y-92409678D01*
X131720214Y-92393738D01*
X131798018Y-92343672D01*
X131850215Y-92267280D01*
X131868578Y-92176600D01*
X131868578Y-91278000D01*
X134054422Y-91278000D01*
X134054422Y-92778000D01*
X134070362Y-92862714D01*
X134120428Y-92940518D01*
X134196820Y-92992715D01*
X134287500Y-93011078D01*
X134595111Y-93011078D01*
X134556600Y-93103823D01*
X134556401Y-93331180D01*
X134643224Y-93541306D01*
X134803849Y-93702211D01*
X135013823Y-93789400D01*
X135241180Y-93789599D01*
X135451306Y-93702776D01*
X135492772Y-93661382D01*
X135711811Y-93661382D01*
X135759611Y-93901693D01*
X135867436Y-93937897D01*
X136155533Y-93649800D01*
X136640467Y-93649800D01*
X136928564Y-93937897D01*
X137036389Y-93901693D01*
X137084189Y-93638218D01*
X137036389Y-93397907D01*
X136928564Y-93361703D01*
X136640467Y-93649800D01*
X136155533Y-93649800D01*
X135867436Y-93361703D01*
X135759611Y-93397907D01*
X135711811Y-93661382D01*
X135492772Y-93661382D01*
X135612211Y-93542151D01*
X135699400Y-93332177D01*
X135699586Y-93119236D01*
X136109903Y-93119236D01*
X136398000Y-93407333D01*
X136686097Y-93119236D01*
X136649893Y-93011411D01*
X136386418Y-92963611D01*
X136146107Y-93011411D01*
X136109903Y-93119236D01*
X135699586Y-93119236D01*
X135699599Y-93104820D01*
X135655573Y-92998269D01*
X135672214Y-92995138D01*
X135750018Y-92945072D01*
X135802215Y-92868680D01*
X135820578Y-92778000D01*
X135820578Y-91278000D01*
X137038922Y-91278000D01*
X137038922Y-92778000D01*
X137054862Y-92862714D01*
X137104928Y-92940518D01*
X137181320Y-92992715D01*
X137272000Y-93011078D01*
X138572000Y-93011078D01*
X138656714Y-92995138D01*
X138734518Y-92945072D01*
X138786715Y-92868680D01*
X138805078Y-92778000D01*
X138805078Y-92754130D01*
X138882279Y-92831331D01*
X138874600Y-92849823D01*
X138874401Y-93077180D01*
X138961224Y-93287306D01*
X139121849Y-93448211D01*
X139331823Y-93535400D01*
X139559180Y-93535599D01*
X139746541Y-93458182D01*
X146329011Y-93458182D01*
X146376811Y-93698493D01*
X146484636Y-93734697D01*
X146772733Y-93446600D01*
X147257667Y-93446600D01*
X147545764Y-93734697D01*
X147653589Y-93698493D01*
X147684371Y-93528819D01*
X149959300Y-93528819D01*
X149959300Y-94084150D01*
X150041850Y-94166700D01*
X150761700Y-94166700D01*
X150761700Y-93346850D01*
X151117300Y-93346850D01*
X151117300Y-94166700D01*
X151837150Y-94166700D01*
X151919700Y-94084150D01*
X151919700Y-93528819D01*
X151869430Y-93407457D01*
X151776543Y-93314570D01*
X151655181Y-93264300D01*
X151199850Y-93264300D01*
X151117300Y-93346850D01*
X150761700Y-93346850D01*
X150679150Y-93264300D01*
X150223819Y-93264300D01*
X150102457Y-93314570D01*
X150009570Y-93407457D01*
X149959300Y-93528819D01*
X147684371Y-93528819D01*
X147701389Y-93435018D01*
X147682920Y-93342164D01*
X148835303Y-93342164D01*
X148871507Y-93449989D01*
X149134982Y-93497789D01*
X149375293Y-93449989D01*
X149411497Y-93342164D01*
X149123400Y-93054067D01*
X148835303Y-93342164D01*
X147682920Y-93342164D01*
X147653589Y-93194707D01*
X147545764Y-93158503D01*
X147257667Y-93446600D01*
X146772733Y-93446600D01*
X146484636Y-93158503D01*
X146376811Y-93194707D01*
X146329011Y-93458182D01*
X139746541Y-93458182D01*
X139769306Y-93448776D01*
X139930211Y-93288151D01*
X140017400Y-93078177D01*
X140017541Y-92916036D01*
X146727103Y-92916036D01*
X147015200Y-93204133D01*
X147303297Y-92916036D01*
X147272120Y-92823182D01*
X148437211Y-92823182D01*
X148485011Y-93063493D01*
X148592836Y-93099697D01*
X148880933Y-92811600D01*
X149365867Y-92811600D01*
X149653964Y-93099697D01*
X149761789Y-93063493D01*
X149809589Y-92800018D01*
X149761789Y-92559707D01*
X149653964Y-92523503D01*
X149365867Y-92811600D01*
X148880933Y-92811600D01*
X148592836Y-92523503D01*
X148485011Y-92559707D01*
X148437211Y-92823182D01*
X147272120Y-92823182D01*
X147267093Y-92808211D01*
X147003618Y-92760411D01*
X146763307Y-92808211D01*
X146727103Y-92916036D01*
X140017541Y-92916036D01*
X140017599Y-92850820D01*
X139930776Y-92640694D01*
X139923794Y-92633700D01*
X140551150Y-92633700D01*
X140633700Y-92551150D01*
X140633700Y-91681300D01*
X140989300Y-91681300D01*
X140989300Y-92551150D01*
X141071850Y-92633700D01*
X141877181Y-92633700D01*
X141998543Y-92583430D01*
X142091430Y-92490543D01*
X142141700Y-92369181D01*
X142141700Y-91763850D01*
X142059150Y-91681300D01*
X140989300Y-91681300D01*
X140633700Y-91681300D01*
X139563850Y-91681300D01*
X139481300Y-91763850D01*
X139481300Y-92369181D01*
X139490975Y-92392539D01*
X139332820Y-92392401D01*
X139313455Y-92400403D01*
X138805078Y-91892026D01*
X138805078Y-91278000D01*
X138789138Y-91193286D01*
X138739072Y-91115482D01*
X138662680Y-91063285D01*
X138572000Y-91044922D01*
X137272000Y-91044922D01*
X137187286Y-91060862D01*
X137109482Y-91110928D01*
X137057285Y-91187320D01*
X137038922Y-91278000D01*
X135820578Y-91278000D01*
X135804638Y-91193286D01*
X135754572Y-91115482D01*
X135678180Y-91063285D01*
X135587500Y-91044922D01*
X134287500Y-91044922D01*
X134202786Y-91060862D01*
X134124982Y-91110928D01*
X134072785Y-91187320D01*
X134054422Y-91278000D01*
X131868578Y-91278000D01*
X131868578Y-90637819D01*
X139481300Y-90637819D01*
X139481300Y-91243150D01*
X139563850Y-91325700D01*
X140633700Y-91325700D01*
X140633700Y-90455850D01*
X140989300Y-90455850D01*
X140989300Y-91325700D01*
X142059150Y-91325700D01*
X142141700Y-91243150D01*
X142141700Y-90703500D01*
X143578422Y-90703500D01*
X143578422Y-92303500D01*
X143594362Y-92388214D01*
X143644428Y-92466018D01*
X143720820Y-92518215D01*
X143811500Y-92536578D01*
X145811500Y-92536578D01*
X145896214Y-92520638D01*
X145974018Y-92470572D01*
X146026215Y-92394180D01*
X146044578Y-92303500D01*
X146044578Y-92281036D01*
X148835303Y-92281036D01*
X149123400Y-92569133D01*
X149315569Y-92376964D01*
X152340503Y-92376964D01*
X152376707Y-92484789D01*
X152640182Y-92532589D01*
X152880493Y-92484789D01*
X152916697Y-92376964D01*
X152628600Y-92088867D01*
X152340503Y-92376964D01*
X149315569Y-92376964D01*
X149411497Y-92281036D01*
X149375293Y-92173211D01*
X149111818Y-92125411D01*
X148871507Y-92173211D01*
X148835303Y-92281036D01*
X146044578Y-92281036D01*
X146044578Y-91857982D01*
X151942411Y-91857982D01*
X151990211Y-92098293D01*
X152098036Y-92134497D01*
X152386133Y-91846400D01*
X152871067Y-91846400D01*
X153159164Y-92134497D01*
X153266989Y-92098293D01*
X153314789Y-91834818D01*
X153266989Y-91594507D01*
X153159164Y-91558303D01*
X152871067Y-91846400D01*
X152386133Y-91846400D01*
X152098036Y-91558303D01*
X151990211Y-91594507D01*
X151942411Y-91857982D01*
X146044578Y-91857982D01*
X146044578Y-91030764D01*
X152213503Y-91030764D01*
X152249707Y-91138589D01*
X152498658Y-91183754D01*
X152376707Y-91208011D01*
X152340503Y-91315836D01*
X152628600Y-91603933D01*
X152916697Y-91315836D01*
X152880493Y-91208011D01*
X152631542Y-91162846D01*
X152753493Y-91138589D01*
X152789697Y-91030764D01*
X152501600Y-90742667D01*
X152213503Y-91030764D01*
X146044578Y-91030764D01*
X146044578Y-90703500D01*
X146028638Y-90618786D01*
X145978572Y-90540982D01*
X145935837Y-90511782D01*
X151815411Y-90511782D01*
X151863211Y-90752093D01*
X151971036Y-90788297D01*
X152259133Y-90500200D01*
X152744067Y-90500200D01*
X153032164Y-90788297D01*
X153139989Y-90752093D01*
X153187789Y-90488618D01*
X153139989Y-90248307D01*
X153032164Y-90212103D01*
X152744067Y-90500200D01*
X152259133Y-90500200D01*
X151971036Y-90212103D01*
X151863211Y-90248307D01*
X151815411Y-90511782D01*
X145935837Y-90511782D01*
X145902180Y-90488785D01*
X145811500Y-90470422D01*
X145741920Y-90470422D01*
X145773725Y-90438617D01*
X145865306Y-90400776D01*
X146026211Y-90240151D01*
X146113400Y-90030177D01*
X146113452Y-89969636D01*
X152213503Y-89969636D01*
X152501600Y-90257733D01*
X152734756Y-90024577D01*
X152880493Y-89995589D01*
X152916697Y-89887764D01*
X152628600Y-89599667D01*
X152395444Y-89832823D01*
X152249707Y-89861811D01*
X152213503Y-89969636D01*
X146113452Y-89969636D01*
X146113599Y-89802820D01*
X146026776Y-89592694D01*
X145866151Y-89431789D01*
X145714414Y-89368782D01*
X151942411Y-89368782D01*
X151990211Y-89609093D01*
X152098036Y-89645297D01*
X152386133Y-89357200D01*
X152871067Y-89357200D01*
X153159164Y-89645297D01*
X153266989Y-89609093D01*
X153314789Y-89345618D01*
X153266989Y-89105307D01*
X153159164Y-89069103D01*
X152871067Y-89357200D01*
X152386133Y-89357200D01*
X152098036Y-89069103D01*
X151990211Y-89105307D01*
X151942411Y-89368782D01*
X145714414Y-89368782D01*
X145656177Y-89344600D01*
X145428820Y-89344401D01*
X145218694Y-89431224D01*
X145057789Y-89591849D01*
X145019430Y-89684228D01*
X144434329Y-90269329D01*
X144318703Y-90442377D01*
X144313124Y-90470422D01*
X143811500Y-90470422D01*
X143726786Y-90486362D01*
X143648982Y-90536428D01*
X143596785Y-90612820D01*
X143578422Y-90703500D01*
X142141700Y-90703500D01*
X142141700Y-90637819D01*
X142091430Y-90516457D01*
X141998543Y-90423570D01*
X141877181Y-90373300D01*
X141071850Y-90373300D01*
X140989300Y-90455850D01*
X140633700Y-90455850D01*
X140551150Y-90373300D01*
X139745819Y-90373300D01*
X139624457Y-90423570D01*
X139531570Y-90516457D01*
X139481300Y-90637819D01*
X131868578Y-90637819D01*
X131868578Y-90449400D01*
X131852638Y-90364686D01*
X131802572Y-90286882D01*
X131726180Y-90234685D01*
X131635500Y-90216322D01*
X129603500Y-90216322D01*
X129518786Y-90232262D01*
X129440982Y-90282328D01*
X129388785Y-90358720D01*
X129370422Y-90449400D01*
X128827600Y-90449400D01*
X128827600Y-89588350D01*
X133957300Y-89588350D01*
X133957300Y-90143681D01*
X134007570Y-90265043D01*
X134100457Y-90357930D01*
X134221819Y-90408200D01*
X134677150Y-90408200D01*
X134759700Y-90325650D01*
X134759700Y-89505800D01*
X135115300Y-89505800D01*
X135115300Y-90325650D01*
X135197850Y-90408200D01*
X135653181Y-90408200D01*
X135774543Y-90357930D01*
X135867430Y-90265043D01*
X135917700Y-90143681D01*
X135917700Y-89588350D01*
X136941800Y-89588350D01*
X136941800Y-90143681D01*
X136992070Y-90265043D01*
X137084957Y-90357930D01*
X137206319Y-90408200D01*
X137661650Y-90408200D01*
X137744200Y-90325650D01*
X137744200Y-89505800D01*
X138099800Y-89505800D01*
X138099800Y-90325650D01*
X138182350Y-90408200D01*
X138637681Y-90408200D01*
X138759043Y-90357930D01*
X138851930Y-90265043D01*
X138902200Y-90143681D01*
X138902200Y-89588350D01*
X138819650Y-89505800D01*
X138099800Y-89505800D01*
X137744200Y-89505800D01*
X137024350Y-89505800D01*
X136941800Y-89588350D01*
X135917700Y-89588350D01*
X135835150Y-89505800D01*
X135115300Y-89505800D01*
X134759700Y-89505800D01*
X134039850Y-89505800D01*
X133957300Y-89588350D01*
X128827600Y-89588350D01*
X128827600Y-88512319D01*
X133957300Y-88512319D01*
X133957300Y-89067650D01*
X134039850Y-89150200D01*
X134759700Y-89150200D01*
X134759700Y-88330350D01*
X135115300Y-88330350D01*
X135115300Y-89150200D01*
X135835150Y-89150200D01*
X135917700Y-89067650D01*
X135917700Y-88512319D01*
X136941800Y-88512319D01*
X136941800Y-89067650D01*
X137024350Y-89150200D01*
X137744200Y-89150200D01*
X137744200Y-88330350D01*
X138099800Y-88330350D01*
X138099800Y-89150200D01*
X138819650Y-89150200D01*
X138902200Y-89067650D01*
X138902200Y-88759180D01*
X139382401Y-88759180D01*
X139469224Y-88969306D01*
X139629849Y-89130211D01*
X139839823Y-89217400D01*
X139889521Y-89217443D01*
X140017500Y-89242901D01*
X140017505Y-89242900D01*
X140351422Y-89242900D01*
X140351422Y-89359500D01*
X140367362Y-89444214D01*
X140417428Y-89522018D01*
X140493820Y-89574215D01*
X140584500Y-89592578D01*
X142084500Y-89592578D01*
X142169214Y-89576638D01*
X142247018Y-89526572D01*
X142299215Y-89450180D01*
X142317578Y-89359500D01*
X142317578Y-88969850D01*
X142954300Y-88969850D01*
X142954300Y-89425181D01*
X143004570Y-89546543D01*
X143097457Y-89639430D01*
X143218819Y-89689700D01*
X143774150Y-89689700D01*
X143856700Y-89607150D01*
X143856700Y-88887300D01*
X144212300Y-88887300D01*
X144212300Y-89607150D01*
X144294850Y-89689700D01*
X144850181Y-89689700D01*
X144971543Y-89639430D01*
X145064430Y-89546543D01*
X145114700Y-89425181D01*
X145114700Y-88969850D01*
X145032150Y-88887300D01*
X144212300Y-88887300D01*
X143856700Y-88887300D01*
X143036850Y-88887300D01*
X142954300Y-88969850D01*
X142317578Y-88969850D01*
X142317578Y-88826636D01*
X152340503Y-88826636D01*
X152628600Y-89114733D01*
X152916697Y-88826636D01*
X152880493Y-88718811D01*
X152617018Y-88671011D01*
X152376707Y-88718811D01*
X152340503Y-88826636D01*
X142317578Y-88826636D01*
X142317578Y-88566964D01*
X145914303Y-88566964D01*
X145950507Y-88674789D01*
X146213982Y-88722589D01*
X146454293Y-88674789D01*
X146490497Y-88566964D01*
X146202400Y-88278867D01*
X145914303Y-88566964D01*
X142317578Y-88566964D01*
X142317578Y-88059500D01*
X142305220Y-87993819D01*
X142954300Y-87993819D01*
X142954300Y-88449150D01*
X143036850Y-88531700D01*
X143856700Y-88531700D01*
X143856700Y-87811850D01*
X144212300Y-87811850D01*
X144212300Y-88531700D01*
X145032150Y-88531700D01*
X145114700Y-88449150D01*
X145114700Y-88047982D01*
X145516211Y-88047982D01*
X145564011Y-88288293D01*
X145671836Y-88324497D01*
X145959933Y-88036400D01*
X146444867Y-88036400D01*
X146732964Y-88324497D01*
X146840789Y-88288293D01*
X146888589Y-88024818D01*
X146840789Y-87784507D01*
X146732964Y-87748303D01*
X146444867Y-88036400D01*
X145959933Y-88036400D01*
X145671836Y-87748303D01*
X145564011Y-87784507D01*
X145516211Y-88047982D01*
X145114700Y-88047982D01*
X145114700Y-87993819D01*
X145064430Y-87872457D01*
X144971543Y-87779570D01*
X144850181Y-87729300D01*
X144294850Y-87729300D01*
X144212300Y-87811850D01*
X143856700Y-87811850D01*
X143774150Y-87729300D01*
X143218819Y-87729300D01*
X143097457Y-87779570D01*
X143004570Y-87872457D01*
X142954300Y-87993819D01*
X142305220Y-87993819D01*
X142301638Y-87974786D01*
X142251572Y-87896982D01*
X142175180Y-87844785D01*
X142084500Y-87826422D01*
X140584500Y-87826422D01*
X140499786Y-87842362D01*
X140421982Y-87892428D01*
X140369785Y-87968820D01*
X140351422Y-88059500D01*
X140351422Y-88176100D01*
X140292437Y-88176100D01*
X140278151Y-88161789D01*
X140068177Y-88074600D01*
X139840820Y-88074401D01*
X139630694Y-88161224D01*
X139469789Y-88321849D01*
X139382600Y-88531823D01*
X139382401Y-88759180D01*
X138902200Y-88759180D01*
X138902200Y-88512319D01*
X138851930Y-88390957D01*
X138759043Y-88298070D01*
X138637681Y-88247800D01*
X138182350Y-88247800D01*
X138099800Y-88330350D01*
X137744200Y-88330350D01*
X137661650Y-88247800D01*
X137206319Y-88247800D01*
X137084957Y-88298070D01*
X136992070Y-88390957D01*
X136941800Y-88512319D01*
X135917700Y-88512319D01*
X135867430Y-88390957D01*
X135774543Y-88298070D01*
X135653181Y-88247800D01*
X135197850Y-88247800D01*
X135115300Y-88330350D01*
X134759700Y-88330350D01*
X134677150Y-88247800D01*
X134221819Y-88247800D01*
X134100457Y-88298070D01*
X134007570Y-88390957D01*
X133957300Y-88512319D01*
X128827600Y-88512319D01*
X128827600Y-86623115D01*
X130751170Y-86623115D01*
X130953011Y-87111608D01*
X131326426Y-87485676D01*
X131814566Y-87688369D01*
X132343115Y-87688830D01*
X132738249Y-87525564D01*
X134992303Y-87525564D01*
X135028507Y-87633389D01*
X135291982Y-87681189D01*
X135532293Y-87633389D01*
X135568497Y-87525564D01*
X136186103Y-87525564D01*
X136222307Y-87633389D01*
X136485782Y-87681189D01*
X136726093Y-87633389D01*
X136762297Y-87525564D01*
X137379903Y-87525564D01*
X137416107Y-87633389D01*
X137679582Y-87681189D01*
X137919893Y-87633389D01*
X137956097Y-87525564D01*
X137936369Y-87505836D01*
X145914303Y-87505836D01*
X146202400Y-87793933D01*
X146490497Y-87505836D01*
X146454293Y-87398011D01*
X146190818Y-87350211D01*
X145950507Y-87398011D01*
X145914303Y-87505836D01*
X137936369Y-87505836D01*
X137668000Y-87237467D01*
X137379903Y-87525564D01*
X136762297Y-87525564D01*
X136474200Y-87237467D01*
X136186103Y-87525564D01*
X135568497Y-87525564D01*
X135280400Y-87237467D01*
X134992303Y-87525564D01*
X132738249Y-87525564D01*
X132831608Y-87486989D01*
X133205676Y-87113574D01*
X133250102Y-87006582D01*
X134594211Y-87006582D01*
X134642011Y-87246893D01*
X134749836Y-87283097D01*
X135037933Y-86995000D01*
X135522867Y-86995000D01*
X135810964Y-87283097D01*
X135877300Y-87260824D01*
X135943636Y-87283097D01*
X136231733Y-86995000D01*
X136716667Y-86995000D01*
X137004764Y-87283097D01*
X137071100Y-87260824D01*
X137137436Y-87283097D01*
X137425533Y-86995000D01*
X137910467Y-86995000D01*
X138198564Y-87283097D01*
X138306389Y-87246893D01*
X138354189Y-86983418D01*
X138306389Y-86743107D01*
X138198564Y-86706903D01*
X137910467Y-86995000D01*
X137425533Y-86995000D01*
X137137436Y-86706903D01*
X137071100Y-86729176D01*
X137004764Y-86706903D01*
X136716667Y-86995000D01*
X136231733Y-86995000D01*
X135943636Y-86706903D01*
X135877300Y-86729176D01*
X135810964Y-86706903D01*
X135522867Y-86995000D01*
X135037933Y-86995000D01*
X134749836Y-86706903D01*
X134642011Y-86743107D01*
X134594211Y-87006582D01*
X133250102Y-87006582D01*
X133408369Y-86625434D01*
X133408735Y-86204764D01*
X134941503Y-86204764D01*
X134977707Y-86312589D01*
X135120022Y-86338408D01*
X135028507Y-86356611D01*
X134992303Y-86464436D01*
X135280400Y-86752533D01*
X135568497Y-86464436D01*
X135532293Y-86356611D01*
X135389978Y-86330792D01*
X135481493Y-86312589D01*
X135517697Y-86204764D01*
X136135303Y-86204764D01*
X136171507Y-86312589D01*
X136313822Y-86338408D01*
X136222307Y-86356611D01*
X136186103Y-86464436D01*
X136474200Y-86752533D01*
X136762297Y-86464436D01*
X136726093Y-86356611D01*
X136583778Y-86330792D01*
X136675293Y-86312589D01*
X136711497Y-86204764D01*
X137329103Y-86204764D01*
X137365307Y-86312589D01*
X137507622Y-86338408D01*
X137416107Y-86356611D01*
X137379903Y-86464436D01*
X137668000Y-86752533D01*
X137956097Y-86464436D01*
X137919893Y-86356611D01*
X137777578Y-86330792D01*
X137869093Y-86312589D01*
X137905297Y-86204764D01*
X137617200Y-85916667D01*
X137329103Y-86204764D01*
X136711497Y-86204764D01*
X136423400Y-85916667D01*
X136135303Y-86204764D01*
X135517697Y-86204764D01*
X135229600Y-85916667D01*
X134941503Y-86204764D01*
X133408735Y-86204764D01*
X133408830Y-86096885D01*
X133238966Y-85685782D01*
X134543411Y-85685782D01*
X134591211Y-85926093D01*
X134699036Y-85962297D01*
X134987133Y-85674200D01*
X135472067Y-85674200D01*
X135760164Y-85962297D01*
X135826500Y-85940024D01*
X135892836Y-85962297D01*
X136180933Y-85674200D01*
X136665867Y-85674200D01*
X136953964Y-85962297D01*
X137020300Y-85940024D01*
X137086636Y-85962297D01*
X137374733Y-85674200D01*
X137859667Y-85674200D01*
X138147764Y-85962297D01*
X138255589Y-85926093D01*
X138290919Y-85731350D01*
X138823700Y-85731350D01*
X138823700Y-86552681D01*
X138873970Y-86674043D01*
X138966857Y-86766930D01*
X139088219Y-86817200D01*
X139757150Y-86817200D01*
X139839700Y-86734650D01*
X139839700Y-85648800D01*
X140195300Y-85648800D01*
X140195300Y-86734650D01*
X140277850Y-86817200D01*
X140946781Y-86817200D01*
X141068143Y-86766930D01*
X141161030Y-86674043D01*
X141211300Y-86552681D01*
X141211300Y-85731350D01*
X141128750Y-85648800D01*
X140195300Y-85648800D01*
X139839700Y-85648800D01*
X138906250Y-85648800D01*
X138823700Y-85731350D01*
X138290919Y-85731350D01*
X138303389Y-85662618D01*
X138255589Y-85422307D01*
X138147764Y-85386103D01*
X137859667Y-85674200D01*
X137374733Y-85674200D01*
X137086636Y-85386103D01*
X137020300Y-85408376D01*
X136953964Y-85386103D01*
X136665867Y-85674200D01*
X136180933Y-85674200D01*
X135892836Y-85386103D01*
X135826500Y-85408376D01*
X135760164Y-85386103D01*
X135472067Y-85674200D01*
X134987133Y-85674200D01*
X134699036Y-85386103D01*
X134591211Y-85422307D01*
X134543411Y-85685782D01*
X133238966Y-85685782D01*
X133206989Y-85608392D01*
X132833574Y-85234324D01*
X132345434Y-85031631D01*
X131816885Y-85031170D01*
X131328392Y-85233011D01*
X130954324Y-85606426D01*
X130751631Y-86094566D01*
X130751170Y-86623115D01*
X128827600Y-86623115D01*
X128827600Y-84934764D01*
X134839903Y-84934764D01*
X134876107Y-85042589D01*
X134969728Y-85059574D01*
X134941503Y-85143636D01*
X135229600Y-85431733D01*
X135517697Y-85143636D01*
X135481493Y-85035811D01*
X135387872Y-85018826D01*
X135416097Y-84934764D01*
X136033703Y-84934764D01*
X136069907Y-85042589D01*
X136163528Y-85059574D01*
X136135303Y-85143636D01*
X136423400Y-85431733D01*
X136711497Y-85143636D01*
X136675293Y-85035811D01*
X136581672Y-85018826D01*
X136609897Y-84934764D01*
X137227503Y-84934764D01*
X137263707Y-85042589D01*
X137357328Y-85059574D01*
X137329103Y-85143636D01*
X137617200Y-85431733D01*
X137754716Y-85294217D01*
X141465300Y-85294217D01*
X141465300Y-85647783D01*
X141548439Y-86065750D01*
X141785198Y-86420085D01*
X142139533Y-86656844D01*
X142557500Y-86739983D01*
X142975467Y-86656844D01*
X143329802Y-86420085D01*
X143566561Y-86065750D01*
X143649700Y-85647783D01*
X143649700Y-85294217D01*
X144005300Y-85294217D01*
X144005300Y-85647783D01*
X144088439Y-86065750D01*
X144325198Y-86420085D01*
X144679533Y-86656844D01*
X145097500Y-86739983D01*
X145515467Y-86656844D01*
X145565946Y-86623115D01*
X149801170Y-86623115D01*
X150003011Y-87111608D01*
X150376426Y-87485676D01*
X150864566Y-87688369D01*
X151393115Y-87688830D01*
X151881608Y-87486989D01*
X152255676Y-87113574D01*
X152458369Y-86625434D01*
X152458830Y-86096885D01*
X152256989Y-85608392D01*
X151883574Y-85234324D01*
X151395434Y-85031631D01*
X150866885Y-85031170D01*
X150378392Y-85233011D01*
X150004324Y-85606426D01*
X149801631Y-86094566D01*
X149801170Y-86623115D01*
X145565946Y-86623115D01*
X145869802Y-86420085D01*
X145928816Y-86331764D01*
X147616103Y-86331764D01*
X147652307Y-86439589D01*
X147915782Y-86487389D01*
X148156093Y-86439589D01*
X148192297Y-86331764D01*
X147904200Y-86043667D01*
X147616103Y-86331764D01*
X145928816Y-86331764D01*
X146106561Y-86065750D01*
X146156879Y-85812782D01*
X147218011Y-85812782D01*
X147265811Y-86053093D01*
X147373636Y-86089297D01*
X147661733Y-85801200D01*
X148146667Y-85801200D01*
X148434764Y-86089297D01*
X148542589Y-86053093D01*
X148590389Y-85789618D01*
X148542589Y-85549307D01*
X148434764Y-85513103D01*
X148146667Y-85801200D01*
X147661733Y-85801200D01*
X147373636Y-85513103D01*
X147265811Y-85549307D01*
X147218011Y-85812782D01*
X146156879Y-85812782D01*
X146189700Y-85647783D01*
X146189700Y-85294217D01*
X146185010Y-85270636D01*
X147616103Y-85270636D01*
X147904200Y-85558733D01*
X148192297Y-85270636D01*
X148156093Y-85162811D01*
X147892618Y-85115011D01*
X147652307Y-85162811D01*
X147616103Y-85270636D01*
X146185010Y-85270636D01*
X146118201Y-84934764D01*
X147666903Y-84934764D01*
X147703107Y-85042589D01*
X147966582Y-85090389D01*
X148206893Y-85042589D01*
X148243097Y-84934764D01*
X147955000Y-84646667D01*
X147666903Y-84934764D01*
X146118201Y-84934764D01*
X146106561Y-84876250D01*
X145869802Y-84521915D01*
X145710963Y-84415782D01*
X147268811Y-84415782D01*
X147316611Y-84656093D01*
X147424436Y-84692297D01*
X147712533Y-84404200D01*
X148197467Y-84404200D01*
X148485564Y-84692297D01*
X148593389Y-84656093D01*
X148641189Y-84392618D01*
X148593389Y-84152307D01*
X148485564Y-84116103D01*
X148197467Y-84404200D01*
X147712533Y-84404200D01*
X147424436Y-84116103D01*
X147316611Y-84152307D01*
X147268811Y-84415782D01*
X145710963Y-84415782D01*
X145515467Y-84285156D01*
X145097500Y-84202017D01*
X144679533Y-84285156D01*
X144325198Y-84521915D01*
X144088439Y-84876250D01*
X144005300Y-85294217D01*
X143649700Y-85294217D01*
X143566561Y-84876250D01*
X143329802Y-84521915D01*
X142975467Y-84285156D01*
X142557500Y-84202017D01*
X142139533Y-84285156D01*
X141785198Y-84521915D01*
X141548439Y-84876250D01*
X141465300Y-85294217D01*
X137754716Y-85294217D01*
X137905297Y-85143636D01*
X137869093Y-85035811D01*
X137775472Y-85018826D01*
X137803697Y-84934764D01*
X137515600Y-84646667D01*
X137227503Y-84934764D01*
X136609897Y-84934764D01*
X136321800Y-84646667D01*
X136033703Y-84934764D01*
X135416097Y-84934764D01*
X135128000Y-84646667D01*
X134839903Y-84934764D01*
X128827600Y-84934764D01*
X128827600Y-84415782D01*
X134441811Y-84415782D01*
X134489611Y-84656093D01*
X134597436Y-84692297D01*
X134885533Y-84404200D01*
X135370467Y-84404200D01*
X135658564Y-84692297D01*
X135724900Y-84670024D01*
X135791236Y-84692297D01*
X136079333Y-84404200D01*
X136564267Y-84404200D01*
X136852364Y-84692297D01*
X136918700Y-84670024D01*
X136985036Y-84692297D01*
X137273133Y-84404200D01*
X137758067Y-84404200D01*
X138046164Y-84692297D01*
X138153989Y-84656093D01*
X138201789Y-84392618D01*
X138201133Y-84389319D01*
X138823700Y-84389319D01*
X138823700Y-85210650D01*
X138906250Y-85293200D01*
X139839700Y-85293200D01*
X139839700Y-84207350D01*
X140195300Y-84207350D01*
X140195300Y-85293200D01*
X141128750Y-85293200D01*
X141211300Y-85210650D01*
X141211300Y-84389319D01*
X141161030Y-84267957D01*
X141068143Y-84175070D01*
X140946781Y-84124800D01*
X140277850Y-84124800D01*
X140195300Y-84207350D01*
X139839700Y-84207350D01*
X139757150Y-84124800D01*
X139088219Y-84124800D01*
X138966857Y-84175070D01*
X138873970Y-84267957D01*
X138823700Y-84389319D01*
X138201133Y-84389319D01*
X138153989Y-84152307D01*
X138046164Y-84116103D01*
X137758067Y-84404200D01*
X137273133Y-84404200D01*
X136985036Y-84116103D01*
X136918700Y-84138376D01*
X136852364Y-84116103D01*
X136564267Y-84404200D01*
X136079333Y-84404200D01*
X135791236Y-84116103D01*
X135724900Y-84138376D01*
X135658564Y-84116103D01*
X135370467Y-84404200D01*
X134885533Y-84404200D01*
X134597436Y-84116103D01*
X134489611Y-84152307D01*
X134441811Y-84415782D01*
X128827600Y-84415782D01*
X128827600Y-83873636D01*
X134839903Y-83873636D01*
X135128000Y-84161733D01*
X135416097Y-83873636D01*
X136033703Y-83873636D01*
X136321800Y-84161733D01*
X136609897Y-83873636D01*
X137227503Y-83873636D01*
X137515600Y-84161733D01*
X137803697Y-83873636D01*
X147666903Y-83873636D01*
X147955000Y-84161733D01*
X148243097Y-83873636D01*
X148206893Y-83765811D01*
X147943418Y-83718011D01*
X147703107Y-83765811D01*
X147666903Y-83873636D01*
X137803697Y-83873636D01*
X137767493Y-83765811D01*
X137504018Y-83718011D01*
X137263707Y-83765811D01*
X137227503Y-83873636D01*
X136609897Y-83873636D01*
X136573693Y-83765811D01*
X136310218Y-83718011D01*
X136069907Y-83765811D01*
X136033703Y-83873636D01*
X135416097Y-83873636D01*
X135379893Y-83765811D01*
X135116418Y-83718011D01*
X134876107Y-83765811D01*
X134839903Y-83873636D01*
X128827600Y-83873636D01*
X128827600Y-83615600D01*
X153620400Y-83615600D01*
X153620400Y-106884400D01*
X153620400Y-106884400D01*
G37*
X153620400Y-106884400D02*
X128827600Y-106884400D01*
X128827600Y-106600964D01*
X145761903Y-106600964D01*
X145798107Y-106708789D01*
X146061582Y-106756589D01*
X146301893Y-106708789D01*
X146338097Y-106600964D01*
X147031903Y-106600964D01*
X147068107Y-106708789D01*
X147331582Y-106756589D01*
X147571893Y-106708789D01*
X147608097Y-106600964D01*
X147320000Y-106312867D01*
X147031903Y-106600964D01*
X146338097Y-106600964D01*
X146050000Y-106312867D01*
X145761903Y-106600964D01*
X128827600Y-106600964D01*
X128827600Y-105559564D01*
X134890703Y-105559564D01*
X134926907Y-105667389D01*
X135190382Y-105715189D01*
X135430693Y-105667389D01*
X135466897Y-105559564D01*
X136160703Y-105559564D01*
X136196907Y-105667389D01*
X136460382Y-105715189D01*
X136700693Y-105667389D01*
X136736897Y-105559564D01*
X137405303Y-105559564D01*
X137441507Y-105667389D01*
X137704982Y-105715189D01*
X137945293Y-105667389D01*
X137981497Y-105559564D01*
X137693400Y-105271467D01*
X137405303Y-105559564D01*
X136736897Y-105559564D01*
X136448800Y-105271467D01*
X136160703Y-105559564D01*
X135466897Y-105559564D01*
X135178800Y-105271467D01*
X134890703Y-105559564D01*
X128827600Y-105559564D01*
X128827600Y-104403115D01*
X130751170Y-104403115D01*
X130953011Y-104891608D01*
X131326426Y-105265676D01*
X131814566Y-105468369D01*
X132343115Y-105468830D01*
X132831608Y-105266989D01*
X133058410Y-105040582D01*
X134492611Y-105040582D01*
X134540411Y-105280893D01*
X134648236Y-105317097D01*
X134936333Y-105029000D01*
X135421267Y-105029000D01*
X135709364Y-105317097D01*
X135813800Y-105282031D01*
X135918236Y-105317097D01*
X136206333Y-105029000D01*
X136691267Y-105029000D01*
X136979364Y-105317097D01*
X137071100Y-105286295D01*
X137162836Y-105317097D01*
X137450933Y-105029000D01*
X137935867Y-105029000D01*
X138223964Y-105317097D01*
X138331789Y-105280893D01*
X138379589Y-105017418D01*
X138331789Y-104777107D01*
X138223964Y-104740903D01*
X137935867Y-105029000D01*
X137450933Y-105029000D01*
X137162836Y-104740903D01*
X137071100Y-104771705D01*
X136979364Y-104740903D01*
X136691267Y-105029000D01*
X136206333Y-105029000D01*
X135918236Y-104740903D01*
X135813800Y-104775969D01*
X135709364Y-104740903D01*
X135421267Y-105029000D01*
X134936333Y-105029000D01*
X134648236Y-104740903D01*
X134540411Y-104777107D01*
X134492611Y-105040582D01*
X133058410Y-105040582D01*
X133205676Y-104893574D01*
X133369751Y-104498436D01*
X134890703Y-104498436D01*
X135178800Y-104786533D01*
X135466897Y-104498436D01*
X136160703Y-104498436D01*
X136448800Y-104786533D01*
X136736897Y-104498436D01*
X137405303Y-104498436D01*
X137693400Y-104786533D01*
X137981497Y-104498436D01*
X137945293Y-104390611D01*
X137681818Y-104342811D01*
X137441507Y-104390611D01*
X137405303Y-104498436D01*
X136736897Y-104498436D01*
X136700693Y-104390611D01*
X136437218Y-104342811D01*
X136196907Y-104390611D01*
X136160703Y-104498436D01*
X135466897Y-104498436D01*
X135430693Y-104390611D01*
X135167218Y-104342811D01*
X134926907Y-104390611D01*
X134890703Y-104498436D01*
X133369751Y-104498436D01*
X133408369Y-104405434D01*
X133408625Y-104111764D01*
X134966903Y-104111764D01*
X135003107Y-104219589D01*
X135266582Y-104267389D01*
X135506893Y-104219589D01*
X135543097Y-104111764D01*
X136236903Y-104111764D01*
X136273107Y-104219589D01*
X136536582Y-104267389D01*
X136776893Y-104219589D01*
X136813097Y-104111764D01*
X137481503Y-104111764D01*
X137517707Y-104219589D01*
X137781182Y-104267389D01*
X138021493Y-104219589D01*
X138057697Y-104111764D01*
X138022433Y-104076500D01*
X139276422Y-104076500D01*
X139276422Y-106108500D01*
X139292362Y-106193214D01*
X139342428Y-106271018D01*
X139418820Y-106323215D01*
X139509500Y-106341578D01*
X141541500Y-106341578D01*
X141626214Y-106325638D01*
X141704018Y-106275572D01*
X141756215Y-106199180D01*
X141774578Y-106108500D01*
X141774578Y-105068117D01*
X141820900Y-105068117D01*
X141820900Y-105116883D01*
X141915640Y-105593171D01*
X142185435Y-105996948D01*
X142589212Y-106266743D01*
X143065500Y-106361483D01*
X143541788Y-106266743D01*
X143818302Y-106081982D01*
X145363811Y-106081982D01*
X145411611Y-106322293D01*
X145519436Y-106358497D01*
X145807533Y-106070400D01*
X146292467Y-106070400D01*
X146580564Y-106358497D01*
X146685000Y-106323431D01*
X146789436Y-106358497D01*
X147077533Y-106070400D01*
X147562467Y-106070400D01*
X147850564Y-106358497D01*
X147958389Y-106322293D01*
X148006189Y-106058818D01*
X147958389Y-105818507D01*
X147850564Y-105782303D01*
X147562467Y-106070400D01*
X147077533Y-106070400D01*
X146789436Y-105782303D01*
X146685000Y-105817369D01*
X146580564Y-105782303D01*
X146292467Y-106070400D01*
X145807533Y-106070400D01*
X145519436Y-105782303D01*
X145411611Y-105818507D01*
X145363811Y-106081982D01*
X143818302Y-106081982D01*
X143945565Y-105996948D01*
X144215360Y-105593171D01*
X144267516Y-105330964D01*
X145761903Y-105330964D01*
X145796969Y-105435400D01*
X145761903Y-105539836D01*
X146050000Y-105827933D01*
X146338097Y-105539836D01*
X146303031Y-105435400D01*
X146338097Y-105330964D01*
X147031903Y-105330964D01*
X147066969Y-105435400D01*
X147031903Y-105539836D01*
X147320000Y-105827933D01*
X147608097Y-105539836D01*
X147573031Y-105435400D01*
X147608097Y-105330964D01*
X147320000Y-105042867D01*
X147031903Y-105330964D01*
X146338097Y-105330964D01*
X146050000Y-105042867D01*
X145761903Y-105330964D01*
X144267516Y-105330964D01*
X144310100Y-105116883D01*
X144310100Y-105068117D01*
X144259152Y-104811982D01*
X145363811Y-104811982D01*
X145411611Y-105052293D01*
X145519436Y-105088497D01*
X145807533Y-104800400D01*
X146292467Y-104800400D01*
X146580564Y-105088497D01*
X146685000Y-105053431D01*
X146789436Y-105088497D01*
X147077533Y-104800400D01*
X147562467Y-104800400D01*
X147850564Y-105088497D01*
X147958389Y-105052293D01*
X148006189Y-104788818D01*
X147958389Y-104548507D01*
X147850564Y-104512303D01*
X147562467Y-104800400D01*
X147077533Y-104800400D01*
X146789436Y-104512303D01*
X146685000Y-104547369D01*
X146580564Y-104512303D01*
X146292467Y-104800400D01*
X145807533Y-104800400D01*
X145519436Y-104512303D01*
X145411611Y-104548507D01*
X145363811Y-104811982D01*
X144259152Y-104811982D01*
X144215360Y-104591829D01*
X143945565Y-104188052D01*
X143831392Y-104111764D01*
X145761903Y-104111764D01*
X145788441Y-104190800D01*
X145761903Y-104269836D01*
X146050000Y-104557933D01*
X146338097Y-104269836D01*
X146311559Y-104190800D01*
X146338097Y-104111764D01*
X147031903Y-104111764D01*
X147058441Y-104190800D01*
X147031903Y-104269836D01*
X147320000Y-104557933D01*
X147474818Y-104403115D01*
X149801170Y-104403115D01*
X150003011Y-104891608D01*
X150376426Y-105265676D01*
X150864566Y-105468369D01*
X151393115Y-105468830D01*
X151881608Y-105266989D01*
X152255676Y-104893574D01*
X152458369Y-104405434D01*
X152458830Y-103876885D01*
X152256989Y-103388392D01*
X151883574Y-103014324D01*
X151395434Y-102811631D01*
X150866885Y-102811170D01*
X150378392Y-103013011D01*
X150004324Y-103386426D01*
X149801631Y-103874566D01*
X149801170Y-104403115D01*
X147474818Y-104403115D01*
X147608097Y-104269836D01*
X147581559Y-104190800D01*
X147608097Y-104111764D01*
X147320000Y-103823667D01*
X147031903Y-104111764D01*
X146338097Y-104111764D01*
X146050000Y-103823667D01*
X145761903Y-104111764D01*
X143831392Y-104111764D01*
X143541788Y-103918257D01*
X143065500Y-103823517D01*
X142589212Y-103918257D01*
X142185435Y-104188052D01*
X141915640Y-104591829D01*
X141820900Y-105068117D01*
X141774578Y-105068117D01*
X141774578Y-104076500D01*
X141758638Y-103991786D01*
X141708572Y-103913982D01*
X141632180Y-103861785D01*
X141541500Y-103843422D01*
X139509500Y-103843422D01*
X139424786Y-103859362D01*
X139346982Y-103909428D01*
X139294785Y-103985820D01*
X139276422Y-104076500D01*
X138022433Y-104076500D01*
X137769600Y-103823667D01*
X137481503Y-104111764D01*
X136813097Y-104111764D01*
X136525000Y-103823667D01*
X136236903Y-104111764D01*
X135543097Y-104111764D01*
X135255000Y-103823667D01*
X134966903Y-104111764D01*
X133408625Y-104111764D01*
X133408830Y-103876885D01*
X133291442Y-103592782D01*
X134568811Y-103592782D01*
X134616611Y-103833093D01*
X134724436Y-103869297D01*
X135012533Y-103581200D01*
X135497467Y-103581200D01*
X135785564Y-103869297D01*
X135890000Y-103834231D01*
X135994436Y-103869297D01*
X136282533Y-103581200D01*
X136767467Y-103581200D01*
X137055564Y-103869297D01*
X137147300Y-103838495D01*
X137239036Y-103869297D01*
X137527133Y-103581200D01*
X138012067Y-103581200D01*
X138300164Y-103869297D01*
X138407989Y-103833093D01*
X138455789Y-103569618D01*
X138432268Y-103451364D01*
X141469303Y-103451364D01*
X141505507Y-103559189D01*
X141768982Y-103606989D01*
X141840406Y-103592782D01*
X145363811Y-103592782D01*
X145411611Y-103833093D01*
X145519436Y-103869297D01*
X145807533Y-103581200D01*
X146292467Y-103581200D01*
X146580564Y-103869297D01*
X146685000Y-103834231D01*
X146789436Y-103869297D01*
X147077533Y-103581200D01*
X147562467Y-103581200D01*
X147850564Y-103869297D01*
X147958389Y-103833093D01*
X148006189Y-103569618D01*
X147958389Y-103329307D01*
X147850564Y-103293103D01*
X147562467Y-103581200D01*
X147077533Y-103581200D01*
X146789436Y-103293103D01*
X146685000Y-103328169D01*
X146580564Y-103293103D01*
X146292467Y-103581200D01*
X145807533Y-103581200D01*
X145519436Y-103293103D01*
X145411611Y-103329307D01*
X145363811Y-103592782D01*
X141840406Y-103592782D01*
X142009293Y-103559189D01*
X142045497Y-103451364D01*
X141757400Y-103163267D01*
X141469303Y-103451364D01*
X138432268Y-103451364D01*
X138407989Y-103329307D01*
X138300164Y-103293103D01*
X138012067Y-103581200D01*
X137527133Y-103581200D01*
X137239036Y-103293103D01*
X137147300Y-103323905D01*
X137055564Y-103293103D01*
X136767467Y-103581200D01*
X136282533Y-103581200D01*
X135994436Y-103293103D01*
X135890000Y-103328169D01*
X135785564Y-103293103D01*
X135497467Y-103581200D01*
X135012533Y-103581200D01*
X134724436Y-103293103D01*
X134616611Y-103329307D01*
X134568811Y-103592782D01*
X133291442Y-103592782D01*
X133206989Y-103388392D01*
X132833574Y-103014324D01*
X132345434Y-102811631D01*
X131816885Y-102811170D01*
X131328392Y-103013011D01*
X130954324Y-103386426D01*
X130751631Y-103874566D01*
X130751170Y-104403115D01*
X128827600Y-104403115D01*
X128827600Y-102765564D01*
X134966903Y-102765564D01*
X135003107Y-102873389D01*
X135185638Y-102906504D01*
X135003107Y-102942811D01*
X134966903Y-103050636D01*
X135255000Y-103338733D01*
X135543097Y-103050636D01*
X136236903Y-103050636D01*
X136525000Y-103338733D01*
X136813097Y-103050636D01*
X137481503Y-103050636D01*
X137769600Y-103338733D01*
X138057697Y-103050636D01*
X138021493Y-102942811D01*
X137964009Y-102932382D01*
X141071211Y-102932382D01*
X141119011Y-103172693D01*
X141226836Y-103208897D01*
X141514933Y-102920800D01*
X141999867Y-102920800D01*
X142287964Y-103208897D01*
X142395789Y-103172693D01*
X142443589Y-102909218D01*
X142430172Y-102841764D01*
X145761903Y-102841764D01*
X145796969Y-102946200D01*
X145761903Y-103050636D01*
X146050000Y-103338733D01*
X146338097Y-103050636D01*
X146303031Y-102946200D01*
X146338097Y-102841764D01*
X147031903Y-102841764D01*
X147066969Y-102946200D01*
X147031903Y-103050636D01*
X147320000Y-103338733D01*
X147608097Y-103050636D01*
X147573031Y-102946200D01*
X147608097Y-102841764D01*
X148276503Y-102841764D01*
X148312707Y-102949589D01*
X148576182Y-102997389D01*
X148816493Y-102949589D01*
X148852697Y-102841764D01*
X148564600Y-102553667D01*
X148276503Y-102841764D01*
X147608097Y-102841764D01*
X147320000Y-102553667D01*
X147031903Y-102841764D01*
X146338097Y-102841764D01*
X146050000Y-102553667D01*
X145761903Y-102841764D01*
X142430172Y-102841764D01*
X142395789Y-102668907D01*
X142287964Y-102632703D01*
X141999867Y-102920800D01*
X141514933Y-102920800D01*
X141226836Y-102632703D01*
X141119011Y-102668907D01*
X141071211Y-102932382D01*
X137964009Y-102932382D01*
X137758018Y-102895011D01*
X137517707Y-102942811D01*
X137481503Y-103050636D01*
X136813097Y-103050636D01*
X136776893Y-102942811D01*
X136513418Y-102895011D01*
X136273107Y-102942811D01*
X136236903Y-103050636D01*
X135543097Y-103050636D01*
X135506893Y-102942811D01*
X135324362Y-102909696D01*
X135506893Y-102873389D01*
X135543097Y-102765564D01*
X135517697Y-102740164D01*
X136490903Y-102740164D01*
X136527107Y-102847989D01*
X136790582Y-102895789D01*
X137030893Y-102847989D01*
X137067097Y-102740164D01*
X137760903Y-102740164D01*
X137797107Y-102847989D01*
X138060582Y-102895789D01*
X138300893Y-102847989D01*
X138337097Y-102740164D01*
X139005503Y-102740164D01*
X139041707Y-102847989D01*
X139305182Y-102895789D01*
X139545493Y-102847989D01*
X139581697Y-102740164D01*
X139293600Y-102452067D01*
X139005503Y-102740164D01*
X138337097Y-102740164D01*
X138049000Y-102452067D01*
X137760903Y-102740164D01*
X137067097Y-102740164D01*
X136779000Y-102452067D01*
X136490903Y-102740164D01*
X135517697Y-102740164D01*
X135255000Y-102477467D01*
X134966903Y-102765564D01*
X128827600Y-102765564D01*
X128827600Y-102246582D01*
X134568811Y-102246582D01*
X134616611Y-102486893D01*
X134724436Y-102523097D01*
X135012533Y-102235000D01*
X135497467Y-102235000D01*
X135785564Y-102523097D01*
X135893389Y-102486893D01*
X135941189Y-102223418D01*
X135940745Y-102221182D01*
X136092811Y-102221182D01*
X136140611Y-102461493D01*
X136248436Y-102497697D01*
X136536533Y-102209600D01*
X137021467Y-102209600D01*
X137309564Y-102497697D01*
X137414000Y-102462631D01*
X137518436Y-102497697D01*
X137806533Y-102209600D01*
X138291467Y-102209600D01*
X138579564Y-102497697D01*
X138671300Y-102466895D01*
X138763036Y-102497697D01*
X139051133Y-102209600D01*
X139536067Y-102209600D01*
X139824164Y-102497697D01*
X139931989Y-102461493D01*
X139944916Y-102390236D01*
X141469303Y-102390236D01*
X141757400Y-102678333D01*
X142045497Y-102390236D01*
X142022849Y-102322782D01*
X145363811Y-102322782D01*
X145411611Y-102563093D01*
X145519436Y-102599297D01*
X145807533Y-102311200D01*
X146292467Y-102311200D01*
X146580564Y-102599297D01*
X146685000Y-102564231D01*
X146789436Y-102599297D01*
X147077533Y-102311200D01*
X147562467Y-102311200D01*
X147850564Y-102599297D01*
X147942300Y-102568495D01*
X148034036Y-102599297D01*
X148322133Y-102311200D01*
X148807067Y-102311200D01*
X149095164Y-102599297D01*
X149202989Y-102563093D01*
X149250789Y-102299618D01*
X149202989Y-102059307D01*
X149095164Y-102023103D01*
X148807067Y-102311200D01*
X148322133Y-102311200D01*
X148034036Y-102023103D01*
X147942300Y-102053905D01*
X147850564Y-102023103D01*
X147562467Y-102311200D01*
X147077533Y-102311200D01*
X146789436Y-102023103D01*
X146685000Y-102058169D01*
X146580564Y-102023103D01*
X146292467Y-102311200D01*
X145807533Y-102311200D01*
X145519436Y-102023103D01*
X145411611Y-102059307D01*
X145363811Y-102322782D01*
X142022849Y-102322782D01*
X142009293Y-102282411D01*
X141745818Y-102234611D01*
X141505507Y-102282411D01*
X141469303Y-102390236D01*
X139944916Y-102390236D01*
X139979789Y-102198018D01*
X139931989Y-101957707D01*
X139824164Y-101921503D01*
X139536067Y-102209600D01*
X139051133Y-102209600D01*
X138763036Y-101921503D01*
X138671300Y-101952305D01*
X138579564Y-101921503D01*
X138291467Y-102209600D01*
X137806533Y-102209600D01*
X137518436Y-101921503D01*
X137414000Y-101956569D01*
X137309564Y-101921503D01*
X137021467Y-102209600D01*
X136536533Y-102209600D01*
X136248436Y-101921503D01*
X136140611Y-101957707D01*
X136092811Y-102221182D01*
X135940745Y-102221182D01*
X135893389Y-101983107D01*
X135785564Y-101946903D01*
X135497467Y-102235000D01*
X135012533Y-102235000D01*
X134724436Y-101946903D01*
X134616611Y-101983107D01*
X134568811Y-102246582D01*
X128827600Y-102246582D01*
X128827600Y-101876564D01*
X129480503Y-101876564D01*
X129516707Y-101984389D01*
X129780182Y-102032189D01*
X130020493Y-101984389D01*
X130056697Y-101876564D01*
X129768600Y-101588467D01*
X129480503Y-101876564D01*
X128827600Y-101876564D01*
X128827600Y-101357582D01*
X129082411Y-101357582D01*
X129130211Y-101597893D01*
X129238036Y-101634097D01*
X129526133Y-101346000D01*
X130011067Y-101346000D01*
X130299164Y-101634097D01*
X130406989Y-101597893D01*
X130411729Y-101571764D01*
X133265103Y-101571764D01*
X133301307Y-101679589D01*
X133564782Y-101727389D01*
X133680176Y-101704436D01*
X134966903Y-101704436D01*
X135255000Y-101992533D01*
X135543097Y-101704436D01*
X135534569Y-101679036D01*
X136490903Y-101679036D01*
X136779000Y-101967133D01*
X137067097Y-101679036D01*
X137760903Y-101679036D01*
X138049000Y-101967133D01*
X138337097Y-101679036D01*
X139005503Y-101679036D01*
X139293600Y-101967133D01*
X139358769Y-101901964D01*
X141342303Y-101901964D01*
X141378507Y-102009789D01*
X141641982Y-102057589D01*
X141882293Y-102009789D01*
X141918497Y-101901964D01*
X141630400Y-101613867D01*
X141342303Y-101901964D01*
X139358769Y-101901964D01*
X139581697Y-101679036D01*
X139545493Y-101571211D01*
X139282018Y-101523411D01*
X139041707Y-101571211D01*
X139005503Y-101679036D01*
X138337097Y-101679036D01*
X138300893Y-101571211D01*
X138037418Y-101523411D01*
X137797107Y-101571211D01*
X137760903Y-101679036D01*
X137067097Y-101679036D01*
X137030893Y-101571211D01*
X136767418Y-101523411D01*
X136527107Y-101571211D01*
X136490903Y-101679036D01*
X135534569Y-101679036D01*
X135506893Y-101596611D01*
X135243418Y-101548811D01*
X135003107Y-101596611D01*
X134966903Y-101704436D01*
X133680176Y-101704436D01*
X133805093Y-101679589D01*
X133841297Y-101571764D01*
X133652515Y-101382982D01*
X140944211Y-101382982D01*
X140992011Y-101623293D01*
X141099836Y-101659497D01*
X141387933Y-101371400D01*
X141872867Y-101371400D01*
X142160964Y-101659497D01*
X142268789Y-101623293D01*
X142291961Y-101495564D01*
X145761903Y-101495564D01*
X145798107Y-101603389D01*
X145980638Y-101636504D01*
X145798107Y-101672811D01*
X145761903Y-101780636D01*
X146050000Y-102068733D01*
X146338097Y-101780636D01*
X146301893Y-101672811D01*
X146119362Y-101639696D01*
X146301893Y-101603389D01*
X146338097Y-101495564D01*
X147031903Y-101495564D01*
X147068107Y-101603389D01*
X147250638Y-101636504D01*
X147068107Y-101672811D01*
X147031903Y-101780636D01*
X147320000Y-102068733D01*
X147608097Y-101780636D01*
X148276503Y-101780636D01*
X148564600Y-102068733D01*
X148852697Y-101780636D01*
X148816493Y-101672811D01*
X148647246Y-101642106D01*
X148841893Y-101603389D01*
X148878097Y-101495564D01*
X149571903Y-101495564D01*
X149608107Y-101603389D01*
X149871582Y-101651189D01*
X150111893Y-101603389D01*
X150148097Y-101495564D01*
X150841903Y-101495564D01*
X150878107Y-101603389D01*
X151141582Y-101651189D01*
X151381893Y-101603389D01*
X151418097Y-101495564D01*
X152086503Y-101495564D01*
X152122707Y-101603389D01*
X152386182Y-101651189D01*
X152626493Y-101603389D01*
X152662697Y-101495564D01*
X152374600Y-101207467D01*
X152086503Y-101495564D01*
X151418097Y-101495564D01*
X151130000Y-101207467D01*
X150841903Y-101495564D01*
X150148097Y-101495564D01*
X149860000Y-101207467D01*
X149571903Y-101495564D01*
X148878097Y-101495564D01*
X148590000Y-101207467D01*
X148301903Y-101495564D01*
X148338107Y-101603389D01*
X148507354Y-101634094D01*
X148312707Y-101672811D01*
X148276503Y-101780636D01*
X147608097Y-101780636D01*
X147571893Y-101672811D01*
X147389362Y-101639696D01*
X147571893Y-101603389D01*
X147608097Y-101495564D01*
X147320000Y-101207467D01*
X147031903Y-101495564D01*
X146338097Y-101495564D01*
X146050000Y-101207467D01*
X145761903Y-101495564D01*
X142291961Y-101495564D01*
X142316589Y-101359818D01*
X142268789Y-101119507D01*
X142160964Y-101083303D01*
X141872867Y-101371400D01*
X141387933Y-101371400D01*
X141099836Y-101083303D01*
X140992011Y-101119507D01*
X140944211Y-101382982D01*
X133652515Y-101382982D01*
X133553200Y-101283667D01*
X133265103Y-101571764D01*
X130411729Y-101571764D01*
X130454789Y-101334418D01*
X130406989Y-101094107D01*
X130299164Y-101057903D01*
X130011067Y-101346000D01*
X129526133Y-101346000D01*
X129238036Y-101057903D01*
X129130211Y-101094107D01*
X129082411Y-101357582D01*
X128827600Y-101357582D01*
X128827600Y-100815436D01*
X129480503Y-100815436D01*
X129768600Y-101103533D01*
X129819351Y-101052782D01*
X132867011Y-101052782D01*
X132914811Y-101293093D01*
X133022636Y-101329297D01*
X133310733Y-101041200D01*
X133795667Y-101041200D01*
X134083764Y-101329297D01*
X134191589Y-101293093D01*
X134210153Y-101190764D01*
X137379903Y-101190764D01*
X137416107Y-101298589D01*
X137679582Y-101346389D01*
X137919893Y-101298589D01*
X137956097Y-101190764D01*
X137668000Y-100902667D01*
X137379903Y-101190764D01*
X134210153Y-101190764D01*
X134239389Y-101029618D01*
X134191589Y-100789307D01*
X134083764Y-100753103D01*
X133795667Y-101041200D01*
X133310733Y-101041200D01*
X133022636Y-100753103D01*
X132914811Y-100789307D01*
X132867011Y-101052782D01*
X129819351Y-101052782D01*
X130056697Y-100815436D01*
X130020493Y-100707611D01*
X129757018Y-100659811D01*
X129516707Y-100707611D01*
X129480503Y-100815436D01*
X128827600Y-100815436D01*
X128827600Y-100510636D01*
X133265103Y-100510636D01*
X133553200Y-100798733D01*
X133841297Y-100510636D01*
X133805093Y-100402811D01*
X133541618Y-100355011D01*
X133301307Y-100402811D01*
X133265103Y-100510636D01*
X128827600Y-100510636D01*
X128827600Y-98933000D01*
X129350517Y-98933000D01*
X129433656Y-99350967D01*
X129670415Y-99705302D01*
X130024750Y-99942061D01*
X130442717Y-100025200D01*
X130796283Y-100025200D01*
X131214250Y-99942061D01*
X131242252Y-99923350D01*
X134759800Y-99923350D01*
X134759800Y-100728681D01*
X134810070Y-100850043D01*
X134902957Y-100942930D01*
X135024319Y-100993200D01*
X135629650Y-100993200D01*
X135712200Y-100910650D01*
X135712200Y-99840800D01*
X136067800Y-99840800D01*
X136067800Y-100910650D01*
X136150350Y-100993200D01*
X136755681Y-100993200D01*
X136877043Y-100942930D01*
X136969930Y-100850043D01*
X137001911Y-100772834D01*
X137029611Y-100912093D01*
X137137436Y-100948297D01*
X137425533Y-100660200D01*
X137910467Y-100660200D01*
X138198564Y-100948297D01*
X138306389Y-100912093D01*
X138354189Y-100648618D01*
X138345825Y-100606564D01*
X141342303Y-100606564D01*
X141378507Y-100714389D01*
X141427470Y-100723272D01*
X141378507Y-100733011D01*
X141342303Y-100840836D01*
X141630400Y-101128933D01*
X141782751Y-100976582D01*
X145363811Y-100976582D01*
X145411611Y-101216893D01*
X145519436Y-101253097D01*
X145807533Y-100965000D01*
X146292467Y-100965000D01*
X146580564Y-101253097D01*
X146685000Y-101218031D01*
X146789436Y-101253097D01*
X147077533Y-100965000D01*
X147562467Y-100965000D01*
X147850564Y-101253097D01*
X147955000Y-101218031D01*
X148059436Y-101253097D01*
X148347533Y-100965000D01*
X148832467Y-100965000D01*
X149120564Y-101253097D01*
X149225000Y-101218031D01*
X149329436Y-101253097D01*
X149617533Y-100965000D01*
X150102467Y-100965000D01*
X150390564Y-101253097D01*
X150495000Y-101218031D01*
X150599436Y-101253097D01*
X150887533Y-100965000D01*
X151372467Y-100965000D01*
X151660564Y-101253097D01*
X151752300Y-101222295D01*
X151844036Y-101253097D01*
X152132133Y-100965000D01*
X152617067Y-100965000D01*
X152905164Y-101253097D01*
X153012989Y-101216893D01*
X153060789Y-100953418D01*
X153012989Y-100713107D01*
X152905164Y-100676903D01*
X152617067Y-100965000D01*
X152132133Y-100965000D01*
X151844036Y-100676903D01*
X151752300Y-100707705D01*
X151660564Y-100676903D01*
X151372467Y-100965000D01*
X150887533Y-100965000D01*
X150599436Y-100676903D01*
X150495000Y-100711969D01*
X150390564Y-100676903D01*
X150102467Y-100965000D01*
X149617533Y-100965000D01*
X149329436Y-100676903D01*
X149225000Y-100711969D01*
X149120564Y-100676903D01*
X148832467Y-100965000D01*
X148347533Y-100965000D01*
X148059436Y-100676903D01*
X147955000Y-100711969D01*
X147850564Y-100676903D01*
X147562467Y-100965000D01*
X147077533Y-100965000D01*
X146789436Y-100676903D01*
X146685000Y-100711969D01*
X146580564Y-100676903D01*
X146292467Y-100965000D01*
X145807533Y-100965000D01*
X145519436Y-100676903D01*
X145411611Y-100713107D01*
X145363811Y-100976582D01*
X141782751Y-100976582D01*
X141918497Y-100840836D01*
X141882293Y-100733011D01*
X141833330Y-100724128D01*
X141882293Y-100714389D01*
X141918497Y-100606564D01*
X141630400Y-100318467D01*
X141342303Y-100606564D01*
X138345825Y-100606564D01*
X138306389Y-100408307D01*
X138198564Y-100372103D01*
X137910467Y-100660200D01*
X137425533Y-100660200D01*
X137137436Y-100372103D01*
X137029611Y-100408307D01*
X137020200Y-100460181D01*
X137020200Y-100129636D01*
X137379903Y-100129636D01*
X137668000Y-100417733D01*
X137956097Y-100129636D01*
X137941977Y-100087582D01*
X140944211Y-100087582D01*
X140992011Y-100327893D01*
X141099836Y-100364097D01*
X141387933Y-100076000D01*
X141872867Y-100076000D01*
X142160964Y-100364097D01*
X142268789Y-100327893D01*
X142287353Y-100225564D01*
X145761903Y-100225564D01*
X145796969Y-100330000D01*
X145761903Y-100434436D01*
X146050000Y-100722533D01*
X146338097Y-100434436D01*
X146303031Y-100330000D01*
X146338097Y-100225564D01*
X147031903Y-100225564D01*
X147066969Y-100330000D01*
X147031903Y-100434436D01*
X147320000Y-100722533D01*
X147608097Y-100434436D01*
X147573031Y-100330000D01*
X147608097Y-100225564D01*
X148301903Y-100225564D01*
X148336969Y-100330000D01*
X148301903Y-100434436D01*
X148590000Y-100722533D01*
X148878097Y-100434436D01*
X148843031Y-100330000D01*
X148878097Y-100225564D01*
X149571903Y-100225564D01*
X149606969Y-100330000D01*
X149571903Y-100434436D01*
X149860000Y-100722533D01*
X150148097Y-100434436D01*
X150113031Y-100330000D01*
X150148097Y-100225564D01*
X150841903Y-100225564D01*
X150876969Y-100330000D01*
X150841903Y-100434436D01*
X151130000Y-100722533D01*
X151418097Y-100434436D01*
X151383031Y-100330000D01*
X151418097Y-100225564D01*
X152086503Y-100225564D01*
X152121569Y-100330000D01*
X152086503Y-100434436D01*
X152374600Y-100722533D01*
X152662697Y-100434436D01*
X152627631Y-100330000D01*
X152662697Y-100225564D01*
X152374600Y-99937467D01*
X152086503Y-100225564D01*
X151418097Y-100225564D01*
X151130000Y-99937467D01*
X150841903Y-100225564D01*
X150148097Y-100225564D01*
X149860000Y-99937467D01*
X149571903Y-100225564D01*
X148878097Y-100225564D01*
X148590000Y-99937467D01*
X148301903Y-100225564D01*
X147608097Y-100225564D01*
X147320000Y-99937467D01*
X147031903Y-100225564D01*
X146338097Y-100225564D01*
X146050000Y-99937467D01*
X145761903Y-100225564D01*
X142287353Y-100225564D01*
X142316589Y-100064418D01*
X142268789Y-99824107D01*
X142160964Y-99787903D01*
X141872867Y-100076000D01*
X141387933Y-100076000D01*
X141099836Y-99787903D01*
X140992011Y-99824107D01*
X140944211Y-100087582D01*
X137941977Y-100087582D01*
X137919893Y-100021811D01*
X137656418Y-99974011D01*
X137416107Y-100021811D01*
X137379903Y-100129636D01*
X137020200Y-100129636D01*
X137020200Y-99923350D01*
X136937650Y-99840800D01*
X136067800Y-99840800D01*
X135712200Y-99840800D01*
X134842350Y-99840800D01*
X134759800Y-99923350D01*
X131242252Y-99923350D01*
X131550233Y-99717564D01*
X133265103Y-99717564D01*
X133301307Y-99825389D01*
X133564782Y-99873189D01*
X133805093Y-99825389D01*
X133807183Y-99819164D01*
X137379903Y-99819164D01*
X137416107Y-99926989D01*
X137679582Y-99974789D01*
X137919893Y-99926989D01*
X137956097Y-99819164D01*
X137668000Y-99531067D01*
X137379903Y-99819164D01*
X133807183Y-99819164D01*
X133841297Y-99717564D01*
X133553200Y-99429467D01*
X133265103Y-99717564D01*
X131550233Y-99717564D01*
X131568585Y-99705302D01*
X131805344Y-99350967D01*
X131835655Y-99198582D01*
X132867011Y-99198582D01*
X132914811Y-99438893D01*
X133022636Y-99475097D01*
X133310733Y-99187000D01*
X133795667Y-99187000D01*
X134083764Y-99475097D01*
X134191589Y-99438893D01*
X134239389Y-99175418D01*
X134191589Y-98935107D01*
X134083764Y-98898903D01*
X133795667Y-99187000D01*
X133310733Y-99187000D01*
X133022636Y-98898903D01*
X132914811Y-98935107D01*
X132867011Y-99198582D01*
X131835655Y-99198582D01*
X131888483Y-98933000D01*
X131833471Y-98656436D01*
X133265103Y-98656436D01*
X133553200Y-98944533D01*
X133841297Y-98656436D01*
X133821448Y-98597319D01*
X134759800Y-98597319D01*
X134759800Y-99402650D01*
X134842350Y-99485200D01*
X135712200Y-99485200D01*
X135712200Y-98415350D01*
X136067800Y-98415350D01*
X136067800Y-99485200D01*
X136937650Y-99485200D01*
X137005180Y-99417670D01*
X137029611Y-99540493D01*
X137137436Y-99576697D01*
X137425533Y-99288600D01*
X137910467Y-99288600D01*
X138198564Y-99576697D01*
X138291667Y-99545436D01*
X141342303Y-99545436D01*
X141630400Y-99833533D01*
X141757351Y-99706582D01*
X145363811Y-99706582D01*
X145411611Y-99946893D01*
X145519436Y-99983097D01*
X145807533Y-99695000D01*
X146292467Y-99695000D01*
X146580564Y-99983097D01*
X146685000Y-99948031D01*
X146789436Y-99983097D01*
X147077533Y-99695000D01*
X147562467Y-99695000D01*
X147850564Y-99983097D01*
X147955000Y-99948031D01*
X148059436Y-99983097D01*
X148347533Y-99695000D01*
X148832467Y-99695000D01*
X149120564Y-99983097D01*
X149225000Y-99948031D01*
X149329436Y-99983097D01*
X149617533Y-99695000D01*
X150102467Y-99695000D01*
X150390564Y-99983097D01*
X150495000Y-99948031D01*
X150599436Y-99983097D01*
X150887533Y-99695000D01*
X151372467Y-99695000D01*
X151660564Y-99983097D01*
X151752300Y-99952295D01*
X151844036Y-99983097D01*
X152132133Y-99695000D01*
X152617067Y-99695000D01*
X152905164Y-99983097D01*
X153012989Y-99946893D01*
X153060789Y-99683418D01*
X153012989Y-99443107D01*
X152905164Y-99406903D01*
X152617067Y-99695000D01*
X152132133Y-99695000D01*
X151844036Y-99406903D01*
X151752300Y-99437705D01*
X151660564Y-99406903D01*
X151372467Y-99695000D01*
X150887533Y-99695000D01*
X150599436Y-99406903D01*
X150495000Y-99441969D01*
X150390564Y-99406903D01*
X150102467Y-99695000D01*
X149617533Y-99695000D01*
X149329436Y-99406903D01*
X149225000Y-99441969D01*
X149120564Y-99406903D01*
X148832467Y-99695000D01*
X148347533Y-99695000D01*
X148059436Y-99406903D01*
X147955000Y-99441969D01*
X147850564Y-99406903D01*
X147562467Y-99695000D01*
X147077533Y-99695000D01*
X146789436Y-99406903D01*
X146685000Y-99441969D01*
X146580564Y-99406903D01*
X146292467Y-99695000D01*
X145807533Y-99695000D01*
X145519436Y-99406903D01*
X145411611Y-99443107D01*
X145363811Y-99706582D01*
X141757351Y-99706582D01*
X141918497Y-99545436D01*
X141882293Y-99437611D01*
X141618818Y-99389811D01*
X141378507Y-99437611D01*
X141342303Y-99545436D01*
X138291667Y-99545436D01*
X138306389Y-99540493D01*
X138354189Y-99277018D01*
X138340772Y-99209564D01*
X141316903Y-99209564D01*
X141353107Y-99317389D01*
X141616582Y-99365189D01*
X141856893Y-99317389D01*
X141893097Y-99209564D01*
X141605000Y-98921467D01*
X141316903Y-99209564D01*
X138340772Y-99209564D01*
X138306389Y-99036707D01*
X138198564Y-99000503D01*
X137910467Y-99288600D01*
X137425533Y-99288600D01*
X137137436Y-99000503D01*
X137029611Y-99036707D01*
X137020200Y-99088581D01*
X137020200Y-98758036D01*
X137379903Y-98758036D01*
X137668000Y-99046133D01*
X137956097Y-98758036D01*
X137933449Y-98690582D01*
X140918811Y-98690582D01*
X140966611Y-98930893D01*
X141074436Y-98967097D01*
X141362533Y-98679000D01*
X141847467Y-98679000D01*
X142135564Y-98967097D01*
X142169912Y-98955564D01*
X145761903Y-98955564D01*
X145796969Y-99060000D01*
X145761903Y-99164436D01*
X146050000Y-99452533D01*
X146338097Y-99164436D01*
X146303031Y-99060000D01*
X146338097Y-98955564D01*
X147031903Y-98955564D01*
X147066969Y-99060000D01*
X147031903Y-99164436D01*
X147320000Y-99452533D01*
X147608097Y-99164436D01*
X147573031Y-99060000D01*
X147608097Y-98955564D01*
X148301903Y-98955564D01*
X148336969Y-99060000D01*
X148301903Y-99164436D01*
X148590000Y-99452533D01*
X148878097Y-99164436D01*
X149571903Y-99164436D01*
X149860000Y-99452533D01*
X150148097Y-99164436D01*
X150841903Y-99164436D01*
X151130000Y-99452533D01*
X151418097Y-99164436D01*
X152086503Y-99164436D01*
X152374600Y-99452533D01*
X152662697Y-99164436D01*
X152626493Y-99056611D01*
X152363018Y-99008811D01*
X152122707Y-99056611D01*
X152086503Y-99164436D01*
X151418097Y-99164436D01*
X151381893Y-99056611D01*
X151118418Y-99008811D01*
X150878107Y-99056611D01*
X150841903Y-99164436D01*
X150148097Y-99164436D01*
X150111893Y-99056611D01*
X149848418Y-99008811D01*
X149608107Y-99056611D01*
X149571903Y-99164436D01*
X148878097Y-99164436D01*
X148843031Y-99060000D01*
X148878097Y-98955564D01*
X148590000Y-98667467D01*
X148301903Y-98955564D01*
X147608097Y-98955564D01*
X147320000Y-98667467D01*
X147031903Y-98955564D01*
X146338097Y-98955564D01*
X146050000Y-98667467D01*
X145761903Y-98955564D01*
X142169912Y-98955564D01*
X142243389Y-98930893D01*
X142291189Y-98667418D01*
X142245274Y-98436582D01*
X145363811Y-98436582D01*
X145411611Y-98676893D01*
X145519436Y-98713097D01*
X145807533Y-98425000D01*
X146292467Y-98425000D01*
X146580564Y-98713097D01*
X146685000Y-98678031D01*
X146789436Y-98713097D01*
X147077533Y-98425000D01*
X147562467Y-98425000D01*
X147850564Y-98713097D01*
X147955000Y-98678031D01*
X148059436Y-98713097D01*
X148347533Y-98425000D01*
X148832467Y-98425000D01*
X149120564Y-98713097D01*
X149228389Y-98676893D01*
X149276189Y-98413418D01*
X149228389Y-98173107D01*
X149120564Y-98136903D01*
X148832467Y-98425000D01*
X148347533Y-98425000D01*
X148059436Y-98136903D01*
X147955000Y-98171969D01*
X147850564Y-98136903D01*
X147562467Y-98425000D01*
X147077533Y-98425000D01*
X146789436Y-98136903D01*
X146685000Y-98171969D01*
X146580564Y-98136903D01*
X146292467Y-98425000D01*
X145807533Y-98425000D01*
X145519436Y-98136903D01*
X145411611Y-98173107D01*
X145363811Y-98436582D01*
X142245274Y-98436582D01*
X142243389Y-98427107D01*
X142135564Y-98390903D01*
X141847467Y-98679000D01*
X141362533Y-98679000D01*
X141074436Y-98390903D01*
X140966611Y-98427107D01*
X140918811Y-98690582D01*
X137933449Y-98690582D01*
X137919893Y-98650211D01*
X137656418Y-98602411D01*
X137416107Y-98650211D01*
X137379903Y-98758036D01*
X137020200Y-98758036D01*
X137020200Y-98597319D01*
X136969930Y-98475957D01*
X136877043Y-98383070D01*
X136787462Y-98345964D01*
X137303703Y-98345964D01*
X137339907Y-98453789D01*
X137603382Y-98501589D01*
X137843693Y-98453789D01*
X137879897Y-98345964D01*
X137682369Y-98148436D01*
X141316903Y-98148436D01*
X141605000Y-98436533D01*
X141893097Y-98148436D01*
X141856893Y-98040611D01*
X141593418Y-97992811D01*
X141353107Y-98040611D01*
X141316903Y-98148436D01*
X137682369Y-98148436D01*
X137591800Y-98057867D01*
X137303703Y-98345964D01*
X136787462Y-98345964D01*
X136755681Y-98332800D01*
X136150350Y-98332800D01*
X136067800Y-98415350D01*
X135712200Y-98415350D01*
X135629650Y-98332800D01*
X135024319Y-98332800D01*
X134902957Y-98383070D01*
X134810070Y-98475957D01*
X134759800Y-98597319D01*
X133821448Y-98597319D01*
X133805093Y-98548611D01*
X133541618Y-98500811D01*
X133301307Y-98548611D01*
X133265103Y-98656436D01*
X131833471Y-98656436D01*
X131805344Y-98515033D01*
X131568585Y-98160698D01*
X131214250Y-97923939D01*
X130796283Y-97840800D01*
X130442717Y-97840800D01*
X130024750Y-97923939D01*
X129670415Y-98160698D01*
X129433656Y-98515033D01*
X129350517Y-98933000D01*
X128827600Y-98933000D01*
X128827600Y-97826982D01*
X136905611Y-97826982D01*
X136953411Y-98067293D01*
X137061236Y-98103497D01*
X137349333Y-97815400D01*
X137834267Y-97815400D01*
X138122364Y-98103497D01*
X138230189Y-98067293D01*
X138261548Y-97894436D01*
X145761903Y-97894436D01*
X146050000Y-98182533D01*
X146338097Y-97894436D01*
X146301893Y-97786611D01*
X146038418Y-97738811D01*
X145798107Y-97786611D01*
X145761903Y-97894436D01*
X138261548Y-97894436D01*
X138277989Y-97803818D01*
X138254468Y-97685564D01*
X147031903Y-97685564D01*
X147066969Y-97790000D01*
X147031903Y-97894436D01*
X147320000Y-98182533D01*
X147608097Y-97894436D01*
X147573031Y-97790000D01*
X147608097Y-97685564D01*
X148301903Y-97685564D01*
X148336969Y-97790000D01*
X148301903Y-97894436D01*
X148590000Y-98182533D01*
X148878097Y-97894436D01*
X148843031Y-97790000D01*
X148878097Y-97685564D01*
X148590000Y-97397467D01*
X148301903Y-97685564D01*
X147608097Y-97685564D01*
X147320000Y-97397467D01*
X147031903Y-97685564D01*
X138254468Y-97685564D01*
X138230189Y-97563507D01*
X138122364Y-97527303D01*
X137834267Y-97815400D01*
X137349333Y-97815400D01*
X137061236Y-97527303D01*
X136953411Y-97563507D01*
X136905611Y-97826982D01*
X128827600Y-97826982D01*
X128827600Y-96393000D01*
X129350517Y-96393000D01*
X129433656Y-96810967D01*
X129670415Y-97165302D01*
X130024750Y-97402061D01*
X130442717Y-97485200D01*
X130796283Y-97485200D01*
X131214250Y-97402061D01*
X131568585Y-97165302D01*
X131754420Y-96887180D01*
X133794401Y-96887180D01*
X133881224Y-97097306D01*
X134041849Y-97258211D01*
X134251823Y-97345400D01*
X134479180Y-97345599D01*
X134626236Y-97284836D01*
X137303703Y-97284836D01*
X137591800Y-97572933D01*
X137879897Y-97284836D01*
X137843693Y-97177011D01*
X137786209Y-97166582D01*
X146633811Y-97166582D01*
X146681611Y-97406893D01*
X146789436Y-97443097D01*
X147077533Y-97155000D01*
X147562467Y-97155000D01*
X147850564Y-97443097D01*
X147955000Y-97408031D01*
X148059436Y-97443097D01*
X148347533Y-97155000D01*
X148832467Y-97155000D01*
X149120564Y-97443097D01*
X149228389Y-97406893D01*
X149276189Y-97143418D01*
X149228389Y-96903107D01*
X149120564Y-96866903D01*
X148832467Y-97155000D01*
X148347533Y-97155000D01*
X148059436Y-96866903D01*
X147955000Y-96901969D01*
X147850564Y-96866903D01*
X147562467Y-97155000D01*
X147077533Y-97155000D01*
X146789436Y-96866903D01*
X146681611Y-96903107D01*
X146633811Y-97166582D01*
X137786209Y-97166582D01*
X137580218Y-97129211D01*
X137339907Y-97177011D01*
X137303703Y-97284836D01*
X134626236Y-97284836D01*
X134689306Y-97258776D01*
X134850211Y-97098151D01*
X134937400Y-96888177D01*
X134937446Y-96835438D01*
X134999320Y-96877715D01*
X135090000Y-96896078D01*
X136690000Y-96896078D01*
X136774714Y-96880138D01*
X136852518Y-96830072D01*
X136904715Y-96753680D01*
X136923078Y-96663000D01*
X136923078Y-96624436D01*
X147031903Y-96624436D01*
X147320000Y-96912533D01*
X147608097Y-96624436D01*
X147571893Y-96516611D01*
X147308418Y-96468811D01*
X147068107Y-96516611D01*
X147031903Y-96624436D01*
X136923078Y-96624436D01*
X136923078Y-96415564D01*
X148301903Y-96415564D01*
X148336969Y-96520000D01*
X148301903Y-96624436D01*
X148590000Y-96912533D01*
X148878097Y-96624436D01*
X148843031Y-96520000D01*
X148878097Y-96415564D01*
X148757033Y-96294500D01*
X150056422Y-96294500D01*
X150056422Y-97794500D01*
X150072362Y-97879214D01*
X150122428Y-97957018D01*
X150198820Y-98009215D01*
X150289500Y-98027578D01*
X151589500Y-98027578D01*
X151674214Y-98011638D01*
X151752018Y-97961572D01*
X151804215Y-97885180D01*
X151822578Y-97794500D01*
X151822578Y-97425500D01*
X152243289Y-97425500D01*
X152329849Y-97512211D01*
X152539823Y-97599400D01*
X152767180Y-97599599D01*
X152977306Y-97512776D01*
X153138211Y-97352151D01*
X153225400Y-97142177D01*
X153225599Y-96914820D01*
X153138776Y-96704694D01*
X152978151Y-96543789D01*
X152768177Y-96456600D01*
X152540820Y-96456401D01*
X152330694Y-96543224D01*
X152210208Y-96663500D01*
X151822578Y-96663500D01*
X151822578Y-96294500D01*
X151806638Y-96209786D01*
X151756572Y-96131982D01*
X151680180Y-96079785D01*
X151589500Y-96061422D01*
X150289500Y-96061422D01*
X150204786Y-96077362D01*
X150126982Y-96127428D01*
X150074785Y-96203820D01*
X150056422Y-96294500D01*
X148757033Y-96294500D01*
X148590000Y-96127467D01*
X148301903Y-96415564D01*
X136923078Y-96415564D01*
X136923078Y-95882164D01*
X140631103Y-95882164D01*
X140667307Y-95989989D01*
X140930782Y-96037789D01*
X141171093Y-95989989D01*
X141202455Y-95896582D01*
X147903811Y-95896582D01*
X147951611Y-96136893D01*
X148059436Y-96173097D01*
X148347533Y-95885000D01*
X148832467Y-95885000D01*
X149120564Y-96173097D01*
X149228389Y-96136893D01*
X149276189Y-95873418D01*
X149228389Y-95633107D01*
X149120564Y-95596903D01*
X148832467Y-95885000D01*
X148347533Y-95885000D01*
X148059436Y-95596903D01*
X147951611Y-95633107D01*
X147903811Y-95896582D01*
X141202455Y-95896582D01*
X141207297Y-95882164D01*
X140919200Y-95594067D01*
X140631103Y-95882164D01*
X136923078Y-95882164D01*
X136923078Y-95363182D01*
X140233011Y-95363182D01*
X140280811Y-95603493D01*
X140388636Y-95639697D01*
X140676733Y-95351600D01*
X141161667Y-95351600D01*
X141449764Y-95639697D01*
X141557589Y-95603493D01*
X141602773Y-95354436D01*
X148301903Y-95354436D01*
X148590000Y-95642533D01*
X148878097Y-95354436D01*
X148841893Y-95246611D01*
X148578418Y-95198811D01*
X148338107Y-95246611D01*
X148301903Y-95354436D01*
X141602773Y-95354436D01*
X141605389Y-95340018D01*
X141557589Y-95099707D01*
X141449764Y-95063503D01*
X141161667Y-95351600D01*
X140676733Y-95351600D01*
X140388636Y-95063503D01*
X140280811Y-95099707D01*
X140233011Y-95363182D01*
X136923078Y-95363182D01*
X136923078Y-94821036D01*
X140631103Y-94821036D01*
X140919200Y-95109133D01*
X141207297Y-94821036D01*
X141171093Y-94713211D01*
X140907618Y-94665411D01*
X140667307Y-94713211D01*
X140631103Y-94821036D01*
X136923078Y-94821036D01*
X136923078Y-94663000D01*
X136912137Y-94604850D01*
X149959300Y-94604850D01*
X149959300Y-95160181D01*
X150009570Y-95281543D01*
X150102457Y-95374430D01*
X150223819Y-95424700D01*
X150679150Y-95424700D01*
X150761700Y-95342150D01*
X150761700Y-94522300D01*
X151117300Y-94522300D01*
X151117300Y-95342150D01*
X151199850Y-95424700D01*
X151655181Y-95424700D01*
X151776543Y-95374430D01*
X151869430Y-95281543D01*
X151919700Y-95160181D01*
X151919700Y-94604850D01*
X151837150Y-94522300D01*
X151117300Y-94522300D01*
X150761700Y-94522300D01*
X150041850Y-94522300D01*
X149959300Y-94604850D01*
X136912137Y-94604850D01*
X136907138Y-94578286D01*
X136857072Y-94500482D01*
X136780680Y-94448285D01*
X136690000Y-94429922D01*
X135090000Y-94429922D01*
X135005286Y-94445862D01*
X134927482Y-94495928D01*
X134875285Y-94572320D01*
X134856922Y-94663000D01*
X134856922Y-95744263D01*
X134398656Y-96202529D01*
X134252820Y-96202401D01*
X134042694Y-96289224D01*
X133881789Y-96449849D01*
X133794600Y-96659823D01*
X133794401Y-96887180D01*
X131754420Y-96887180D01*
X131805344Y-96810967D01*
X131888483Y-96393000D01*
X131805344Y-95975033D01*
X131568585Y-95620698D01*
X131214250Y-95383939D01*
X130796283Y-95300800D01*
X130442717Y-95300800D01*
X130024750Y-95383939D01*
X129670415Y-95620698D01*
X129433656Y-95975033D01*
X129350517Y-96393000D01*
X128827600Y-96393000D01*
X128827600Y-93853000D01*
X129350517Y-93853000D01*
X129433656Y-94270967D01*
X129670415Y-94625302D01*
X130024750Y-94862061D01*
X130442717Y-94945200D01*
X130796283Y-94945200D01*
X131214250Y-94862061D01*
X131360164Y-94764564D01*
X133011103Y-94764564D01*
X133047307Y-94872389D01*
X133310782Y-94920189D01*
X133551093Y-94872389D01*
X133587297Y-94764564D01*
X133299200Y-94476467D01*
X133011103Y-94764564D01*
X131360164Y-94764564D01*
X131568585Y-94625302D01*
X131805344Y-94270967D01*
X131810393Y-94245582D01*
X132613011Y-94245582D01*
X132660811Y-94485893D01*
X132768636Y-94522097D01*
X133056733Y-94234000D01*
X133541667Y-94234000D01*
X133829764Y-94522097D01*
X133937589Y-94485893D01*
X133985389Y-94222418D01*
X133977025Y-94180364D01*
X136109903Y-94180364D01*
X136146107Y-94288189D01*
X136409582Y-94335989D01*
X136649893Y-94288189D01*
X136686097Y-94180364D01*
X136482897Y-93977164D01*
X146727103Y-93977164D01*
X146763307Y-94084989D01*
X147026782Y-94132789D01*
X147267093Y-94084989D01*
X147303297Y-93977164D01*
X147015200Y-93689067D01*
X146727103Y-93977164D01*
X136482897Y-93977164D01*
X136398000Y-93892267D01*
X136109903Y-94180364D01*
X133977025Y-94180364D01*
X133937589Y-93982107D01*
X133829764Y-93945903D01*
X133541667Y-94234000D01*
X133056733Y-94234000D01*
X132768636Y-93945903D01*
X132660811Y-93982107D01*
X132613011Y-94245582D01*
X131810393Y-94245582D01*
X131888483Y-93853000D01*
X131858733Y-93703436D01*
X133011103Y-93703436D01*
X133299200Y-93991533D01*
X133587297Y-93703436D01*
X133551093Y-93595611D01*
X133287618Y-93547811D01*
X133047307Y-93595611D01*
X133011103Y-93703436D01*
X131858733Y-93703436D01*
X131805344Y-93435033D01*
X131568585Y-93080698D01*
X131214250Y-92843939D01*
X130796283Y-92760800D01*
X130442717Y-92760800D01*
X130024750Y-92843939D01*
X129670415Y-93080698D01*
X129433656Y-93435033D01*
X129350517Y-93853000D01*
X128827600Y-93853000D01*
X128827600Y-90449400D01*
X129370422Y-90449400D01*
X129370422Y-92176600D01*
X129386362Y-92261314D01*
X129436428Y-92339118D01*
X129512820Y-92391315D01*
X129603500Y-92409678D01*
X131635500Y-92409678D01*
X131720214Y-92393738D01*
X131798018Y-92343672D01*
X131850215Y-92267280D01*
X131868578Y-92176600D01*
X131868578Y-91278000D01*
X134054422Y-91278000D01*
X134054422Y-92778000D01*
X134070362Y-92862714D01*
X134120428Y-92940518D01*
X134196820Y-92992715D01*
X134287500Y-93011078D01*
X134595111Y-93011078D01*
X134556600Y-93103823D01*
X134556401Y-93331180D01*
X134643224Y-93541306D01*
X134803849Y-93702211D01*
X135013823Y-93789400D01*
X135241180Y-93789599D01*
X135451306Y-93702776D01*
X135492772Y-93661382D01*
X135711811Y-93661382D01*
X135759611Y-93901693D01*
X135867436Y-93937897D01*
X136155533Y-93649800D01*
X136640467Y-93649800D01*
X136928564Y-93937897D01*
X137036389Y-93901693D01*
X137084189Y-93638218D01*
X137036389Y-93397907D01*
X136928564Y-93361703D01*
X136640467Y-93649800D01*
X136155533Y-93649800D01*
X135867436Y-93361703D01*
X135759611Y-93397907D01*
X135711811Y-93661382D01*
X135492772Y-93661382D01*
X135612211Y-93542151D01*
X135699400Y-93332177D01*
X135699586Y-93119236D01*
X136109903Y-93119236D01*
X136398000Y-93407333D01*
X136686097Y-93119236D01*
X136649893Y-93011411D01*
X136386418Y-92963611D01*
X136146107Y-93011411D01*
X136109903Y-93119236D01*
X135699586Y-93119236D01*
X135699599Y-93104820D01*
X135655573Y-92998269D01*
X135672214Y-92995138D01*
X135750018Y-92945072D01*
X135802215Y-92868680D01*
X135820578Y-92778000D01*
X135820578Y-91278000D01*
X137038922Y-91278000D01*
X137038922Y-92778000D01*
X137054862Y-92862714D01*
X137104928Y-92940518D01*
X137181320Y-92992715D01*
X137272000Y-93011078D01*
X138572000Y-93011078D01*
X138656714Y-92995138D01*
X138734518Y-92945072D01*
X138786715Y-92868680D01*
X138805078Y-92778000D01*
X138805078Y-92754130D01*
X138882279Y-92831331D01*
X138874600Y-92849823D01*
X138874401Y-93077180D01*
X138961224Y-93287306D01*
X139121849Y-93448211D01*
X139331823Y-93535400D01*
X139559180Y-93535599D01*
X139746541Y-93458182D01*
X146329011Y-93458182D01*
X146376811Y-93698493D01*
X146484636Y-93734697D01*
X146772733Y-93446600D01*
X147257667Y-93446600D01*
X147545764Y-93734697D01*
X147653589Y-93698493D01*
X147684371Y-93528819D01*
X149959300Y-93528819D01*
X149959300Y-94084150D01*
X150041850Y-94166700D01*
X150761700Y-94166700D01*
X150761700Y-93346850D01*
X151117300Y-93346850D01*
X151117300Y-94166700D01*
X151837150Y-94166700D01*
X151919700Y-94084150D01*
X151919700Y-93528819D01*
X151869430Y-93407457D01*
X151776543Y-93314570D01*
X151655181Y-93264300D01*
X151199850Y-93264300D01*
X151117300Y-93346850D01*
X150761700Y-93346850D01*
X150679150Y-93264300D01*
X150223819Y-93264300D01*
X150102457Y-93314570D01*
X150009570Y-93407457D01*
X149959300Y-93528819D01*
X147684371Y-93528819D01*
X147701389Y-93435018D01*
X147682920Y-93342164D01*
X148835303Y-93342164D01*
X148871507Y-93449989D01*
X149134982Y-93497789D01*
X149375293Y-93449989D01*
X149411497Y-93342164D01*
X149123400Y-93054067D01*
X148835303Y-93342164D01*
X147682920Y-93342164D01*
X147653589Y-93194707D01*
X147545764Y-93158503D01*
X147257667Y-93446600D01*
X146772733Y-93446600D01*
X146484636Y-93158503D01*
X146376811Y-93194707D01*
X146329011Y-93458182D01*
X139746541Y-93458182D01*
X139769306Y-93448776D01*
X139930211Y-93288151D01*
X140017400Y-93078177D01*
X140017541Y-92916036D01*
X146727103Y-92916036D01*
X147015200Y-93204133D01*
X147303297Y-92916036D01*
X147272120Y-92823182D01*
X148437211Y-92823182D01*
X148485011Y-93063493D01*
X148592836Y-93099697D01*
X148880933Y-92811600D01*
X149365867Y-92811600D01*
X149653964Y-93099697D01*
X149761789Y-93063493D01*
X149809589Y-92800018D01*
X149761789Y-92559707D01*
X149653964Y-92523503D01*
X149365867Y-92811600D01*
X148880933Y-92811600D01*
X148592836Y-92523503D01*
X148485011Y-92559707D01*
X148437211Y-92823182D01*
X147272120Y-92823182D01*
X147267093Y-92808211D01*
X147003618Y-92760411D01*
X146763307Y-92808211D01*
X146727103Y-92916036D01*
X140017541Y-92916036D01*
X140017599Y-92850820D01*
X139930776Y-92640694D01*
X139923794Y-92633700D01*
X140551150Y-92633700D01*
X140633700Y-92551150D01*
X140633700Y-91681300D01*
X140989300Y-91681300D01*
X140989300Y-92551150D01*
X141071850Y-92633700D01*
X141877181Y-92633700D01*
X141998543Y-92583430D01*
X142091430Y-92490543D01*
X142141700Y-92369181D01*
X142141700Y-91763850D01*
X142059150Y-91681300D01*
X140989300Y-91681300D01*
X140633700Y-91681300D01*
X139563850Y-91681300D01*
X139481300Y-91763850D01*
X139481300Y-92369181D01*
X139490975Y-92392539D01*
X139332820Y-92392401D01*
X139313455Y-92400403D01*
X138805078Y-91892026D01*
X138805078Y-91278000D01*
X138789138Y-91193286D01*
X138739072Y-91115482D01*
X138662680Y-91063285D01*
X138572000Y-91044922D01*
X137272000Y-91044922D01*
X137187286Y-91060862D01*
X137109482Y-91110928D01*
X137057285Y-91187320D01*
X137038922Y-91278000D01*
X135820578Y-91278000D01*
X135804638Y-91193286D01*
X135754572Y-91115482D01*
X135678180Y-91063285D01*
X135587500Y-91044922D01*
X134287500Y-91044922D01*
X134202786Y-91060862D01*
X134124982Y-91110928D01*
X134072785Y-91187320D01*
X134054422Y-91278000D01*
X131868578Y-91278000D01*
X131868578Y-90637819D01*
X139481300Y-90637819D01*
X139481300Y-91243150D01*
X139563850Y-91325700D01*
X140633700Y-91325700D01*
X140633700Y-90455850D01*
X140989300Y-90455850D01*
X140989300Y-91325700D01*
X142059150Y-91325700D01*
X142141700Y-91243150D01*
X142141700Y-90703500D01*
X143578422Y-90703500D01*
X143578422Y-92303500D01*
X143594362Y-92388214D01*
X143644428Y-92466018D01*
X143720820Y-92518215D01*
X143811500Y-92536578D01*
X145811500Y-92536578D01*
X145896214Y-92520638D01*
X145974018Y-92470572D01*
X146026215Y-92394180D01*
X146044578Y-92303500D01*
X146044578Y-92281036D01*
X148835303Y-92281036D01*
X149123400Y-92569133D01*
X149315569Y-92376964D01*
X152340503Y-92376964D01*
X152376707Y-92484789D01*
X152640182Y-92532589D01*
X152880493Y-92484789D01*
X152916697Y-92376964D01*
X152628600Y-92088867D01*
X152340503Y-92376964D01*
X149315569Y-92376964D01*
X149411497Y-92281036D01*
X149375293Y-92173211D01*
X149111818Y-92125411D01*
X148871507Y-92173211D01*
X148835303Y-92281036D01*
X146044578Y-92281036D01*
X146044578Y-91857982D01*
X151942411Y-91857982D01*
X151990211Y-92098293D01*
X152098036Y-92134497D01*
X152386133Y-91846400D01*
X152871067Y-91846400D01*
X153159164Y-92134497D01*
X153266989Y-92098293D01*
X153314789Y-91834818D01*
X153266989Y-91594507D01*
X153159164Y-91558303D01*
X152871067Y-91846400D01*
X152386133Y-91846400D01*
X152098036Y-91558303D01*
X151990211Y-91594507D01*
X151942411Y-91857982D01*
X146044578Y-91857982D01*
X146044578Y-91030764D01*
X152213503Y-91030764D01*
X152249707Y-91138589D01*
X152498658Y-91183754D01*
X152376707Y-91208011D01*
X152340503Y-91315836D01*
X152628600Y-91603933D01*
X152916697Y-91315836D01*
X152880493Y-91208011D01*
X152631542Y-91162846D01*
X152753493Y-91138589D01*
X152789697Y-91030764D01*
X152501600Y-90742667D01*
X152213503Y-91030764D01*
X146044578Y-91030764D01*
X146044578Y-90703500D01*
X146028638Y-90618786D01*
X145978572Y-90540982D01*
X145935837Y-90511782D01*
X151815411Y-90511782D01*
X151863211Y-90752093D01*
X151971036Y-90788297D01*
X152259133Y-90500200D01*
X152744067Y-90500200D01*
X153032164Y-90788297D01*
X153139989Y-90752093D01*
X153187789Y-90488618D01*
X153139989Y-90248307D01*
X153032164Y-90212103D01*
X152744067Y-90500200D01*
X152259133Y-90500200D01*
X151971036Y-90212103D01*
X151863211Y-90248307D01*
X151815411Y-90511782D01*
X145935837Y-90511782D01*
X145902180Y-90488785D01*
X145811500Y-90470422D01*
X145741920Y-90470422D01*
X145773725Y-90438617D01*
X145865306Y-90400776D01*
X146026211Y-90240151D01*
X146113400Y-90030177D01*
X146113452Y-89969636D01*
X152213503Y-89969636D01*
X152501600Y-90257733D01*
X152734756Y-90024577D01*
X152880493Y-89995589D01*
X152916697Y-89887764D01*
X152628600Y-89599667D01*
X152395444Y-89832823D01*
X152249707Y-89861811D01*
X152213503Y-89969636D01*
X146113452Y-89969636D01*
X146113599Y-89802820D01*
X146026776Y-89592694D01*
X145866151Y-89431789D01*
X145714414Y-89368782D01*
X151942411Y-89368782D01*
X151990211Y-89609093D01*
X152098036Y-89645297D01*
X152386133Y-89357200D01*
X152871067Y-89357200D01*
X153159164Y-89645297D01*
X153266989Y-89609093D01*
X153314789Y-89345618D01*
X153266989Y-89105307D01*
X153159164Y-89069103D01*
X152871067Y-89357200D01*
X152386133Y-89357200D01*
X152098036Y-89069103D01*
X151990211Y-89105307D01*
X151942411Y-89368782D01*
X145714414Y-89368782D01*
X145656177Y-89344600D01*
X145428820Y-89344401D01*
X145218694Y-89431224D01*
X145057789Y-89591849D01*
X145019430Y-89684228D01*
X144434329Y-90269329D01*
X144318703Y-90442377D01*
X144313124Y-90470422D01*
X143811500Y-90470422D01*
X143726786Y-90486362D01*
X143648982Y-90536428D01*
X143596785Y-90612820D01*
X143578422Y-90703500D01*
X142141700Y-90703500D01*
X142141700Y-90637819D01*
X142091430Y-90516457D01*
X141998543Y-90423570D01*
X141877181Y-90373300D01*
X141071850Y-90373300D01*
X140989300Y-90455850D01*
X140633700Y-90455850D01*
X140551150Y-90373300D01*
X139745819Y-90373300D01*
X139624457Y-90423570D01*
X139531570Y-90516457D01*
X139481300Y-90637819D01*
X131868578Y-90637819D01*
X131868578Y-90449400D01*
X131852638Y-90364686D01*
X131802572Y-90286882D01*
X131726180Y-90234685D01*
X131635500Y-90216322D01*
X129603500Y-90216322D01*
X129518786Y-90232262D01*
X129440982Y-90282328D01*
X129388785Y-90358720D01*
X129370422Y-90449400D01*
X128827600Y-90449400D01*
X128827600Y-89588350D01*
X133957300Y-89588350D01*
X133957300Y-90143681D01*
X134007570Y-90265043D01*
X134100457Y-90357930D01*
X134221819Y-90408200D01*
X134677150Y-90408200D01*
X134759700Y-90325650D01*
X134759700Y-89505800D01*
X135115300Y-89505800D01*
X135115300Y-90325650D01*
X135197850Y-90408200D01*
X135653181Y-90408200D01*
X135774543Y-90357930D01*
X135867430Y-90265043D01*
X135917700Y-90143681D01*
X135917700Y-89588350D01*
X136941800Y-89588350D01*
X136941800Y-90143681D01*
X136992070Y-90265043D01*
X137084957Y-90357930D01*
X137206319Y-90408200D01*
X137661650Y-90408200D01*
X137744200Y-90325650D01*
X137744200Y-89505800D01*
X138099800Y-89505800D01*
X138099800Y-90325650D01*
X138182350Y-90408200D01*
X138637681Y-90408200D01*
X138759043Y-90357930D01*
X138851930Y-90265043D01*
X138902200Y-90143681D01*
X138902200Y-89588350D01*
X138819650Y-89505800D01*
X138099800Y-89505800D01*
X137744200Y-89505800D01*
X137024350Y-89505800D01*
X136941800Y-89588350D01*
X135917700Y-89588350D01*
X135835150Y-89505800D01*
X135115300Y-89505800D01*
X134759700Y-89505800D01*
X134039850Y-89505800D01*
X133957300Y-89588350D01*
X128827600Y-89588350D01*
X128827600Y-88512319D01*
X133957300Y-88512319D01*
X133957300Y-89067650D01*
X134039850Y-89150200D01*
X134759700Y-89150200D01*
X134759700Y-88330350D01*
X135115300Y-88330350D01*
X135115300Y-89150200D01*
X135835150Y-89150200D01*
X135917700Y-89067650D01*
X135917700Y-88512319D01*
X136941800Y-88512319D01*
X136941800Y-89067650D01*
X137024350Y-89150200D01*
X137744200Y-89150200D01*
X137744200Y-88330350D01*
X138099800Y-88330350D01*
X138099800Y-89150200D01*
X138819650Y-89150200D01*
X138902200Y-89067650D01*
X138902200Y-88759180D01*
X139382401Y-88759180D01*
X139469224Y-88969306D01*
X139629849Y-89130211D01*
X139839823Y-89217400D01*
X139889521Y-89217443D01*
X140017500Y-89242901D01*
X140017505Y-89242900D01*
X140351422Y-89242900D01*
X140351422Y-89359500D01*
X140367362Y-89444214D01*
X140417428Y-89522018D01*
X140493820Y-89574215D01*
X140584500Y-89592578D01*
X142084500Y-89592578D01*
X142169214Y-89576638D01*
X142247018Y-89526572D01*
X142299215Y-89450180D01*
X142317578Y-89359500D01*
X142317578Y-88969850D01*
X142954300Y-88969850D01*
X142954300Y-89425181D01*
X143004570Y-89546543D01*
X143097457Y-89639430D01*
X143218819Y-89689700D01*
X143774150Y-89689700D01*
X143856700Y-89607150D01*
X143856700Y-88887300D01*
X144212300Y-88887300D01*
X144212300Y-89607150D01*
X144294850Y-89689700D01*
X144850181Y-89689700D01*
X144971543Y-89639430D01*
X145064430Y-89546543D01*
X145114700Y-89425181D01*
X145114700Y-88969850D01*
X145032150Y-88887300D01*
X144212300Y-88887300D01*
X143856700Y-88887300D01*
X143036850Y-88887300D01*
X142954300Y-88969850D01*
X142317578Y-88969850D01*
X142317578Y-88826636D01*
X152340503Y-88826636D01*
X152628600Y-89114733D01*
X152916697Y-88826636D01*
X152880493Y-88718811D01*
X152617018Y-88671011D01*
X152376707Y-88718811D01*
X152340503Y-88826636D01*
X142317578Y-88826636D01*
X142317578Y-88566964D01*
X145914303Y-88566964D01*
X145950507Y-88674789D01*
X146213982Y-88722589D01*
X146454293Y-88674789D01*
X146490497Y-88566964D01*
X146202400Y-88278867D01*
X145914303Y-88566964D01*
X142317578Y-88566964D01*
X142317578Y-88059500D01*
X142305220Y-87993819D01*
X142954300Y-87993819D01*
X142954300Y-88449150D01*
X143036850Y-88531700D01*
X143856700Y-88531700D01*
X143856700Y-87811850D01*
X144212300Y-87811850D01*
X144212300Y-88531700D01*
X145032150Y-88531700D01*
X145114700Y-88449150D01*
X145114700Y-88047982D01*
X145516211Y-88047982D01*
X145564011Y-88288293D01*
X145671836Y-88324497D01*
X145959933Y-88036400D01*
X146444867Y-88036400D01*
X146732964Y-88324497D01*
X146840789Y-88288293D01*
X146888589Y-88024818D01*
X146840789Y-87784507D01*
X146732964Y-87748303D01*
X146444867Y-88036400D01*
X145959933Y-88036400D01*
X145671836Y-87748303D01*
X145564011Y-87784507D01*
X145516211Y-88047982D01*
X145114700Y-88047982D01*
X145114700Y-87993819D01*
X145064430Y-87872457D01*
X144971543Y-87779570D01*
X144850181Y-87729300D01*
X144294850Y-87729300D01*
X144212300Y-87811850D01*
X143856700Y-87811850D01*
X143774150Y-87729300D01*
X143218819Y-87729300D01*
X143097457Y-87779570D01*
X143004570Y-87872457D01*
X142954300Y-87993819D01*
X142305220Y-87993819D01*
X142301638Y-87974786D01*
X142251572Y-87896982D01*
X142175180Y-87844785D01*
X142084500Y-87826422D01*
X140584500Y-87826422D01*
X140499786Y-87842362D01*
X140421982Y-87892428D01*
X140369785Y-87968820D01*
X140351422Y-88059500D01*
X140351422Y-88176100D01*
X140292437Y-88176100D01*
X140278151Y-88161789D01*
X140068177Y-88074600D01*
X139840820Y-88074401D01*
X139630694Y-88161224D01*
X139469789Y-88321849D01*
X139382600Y-88531823D01*
X139382401Y-88759180D01*
X138902200Y-88759180D01*
X138902200Y-88512319D01*
X138851930Y-88390957D01*
X138759043Y-88298070D01*
X138637681Y-88247800D01*
X138182350Y-88247800D01*
X138099800Y-88330350D01*
X137744200Y-88330350D01*
X137661650Y-88247800D01*
X137206319Y-88247800D01*
X137084957Y-88298070D01*
X136992070Y-88390957D01*
X136941800Y-88512319D01*
X135917700Y-88512319D01*
X135867430Y-88390957D01*
X135774543Y-88298070D01*
X135653181Y-88247800D01*
X135197850Y-88247800D01*
X135115300Y-88330350D01*
X134759700Y-88330350D01*
X134677150Y-88247800D01*
X134221819Y-88247800D01*
X134100457Y-88298070D01*
X134007570Y-88390957D01*
X133957300Y-88512319D01*
X128827600Y-88512319D01*
X128827600Y-86623115D01*
X130751170Y-86623115D01*
X130953011Y-87111608D01*
X131326426Y-87485676D01*
X131814566Y-87688369D01*
X132343115Y-87688830D01*
X132738249Y-87525564D01*
X134992303Y-87525564D01*
X135028507Y-87633389D01*
X135291982Y-87681189D01*
X135532293Y-87633389D01*
X135568497Y-87525564D01*
X136186103Y-87525564D01*
X136222307Y-87633389D01*
X136485782Y-87681189D01*
X136726093Y-87633389D01*
X136762297Y-87525564D01*
X137379903Y-87525564D01*
X137416107Y-87633389D01*
X137679582Y-87681189D01*
X137919893Y-87633389D01*
X137956097Y-87525564D01*
X137936369Y-87505836D01*
X145914303Y-87505836D01*
X146202400Y-87793933D01*
X146490497Y-87505836D01*
X146454293Y-87398011D01*
X146190818Y-87350211D01*
X145950507Y-87398011D01*
X145914303Y-87505836D01*
X137936369Y-87505836D01*
X137668000Y-87237467D01*
X137379903Y-87525564D01*
X136762297Y-87525564D01*
X136474200Y-87237467D01*
X136186103Y-87525564D01*
X135568497Y-87525564D01*
X135280400Y-87237467D01*
X134992303Y-87525564D01*
X132738249Y-87525564D01*
X132831608Y-87486989D01*
X133205676Y-87113574D01*
X133250102Y-87006582D01*
X134594211Y-87006582D01*
X134642011Y-87246893D01*
X134749836Y-87283097D01*
X135037933Y-86995000D01*
X135522867Y-86995000D01*
X135810964Y-87283097D01*
X135877300Y-87260824D01*
X135943636Y-87283097D01*
X136231733Y-86995000D01*
X136716667Y-86995000D01*
X137004764Y-87283097D01*
X137071100Y-87260824D01*
X137137436Y-87283097D01*
X137425533Y-86995000D01*
X137910467Y-86995000D01*
X138198564Y-87283097D01*
X138306389Y-87246893D01*
X138354189Y-86983418D01*
X138306389Y-86743107D01*
X138198564Y-86706903D01*
X137910467Y-86995000D01*
X137425533Y-86995000D01*
X137137436Y-86706903D01*
X137071100Y-86729176D01*
X137004764Y-86706903D01*
X136716667Y-86995000D01*
X136231733Y-86995000D01*
X135943636Y-86706903D01*
X135877300Y-86729176D01*
X135810964Y-86706903D01*
X135522867Y-86995000D01*
X135037933Y-86995000D01*
X134749836Y-86706903D01*
X134642011Y-86743107D01*
X134594211Y-87006582D01*
X133250102Y-87006582D01*
X133408369Y-86625434D01*
X133408735Y-86204764D01*
X134941503Y-86204764D01*
X134977707Y-86312589D01*
X135120022Y-86338408D01*
X135028507Y-86356611D01*
X134992303Y-86464436D01*
X135280400Y-86752533D01*
X135568497Y-86464436D01*
X135532293Y-86356611D01*
X135389978Y-86330792D01*
X135481493Y-86312589D01*
X135517697Y-86204764D01*
X136135303Y-86204764D01*
X136171507Y-86312589D01*
X136313822Y-86338408D01*
X136222307Y-86356611D01*
X136186103Y-86464436D01*
X136474200Y-86752533D01*
X136762297Y-86464436D01*
X136726093Y-86356611D01*
X136583778Y-86330792D01*
X136675293Y-86312589D01*
X136711497Y-86204764D01*
X137329103Y-86204764D01*
X137365307Y-86312589D01*
X137507622Y-86338408D01*
X137416107Y-86356611D01*
X137379903Y-86464436D01*
X137668000Y-86752533D01*
X137956097Y-86464436D01*
X137919893Y-86356611D01*
X137777578Y-86330792D01*
X137869093Y-86312589D01*
X137905297Y-86204764D01*
X137617200Y-85916667D01*
X137329103Y-86204764D01*
X136711497Y-86204764D01*
X136423400Y-85916667D01*
X136135303Y-86204764D01*
X135517697Y-86204764D01*
X135229600Y-85916667D01*
X134941503Y-86204764D01*
X133408735Y-86204764D01*
X133408830Y-86096885D01*
X133238966Y-85685782D01*
X134543411Y-85685782D01*
X134591211Y-85926093D01*
X134699036Y-85962297D01*
X134987133Y-85674200D01*
X135472067Y-85674200D01*
X135760164Y-85962297D01*
X135826500Y-85940024D01*
X135892836Y-85962297D01*
X136180933Y-85674200D01*
X136665867Y-85674200D01*
X136953964Y-85962297D01*
X137020300Y-85940024D01*
X137086636Y-85962297D01*
X137374733Y-85674200D01*
X137859667Y-85674200D01*
X138147764Y-85962297D01*
X138255589Y-85926093D01*
X138290919Y-85731350D01*
X138823700Y-85731350D01*
X138823700Y-86552681D01*
X138873970Y-86674043D01*
X138966857Y-86766930D01*
X139088219Y-86817200D01*
X139757150Y-86817200D01*
X139839700Y-86734650D01*
X139839700Y-85648800D01*
X140195300Y-85648800D01*
X140195300Y-86734650D01*
X140277850Y-86817200D01*
X140946781Y-86817200D01*
X141068143Y-86766930D01*
X141161030Y-86674043D01*
X141211300Y-86552681D01*
X141211300Y-85731350D01*
X141128750Y-85648800D01*
X140195300Y-85648800D01*
X139839700Y-85648800D01*
X138906250Y-85648800D01*
X138823700Y-85731350D01*
X138290919Y-85731350D01*
X138303389Y-85662618D01*
X138255589Y-85422307D01*
X138147764Y-85386103D01*
X137859667Y-85674200D01*
X137374733Y-85674200D01*
X137086636Y-85386103D01*
X137020300Y-85408376D01*
X136953964Y-85386103D01*
X136665867Y-85674200D01*
X136180933Y-85674200D01*
X135892836Y-85386103D01*
X135826500Y-85408376D01*
X135760164Y-85386103D01*
X135472067Y-85674200D01*
X134987133Y-85674200D01*
X134699036Y-85386103D01*
X134591211Y-85422307D01*
X134543411Y-85685782D01*
X133238966Y-85685782D01*
X133206989Y-85608392D01*
X132833574Y-85234324D01*
X132345434Y-85031631D01*
X131816885Y-85031170D01*
X131328392Y-85233011D01*
X130954324Y-85606426D01*
X130751631Y-86094566D01*
X130751170Y-86623115D01*
X128827600Y-86623115D01*
X128827600Y-84934764D01*
X134839903Y-84934764D01*
X134876107Y-85042589D01*
X134969728Y-85059574D01*
X134941503Y-85143636D01*
X135229600Y-85431733D01*
X135517697Y-85143636D01*
X135481493Y-85035811D01*
X135387872Y-85018826D01*
X135416097Y-84934764D01*
X136033703Y-84934764D01*
X136069907Y-85042589D01*
X136163528Y-85059574D01*
X136135303Y-85143636D01*
X136423400Y-85431733D01*
X136711497Y-85143636D01*
X136675293Y-85035811D01*
X136581672Y-85018826D01*
X136609897Y-84934764D01*
X137227503Y-84934764D01*
X137263707Y-85042589D01*
X137357328Y-85059574D01*
X137329103Y-85143636D01*
X137617200Y-85431733D01*
X137754716Y-85294217D01*
X141465300Y-85294217D01*
X141465300Y-85647783D01*
X141548439Y-86065750D01*
X141785198Y-86420085D01*
X142139533Y-86656844D01*
X142557500Y-86739983D01*
X142975467Y-86656844D01*
X143329802Y-86420085D01*
X143566561Y-86065750D01*
X143649700Y-85647783D01*
X143649700Y-85294217D01*
X144005300Y-85294217D01*
X144005300Y-85647783D01*
X144088439Y-86065750D01*
X144325198Y-86420085D01*
X144679533Y-86656844D01*
X145097500Y-86739983D01*
X145515467Y-86656844D01*
X145565946Y-86623115D01*
X149801170Y-86623115D01*
X150003011Y-87111608D01*
X150376426Y-87485676D01*
X150864566Y-87688369D01*
X151393115Y-87688830D01*
X151881608Y-87486989D01*
X152255676Y-87113574D01*
X152458369Y-86625434D01*
X152458830Y-86096885D01*
X152256989Y-85608392D01*
X151883574Y-85234324D01*
X151395434Y-85031631D01*
X150866885Y-85031170D01*
X150378392Y-85233011D01*
X150004324Y-85606426D01*
X149801631Y-86094566D01*
X149801170Y-86623115D01*
X145565946Y-86623115D01*
X145869802Y-86420085D01*
X145928816Y-86331764D01*
X147616103Y-86331764D01*
X147652307Y-86439589D01*
X147915782Y-86487389D01*
X148156093Y-86439589D01*
X148192297Y-86331764D01*
X147904200Y-86043667D01*
X147616103Y-86331764D01*
X145928816Y-86331764D01*
X146106561Y-86065750D01*
X146156879Y-85812782D01*
X147218011Y-85812782D01*
X147265811Y-86053093D01*
X147373636Y-86089297D01*
X147661733Y-85801200D01*
X148146667Y-85801200D01*
X148434764Y-86089297D01*
X148542589Y-86053093D01*
X148590389Y-85789618D01*
X148542589Y-85549307D01*
X148434764Y-85513103D01*
X148146667Y-85801200D01*
X147661733Y-85801200D01*
X147373636Y-85513103D01*
X147265811Y-85549307D01*
X147218011Y-85812782D01*
X146156879Y-85812782D01*
X146189700Y-85647783D01*
X146189700Y-85294217D01*
X146185010Y-85270636D01*
X147616103Y-85270636D01*
X147904200Y-85558733D01*
X148192297Y-85270636D01*
X148156093Y-85162811D01*
X147892618Y-85115011D01*
X147652307Y-85162811D01*
X147616103Y-85270636D01*
X146185010Y-85270636D01*
X146118201Y-84934764D01*
X147666903Y-84934764D01*
X147703107Y-85042589D01*
X147966582Y-85090389D01*
X148206893Y-85042589D01*
X148243097Y-84934764D01*
X147955000Y-84646667D01*
X147666903Y-84934764D01*
X146118201Y-84934764D01*
X146106561Y-84876250D01*
X145869802Y-84521915D01*
X145710963Y-84415782D01*
X147268811Y-84415782D01*
X147316611Y-84656093D01*
X147424436Y-84692297D01*
X147712533Y-84404200D01*
X148197467Y-84404200D01*
X148485564Y-84692297D01*
X148593389Y-84656093D01*
X148641189Y-84392618D01*
X148593389Y-84152307D01*
X148485564Y-84116103D01*
X148197467Y-84404200D01*
X147712533Y-84404200D01*
X147424436Y-84116103D01*
X147316611Y-84152307D01*
X147268811Y-84415782D01*
X145710963Y-84415782D01*
X145515467Y-84285156D01*
X145097500Y-84202017D01*
X144679533Y-84285156D01*
X144325198Y-84521915D01*
X144088439Y-84876250D01*
X144005300Y-85294217D01*
X143649700Y-85294217D01*
X143566561Y-84876250D01*
X143329802Y-84521915D01*
X142975467Y-84285156D01*
X142557500Y-84202017D01*
X142139533Y-84285156D01*
X141785198Y-84521915D01*
X141548439Y-84876250D01*
X141465300Y-85294217D01*
X137754716Y-85294217D01*
X137905297Y-85143636D01*
X137869093Y-85035811D01*
X137775472Y-85018826D01*
X137803697Y-84934764D01*
X137515600Y-84646667D01*
X137227503Y-84934764D01*
X136609897Y-84934764D01*
X136321800Y-84646667D01*
X136033703Y-84934764D01*
X135416097Y-84934764D01*
X135128000Y-84646667D01*
X134839903Y-84934764D01*
X128827600Y-84934764D01*
X128827600Y-84415782D01*
X134441811Y-84415782D01*
X134489611Y-84656093D01*
X134597436Y-84692297D01*
X134885533Y-84404200D01*
X135370467Y-84404200D01*
X135658564Y-84692297D01*
X135724900Y-84670024D01*
X135791236Y-84692297D01*
X136079333Y-84404200D01*
X136564267Y-84404200D01*
X136852364Y-84692297D01*
X136918700Y-84670024D01*
X136985036Y-84692297D01*
X137273133Y-84404200D01*
X137758067Y-84404200D01*
X138046164Y-84692297D01*
X138153989Y-84656093D01*
X138201789Y-84392618D01*
X138201133Y-84389319D01*
X138823700Y-84389319D01*
X138823700Y-85210650D01*
X138906250Y-85293200D01*
X139839700Y-85293200D01*
X139839700Y-84207350D01*
X140195300Y-84207350D01*
X140195300Y-85293200D01*
X141128750Y-85293200D01*
X141211300Y-85210650D01*
X141211300Y-84389319D01*
X141161030Y-84267957D01*
X141068143Y-84175070D01*
X140946781Y-84124800D01*
X140277850Y-84124800D01*
X140195300Y-84207350D01*
X139839700Y-84207350D01*
X139757150Y-84124800D01*
X139088219Y-84124800D01*
X138966857Y-84175070D01*
X138873970Y-84267957D01*
X138823700Y-84389319D01*
X138201133Y-84389319D01*
X138153989Y-84152307D01*
X138046164Y-84116103D01*
X137758067Y-84404200D01*
X137273133Y-84404200D01*
X136985036Y-84116103D01*
X136918700Y-84138376D01*
X136852364Y-84116103D01*
X136564267Y-84404200D01*
X136079333Y-84404200D01*
X135791236Y-84116103D01*
X135724900Y-84138376D01*
X135658564Y-84116103D01*
X135370467Y-84404200D01*
X134885533Y-84404200D01*
X134597436Y-84116103D01*
X134489611Y-84152307D01*
X134441811Y-84415782D01*
X128827600Y-84415782D01*
X128827600Y-83873636D01*
X134839903Y-83873636D01*
X135128000Y-84161733D01*
X135416097Y-83873636D01*
X136033703Y-83873636D01*
X136321800Y-84161733D01*
X136609897Y-83873636D01*
X137227503Y-83873636D01*
X137515600Y-84161733D01*
X137803697Y-83873636D01*
X147666903Y-83873636D01*
X147955000Y-84161733D01*
X148243097Y-83873636D01*
X148206893Y-83765811D01*
X147943418Y-83718011D01*
X147703107Y-83765811D01*
X147666903Y-83873636D01*
X137803697Y-83873636D01*
X137767493Y-83765811D01*
X137504018Y-83718011D01*
X137263707Y-83765811D01*
X137227503Y-83873636D01*
X136609897Y-83873636D01*
X136573693Y-83765811D01*
X136310218Y-83718011D01*
X136069907Y-83765811D01*
X136033703Y-83873636D01*
X135416097Y-83873636D01*
X135379893Y-83765811D01*
X135116418Y-83718011D01*
X134876107Y-83765811D01*
X134839903Y-83873636D01*
X128827600Y-83873636D01*
X128827600Y-83615600D01*
X153620400Y-83615600D01*
X153620400Y-106884400D01*
M02*
