M48
;DRILL file {KiCad 4.0.2-stable} date Wednesday, January 18, 2017 'PMt' 01:24:01 PM
;FORMAT={-:-/ absolute / metric / decimal}
FMAT,2
METRIC,TZ
T1C0.330
T2C1.016
T3C2.200
%
G90
G05
M71
T1
X129.769Y-101.346
X133.299Y-94.234
X133.553Y-99.187
X133.553Y-101.041
X134.366Y-96.774
X135.128Y-84.404
X135.128Y-93.218
X135.179Y-105.029
X135.23Y-85.674
X135.255Y-102.235
X135.255Y-103.581
X135.28Y-86.995
X136.322Y-84.404
X136.398Y-93.65
X136.423Y-85.674
X136.449Y-105.029
X136.474Y-86.995
X136.525Y-103.581
X136.779Y-102.21
X137.516Y-84.404
X137.592Y-97.815
X137.617Y-85.674
X137.668Y-86.995
X137.668Y-99.289
X137.668Y-100.66
X137.693Y-105.029
X137.77Y-103.581
X138.049Y-102.21
X139.294Y-102.21
X139.446Y-92.964
X139.954Y-88.646
X140.919Y-95.352
X141.605Y-98.679
X141.63Y-100.076
X141.63Y-101.371
X141.757Y-102.921
X145.542Y-89.916
X146.05Y-98.425
X146.05Y-99.695
X146.05Y-100.965
X146.05Y-102.311
X146.05Y-103.581
X146.05Y-104.8
X146.05Y-106.07
X146.202Y-88.036
X147.015Y-93.447
X147.32Y-97.155
X147.32Y-98.425
X147.32Y-99.695
X147.32Y-100.965
X147.32Y-102.311
X147.32Y-103.581
X147.32Y-104.8
X147.32Y-106.07
X147.904Y-85.801
X147.955Y-84.404
X148.565Y-102.311
X148.59Y-95.885
X148.59Y-97.155
X148.59Y-98.425
X148.59Y-99.695
X148.59Y-100.965
X149.123Y-92.812
X149.86Y-99.695
X149.86Y-100.965
X151.13Y-99.695
X151.13Y-100.965
X152.375Y-99.695
X152.375Y-100.965
X152.502Y-90.5
X152.629Y-89.357
X152.629Y-91.846
X152.654Y-97.028
T2
X130.619Y-91.313
X130.619Y-93.853
X130.619Y-96.393
X130.619Y-98.933
X140.017Y-85.471
X140.525Y-105.093
X142.558Y-85.471
X143.065Y-105.093
X145.097Y-85.471
T3
X132.08Y-86.36
X132.08Y-104.14
X151.13Y-86.36
X151.13Y-104.14
T0
M30
