G04 #@! TF.FileFunction,Soldermask,Bot*
%FSLAX46Y46*%
G04 Gerber Fmt 4.6, Leading zero omitted, Abs format (unit mm)*
G04 Created by KiCad (PCBNEW 4.0.2-stable) date Wednesday, January 18, 2017 'PMt' 01:33:48 PM*
%MOMM*%
G01*
G04 APERTURE LIST*
%ADD10C,0.100000*%
G04 APERTURE END LIST*
D10*
G36*
X146238926Y-114237705D02*
X146238973Y-114237710D01*
X146414187Y-114291948D01*
X146575529Y-114379185D01*
X146716855Y-114496100D01*
X146832779Y-114638238D01*
X146918888Y-114800185D01*
X146971902Y-114975774D01*
X146989800Y-115158315D01*
X146989800Y-115473717D01*
X146989723Y-115484749D01*
X146989722Y-115484754D01*
X146989708Y-115486807D01*
X146969263Y-115669080D01*
X146913803Y-115843912D01*
X146825442Y-116004641D01*
X146707544Y-116145146D01*
X146564600Y-116260076D01*
X146402055Y-116345052D01*
X146226101Y-116396839D01*
X146226060Y-116396843D01*
X146226056Y-116396844D01*
X146043442Y-116413463D01*
X145861074Y-116394295D01*
X145861027Y-116394290D01*
X145685813Y-116340052D01*
X145524471Y-116252815D01*
X145383145Y-116135900D01*
X145267221Y-115993762D01*
X145181112Y-115831815D01*
X145128098Y-115656226D01*
X145110200Y-115473685D01*
X145110200Y-115158283D01*
X145110277Y-115147251D01*
X145110278Y-115147246D01*
X145110292Y-115145193D01*
X145130737Y-114962920D01*
X145186197Y-114788088D01*
X145274558Y-114627359D01*
X145392456Y-114486854D01*
X145535400Y-114371924D01*
X145697945Y-114286948D01*
X145873899Y-114235161D01*
X145873940Y-114235157D01*
X145873944Y-114235156D01*
X146056558Y-114218537D01*
X146238926Y-114237705D01*
X146238926Y-114237705D01*
G37*
G36*
X148778926Y-114237705D02*
X148778973Y-114237710D01*
X148954187Y-114291948D01*
X149115529Y-114379185D01*
X149256855Y-114496100D01*
X149372779Y-114638238D01*
X149458888Y-114800185D01*
X149511902Y-114975774D01*
X149529800Y-115158315D01*
X149529800Y-115473717D01*
X149529723Y-115484749D01*
X149529722Y-115484754D01*
X149529708Y-115486807D01*
X149509263Y-115669080D01*
X149453803Y-115843912D01*
X149365442Y-116004641D01*
X149247544Y-116145146D01*
X149104600Y-116260076D01*
X148942055Y-116345052D01*
X148766101Y-116396839D01*
X148766060Y-116396843D01*
X148766056Y-116396844D01*
X148583442Y-116413463D01*
X148401074Y-116394295D01*
X148401027Y-116394290D01*
X148225813Y-116340052D01*
X148064471Y-116252815D01*
X147923145Y-116135900D01*
X147807221Y-115993762D01*
X147721112Y-115831815D01*
X147668098Y-115656226D01*
X147650200Y-115473685D01*
X147650200Y-115158283D01*
X147650277Y-115147251D01*
X147650278Y-115147246D01*
X147650292Y-115145193D01*
X147670737Y-114962920D01*
X147726197Y-114788088D01*
X147814558Y-114627359D01*
X147932456Y-114486854D01*
X148075400Y-114371924D01*
X148237945Y-114286948D01*
X148413899Y-114235161D01*
X148413940Y-114235157D01*
X148413944Y-114235156D01*
X148596558Y-114218537D01*
X148778926Y-114237705D01*
X148778926Y-114237705D01*
G37*
G36*
X152069800Y-116408200D02*
X150190200Y-116408200D01*
X150190200Y-114223800D01*
X152069800Y-114223800D01*
X152069800Y-116408200D01*
X152069800Y-116408200D01*
G37*
G36*
X153948043Y-111617357D02*
X154109058Y-111650409D01*
X154260601Y-111714111D01*
X154396873Y-111806029D01*
X154512706Y-111922672D01*
X154603668Y-112059582D01*
X154666310Y-112211563D01*
X154698168Y-112372456D01*
X154698168Y-112372466D01*
X154698236Y-112372810D01*
X154695615Y-112560563D01*
X154695537Y-112560906D01*
X154695537Y-112560909D01*
X154659197Y-112720861D01*
X154592340Y-112871025D01*
X154497584Y-113005347D01*
X154378545Y-113118708D01*
X154239753Y-113206788D01*
X154086499Y-113266231D01*
X153924619Y-113294775D01*
X153760273Y-113291332D01*
X153599728Y-113256035D01*
X153449094Y-113190224D01*
X153314118Y-113096413D01*
X153199930Y-112978168D01*
X153110883Y-112839994D01*
X153050369Y-112687153D01*
X153020697Y-112525481D01*
X153022991Y-112361116D01*
X153057169Y-112200326D01*
X153121923Y-112049240D01*
X153214794Y-111913607D01*
X153332237Y-111798598D01*
X153469786Y-111708588D01*
X153622197Y-111647010D01*
X153783662Y-111616209D01*
X153948043Y-111617357D01*
X153948043Y-111617357D01*
G37*
G36*
X151298043Y-110287357D02*
X151459058Y-110320409D01*
X151610601Y-110384111D01*
X151746873Y-110476029D01*
X151862706Y-110592672D01*
X151953668Y-110729582D01*
X152016310Y-110881563D01*
X152048168Y-111042456D01*
X152048168Y-111042466D01*
X152048236Y-111042810D01*
X152045615Y-111230563D01*
X152045537Y-111230906D01*
X152045537Y-111230909D01*
X152009197Y-111390861D01*
X151942340Y-111541025D01*
X151847584Y-111675347D01*
X151728545Y-111788708D01*
X151589753Y-111876788D01*
X151436499Y-111936231D01*
X151274619Y-111964775D01*
X151110273Y-111961332D01*
X150949728Y-111926035D01*
X150799094Y-111860224D01*
X150664118Y-111766413D01*
X150549930Y-111648168D01*
X150460883Y-111509994D01*
X150400369Y-111357153D01*
X150370697Y-111195481D01*
X150372991Y-111031116D01*
X150407169Y-110870326D01*
X150471923Y-110719240D01*
X150564794Y-110583607D01*
X150682237Y-110468598D01*
X150819786Y-110378588D01*
X150972197Y-110317010D01*
X151133662Y-110286209D01*
X151298043Y-110287357D01*
X151298043Y-110287357D01*
G37*
G36*
X161298043Y-110287357D02*
X161459058Y-110320409D01*
X161610601Y-110384111D01*
X161746873Y-110476029D01*
X161862706Y-110592672D01*
X161953668Y-110729582D01*
X162016310Y-110881563D01*
X162048168Y-111042456D01*
X162048168Y-111042466D01*
X162048236Y-111042810D01*
X162045615Y-111230563D01*
X162045537Y-111230906D01*
X162045537Y-111230909D01*
X162009197Y-111390861D01*
X161942340Y-111541025D01*
X161847584Y-111675347D01*
X161728545Y-111788708D01*
X161589753Y-111876788D01*
X161436499Y-111936231D01*
X161274619Y-111964775D01*
X161110273Y-111961332D01*
X160949728Y-111926035D01*
X160799094Y-111860224D01*
X160664118Y-111766413D01*
X160549930Y-111648168D01*
X160460883Y-111509994D01*
X160400369Y-111357153D01*
X160370697Y-111195481D01*
X160372991Y-111031116D01*
X160407169Y-110870326D01*
X160471923Y-110719240D01*
X160564794Y-110583607D01*
X160682237Y-110468598D01*
X160819786Y-110378588D01*
X160972197Y-110317010D01*
X161133662Y-110286209D01*
X161298043Y-110287357D01*
X161298043Y-110287357D01*
G37*
G36*
X151298043Y-107747357D02*
X151459058Y-107780409D01*
X151610601Y-107844111D01*
X151746873Y-107936029D01*
X151862706Y-108052672D01*
X151953668Y-108189582D01*
X152016310Y-108341563D01*
X152048168Y-108502456D01*
X152048168Y-108502466D01*
X152048236Y-108502810D01*
X152045615Y-108690563D01*
X152045537Y-108690906D01*
X152045537Y-108690909D01*
X152009197Y-108850861D01*
X151942340Y-109001025D01*
X151847584Y-109135347D01*
X151728545Y-109248708D01*
X151589753Y-109336788D01*
X151436499Y-109396231D01*
X151274619Y-109424775D01*
X151110273Y-109421332D01*
X150949728Y-109386035D01*
X150799094Y-109320224D01*
X150664118Y-109226413D01*
X150549930Y-109108168D01*
X150460883Y-108969994D01*
X150400369Y-108817153D01*
X150370697Y-108655481D01*
X150372991Y-108491116D01*
X150407169Y-108330326D01*
X150471923Y-108179240D01*
X150564794Y-108043607D01*
X150682237Y-107928598D01*
X150819786Y-107838588D01*
X150972197Y-107777010D01*
X151133662Y-107746209D01*
X151298043Y-107747357D01*
X151298043Y-107747357D01*
G37*
G36*
X161298043Y-107747357D02*
X161459058Y-107780409D01*
X161610601Y-107844111D01*
X161746873Y-107936029D01*
X161862706Y-108052672D01*
X161953668Y-108189582D01*
X162016310Y-108341563D01*
X162048168Y-108502456D01*
X162048168Y-108502466D01*
X162048236Y-108502810D01*
X162045615Y-108690563D01*
X162045537Y-108690906D01*
X162045537Y-108690909D01*
X162009197Y-108850861D01*
X161942340Y-109001025D01*
X161847584Y-109135347D01*
X161728545Y-109248708D01*
X161589753Y-109336788D01*
X161436499Y-109396231D01*
X161274619Y-109424775D01*
X161110273Y-109421332D01*
X160949728Y-109386035D01*
X160799094Y-109320224D01*
X160664118Y-109226413D01*
X160549930Y-109108168D01*
X160460883Y-108969994D01*
X160400369Y-108817153D01*
X160370697Y-108655481D01*
X160372991Y-108491116D01*
X160407169Y-108330326D01*
X160471923Y-108179240D01*
X160564794Y-108043607D01*
X160682237Y-107928598D01*
X160819786Y-107838588D01*
X160972197Y-107777010D01*
X161133662Y-107746209D01*
X161298043Y-107747357D01*
X161298043Y-107747357D01*
G37*
G36*
X162898043Y-106417357D02*
X163059058Y-106450409D01*
X163210601Y-106514111D01*
X163346873Y-106606029D01*
X163462706Y-106722672D01*
X163553668Y-106859582D01*
X163616310Y-107011563D01*
X163648168Y-107172456D01*
X163648168Y-107172466D01*
X163648236Y-107172810D01*
X163645615Y-107360563D01*
X163645537Y-107360906D01*
X163645537Y-107360909D01*
X163609197Y-107520861D01*
X163542340Y-107671025D01*
X163447584Y-107805347D01*
X163328545Y-107918708D01*
X163189753Y-108006788D01*
X163036499Y-108066231D01*
X162874619Y-108094775D01*
X162710273Y-108091332D01*
X162549728Y-108056035D01*
X162399094Y-107990224D01*
X162264118Y-107896413D01*
X162149930Y-107778168D01*
X162060883Y-107639994D01*
X162000369Y-107487153D01*
X161970697Y-107325481D01*
X161972991Y-107161116D01*
X162007169Y-107000326D01*
X162071923Y-106849240D01*
X162164794Y-106713607D01*
X162282237Y-106598598D01*
X162419786Y-106508588D01*
X162572197Y-106447010D01*
X162733662Y-106416209D01*
X162898043Y-106417357D01*
X162898043Y-106417357D01*
G37*
M02*
