G04 #@! TF.FileFunction,Legend,Bot*
%FSLAX46Y46*%
G04 Gerber Fmt 4.6, Leading zero omitted, Abs format (unit mm)*
G04 Created by KiCad (PCBNEW 4.0.2-stable) date Wednesday, January 18, 2017 'PMt' 01:33:48 PM*
%MOMM*%
G01*
G04 APERTURE LIST*
%ADD10C,0.100000*%
%ADD11C,1.676400*%
%ADD12R,1.879600X2.184400*%
%ADD13O,1.879600X2.184400*%
G04 APERTURE END LIST*
D10*
X146692856Y-113319714D02*
X146311904Y-113319714D01*
X146502380Y-113510190D02*
X146502380Y-113129238D01*
X145835713Y-113010190D02*
X146073808Y-113010190D01*
X146097618Y-113248286D01*
X146073808Y-113224476D01*
X146026189Y-113200667D01*
X145907142Y-113200667D01*
X145859523Y-113224476D01*
X145835713Y-113248286D01*
X145811904Y-113295905D01*
X145811904Y-113414952D01*
X145835713Y-113462571D01*
X145859523Y-113486381D01*
X145907142Y-113510190D01*
X146026189Y-113510190D01*
X146073808Y-113486381D01*
X146097618Y-113462571D01*
X145669047Y-113010190D02*
X145502380Y-113510190D01*
X145335714Y-113010190D01*
X149165429Y-113034000D02*
X149213048Y-113010190D01*
X149284476Y-113010190D01*
X149355905Y-113034000D01*
X149403524Y-113081619D01*
X149427333Y-113129238D01*
X149451143Y-113224476D01*
X149451143Y-113295905D01*
X149427333Y-113391143D01*
X149403524Y-113438762D01*
X149355905Y-113486381D01*
X149284476Y-113510190D01*
X149236857Y-113510190D01*
X149165429Y-113486381D01*
X149141619Y-113462571D01*
X149141619Y-113295905D01*
X149236857Y-113295905D01*
X148927333Y-113176857D02*
X148927333Y-113510190D01*
X148927333Y-113224476D02*
X148903524Y-113200667D01*
X148855905Y-113176857D01*
X148784476Y-113176857D01*
X148736857Y-113200667D01*
X148713048Y-113248286D01*
X148713048Y-113510190D01*
X148260667Y-113510190D02*
X148260667Y-113010190D01*
X148260667Y-113486381D02*
X148308286Y-113510190D01*
X148403524Y-113510190D01*
X148451143Y-113486381D01*
X148474952Y-113462571D01*
X148498762Y-113414952D01*
X148498762Y-113272095D01*
X148474952Y-113224476D01*
X148451143Y-113200667D01*
X148403524Y-113176857D01*
X148308286Y-113176857D01*
X148260667Y-113200667D01*
X155249428Y-115772381D02*
X155177999Y-115796190D01*
X155058952Y-115796190D01*
X155011333Y-115772381D01*
X154987523Y-115748571D01*
X154963714Y-115700952D01*
X154963714Y-115653333D01*
X154987523Y-115605714D01*
X155011333Y-115581905D01*
X155058952Y-115558095D01*
X155154190Y-115534286D01*
X155201809Y-115510476D01*
X155225618Y-115486667D01*
X155249428Y-115439048D01*
X155249428Y-115391429D01*
X155225618Y-115343810D01*
X155201809Y-115320000D01*
X155154190Y-115296190D01*
X155035142Y-115296190D01*
X154963714Y-115320000D01*
X154749428Y-115796190D02*
X154749428Y-115462857D01*
X154749428Y-115296190D02*
X154773238Y-115320000D01*
X154749428Y-115343810D01*
X154725619Y-115320000D01*
X154749428Y-115296190D01*
X154749428Y-115343810D01*
X154297048Y-115462857D02*
X154297048Y-115867619D01*
X154320857Y-115915238D01*
X154344667Y-115939048D01*
X154392286Y-115962857D01*
X154463714Y-115962857D01*
X154511333Y-115939048D01*
X154297048Y-115772381D02*
X154344667Y-115796190D01*
X154439905Y-115796190D01*
X154487524Y-115772381D01*
X154511333Y-115748571D01*
X154535143Y-115700952D01*
X154535143Y-115558095D01*
X154511333Y-115510476D01*
X154487524Y-115486667D01*
X154439905Y-115462857D01*
X154344667Y-115462857D01*
X154297048Y-115486667D01*
X154058952Y-115462857D02*
X154058952Y-115796190D01*
X154058952Y-115510476D02*
X154035143Y-115486667D01*
X153987524Y-115462857D01*
X153916095Y-115462857D01*
X153868476Y-115486667D01*
X153844667Y-115534286D01*
X153844667Y-115796190D01*
X153392286Y-115796190D02*
X153392286Y-115534286D01*
X153416095Y-115486667D01*
X153463714Y-115462857D01*
X153558952Y-115462857D01*
X153606571Y-115486667D01*
X153392286Y-115772381D02*
X153439905Y-115796190D01*
X153558952Y-115796190D01*
X153606571Y-115772381D01*
X153630381Y-115724762D01*
X153630381Y-115677143D01*
X153606571Y-115629524D01*
X153558952Y-115605714D01*
X153439905Y-115605714D01*
X153392286Y-115581905D01*
X153082762Y-115796190D02*
X153130381Y-115772381D01*
X153154190Y-115724762D01*
X153154190Y-115296190D01*
X163754095Y-113396000D02*
X163801714Y-113372190D01*
X163873142Y-113372190D01*
X163944571Y-113396000D01*
X163992190Y-113443619D01*
X164015999Y-113491238D01*
X164039809Y-113586476D01*
X164039809Y-113657905D01*
X164015999Y-113753143D01*
X163992190Y-113800762D01*
X163944571Y-113848381D01*
X163873142Y-113872190D01*
X163825523Y-113872190D01*
X163754095Y-113848381D01*
X163730285Y-113824571D01*
X163730285Y-113657905D01*
X163825523Y-113657905D01*
X163444571Y-113872190D02*
X163492190Y-113848381D01*
X163515999Y-113824571D01*
X163539809Y-113776952D01*
X163539809Y-113634095D01*
X163515999Y-113586476D01*
X163492190Y-113562667D01*
X163444571Y-113538857D01*
X163373142Y-113538857D01*
X163325523Y-113562667D01*
X163301714Y-113586476D01*
X163277904Y-113634095D01*
X163277904Y-113776952D01*
X163301714Y-113824571D01*
X163325523Y-113848381D01*
X163373142Y-113872190D01*
X163444571Y-113872190D01*
X162801714Y-113396000D02*
X162849333Y-113372190D01*
X162920761Y-113372190D01*
X162992190Y-113396000D01*
X163039809Y-113443619D01*
X163063618Y-113491238D01*
X163087428Y-113586476D01*
X163087428Y-113657905D01*
X163063618Y-113753143D01*
X163039809Y-113800762D01*
X162992190Y-113848381D01*
X162920761Y-113872190D01*
X162873142Y-113872190D01*
X162801714Y-113848381D01*
X162777904Y-113824571D01*
X162777904Y-113657905D01*
X162873142Y-113657905D01*
X162492190Y-113872190D02*
X162539809Y-113848381D01*
X162563618Y-113824571D01*
X162587428Y-113776952D01*
X162587428Y-113634095D01*
X162563618Y-113586476D01*
X162539809Y-113562667D01*
X162492190Y-113538857D01*
X162420761Y-113538857D01*
X162373142Y-113562667D01*
X162349333Y-113586476D01*
X162325523Y-113634095D01*
X162325523Y-113776952D01*
X162349333Y-113824571D01*
X162373142Y-113848381D01*
X162420761Y-113872190D01*
X162492190Y-113872190D01*
X161849333Y-113396000D02*
X161896952Y-113372190D01*
X161968380Y-113372190D01*
X162039809Y-113396000D01*
X162087428Y-113443619D01*
X162111237Y-113491238D01*
X162135047Y-113586476D01*
X162135047Y-113657905D01*
X162111237Y-113753143D01*
X162087428Y-113800762D01*
X162039809Y-113848381D01*
X161968380Y-113872190D01*
X161920761Y-113872190D01*
X161849333Y-113848381D01*
X161825523Y-113824571D01*
X161825523Y-113657905D01*
X161920761Y-113657905D01*
X161539809Y-113872190D02*
X161587428Y-113848381D01*
X161611237Y-113824571D01*
X161635047Y-113776952D01*
X161635047Y-113634095D01*
X161611237Y-113586476D01*
X161587428Y-113562667D01*
X161539809Y-113538857D01*
X161468380Y-113538857D01*
X161420761Y-113562667D01*
X161396952Y-113586476D01*
X161373142Y-113634095D01*
X161373142Y-113776952D01*
X161396952Y-113824571D01*
X161420761Y-113848381D01*
X161468380Y-113872190D01*
X161539809Y-113872190D01*
X160825523Y-113372190D02*
X160706476Y-113872190D01*
X160611238Y-113515048D01*
X160516000Y-113872190D01*
X160396952Y-113372190D01*
X160206475Y-113872190D02*
X160206475Y-113372190D01*
X159992190Y-113872190D02*
X159992190Y-113610286D01*
X160015999Y-113562667D01*
X160063618Y-113538857D01*
X160135047Y-113538857D01*
X160182666Y-113562667D01*
X160206475Y-113586476D01*
X159563618Y-113848381D02*
X159611237Y-113872190D01*
X159706475Y-113872190D01*
X159754094Y-113848381D01*
X159777904Y-113800762D01*
X159777904Y-113610286D01*
X159754094Y-113562667D01*
X159706475Y-113538857D01*
X159611237Y-113538857D01*
X159563618Y-113562667D01*
X159539809Y-113610286D01*
X159539809Y-113657905D01*
X159777904Y-113705524D01*
X159135047Y-113848381D02*
X159182666Y-113872190D01*
X159277904Y-113872190D01*
X159325523Y-113848381D01*
X159349333Y-113800762D01*
X159349333Y-113610286D01*
X159325523Y-113562667D01*
X159277904Y-113538857D01*
X159182666Y-113538857D01*
X159135047Y-113562667D01*
X159111238Y-113610286D01*
X159111238Y-113657905D01*
X159349333Y-113705524D01*
X158825524Y-113872190D02*
X158873143Y-113848381D01*
X158896952Y-113800762D01*
X158896952Y-113372190D01*
X158254095Y-113610286D02*
X158087429Y-113610286D01*
X158016000Y-113872190D02*
X158254095Y-113872190D01*
X158254095Y-113372190D01*
X158016000Y-113372190D01*
X157801714Y-113538857D02*
X157801714Y-113872190D01*
X157801714Y-113586476D02*
X157777905Y-113562667D01*
X157730286Y-113538857D01*
X157658857Y-113538857D01*
X157611238Y-113562667D01*
X157587429Y-113610286D01*
X157587429Y-113872190D01*
X157135048Y-113848381D02*
X157182667Y-113872190D01*
X157277905Y-113872190D01*
X157325524Y-113848381D01*
X157349333Y-113824571D01*
X157373143Y-113776952D01*
X157373143Y-113634095D01*
X157349333Y-113586476D01*
X157325524Y-113562667D01*
X157277905Y-113538857D01*
X157182667Y-113538857D01*
X157135048Y-113562667D01*
X156849334Y-113872190D02*
X156896953Y-113848381D01*
X156920762Y-113824571D01*
X156944572Y-113776952D01*
X156944572Y-113634095D01*
X156920762Y-113586476D01*
X156896953Y-113562667D01*
X156849334Y-113538857D01*
X156777905Y-113538857D01*
X156730286Y-113562667D01*
X156706477Y-113586476D01*
X156682667Y-113634095D01*
X156682667Y-113776952D01*
X156706477Y-113824571D01*
X156730286Y-113848381D01*
X156777905Y-113872190D01*
X156849334Y-113872190D01*
X156254096Y-113872190D02*
X156254096Y-113372190D01*
X156254096Y-113848381D02*
X156301715Y-113872190D01*
X156396953Y-113872190D01*
X156444572Y-113848381D01*
X156468381Y-113824571D01*
X156492191Y-113776952D01*
X156492191Y-113634095D01*
X156468381Y-113586476D01*
X156444572Y-113562667D01*
X156396953Y-113538857D01*
X156301715Y-113538857D01*
X156254096Y-113562667D01*
X155825524Y-113848381D02*
X155873143Y-113872190D01*
X155968381Y-113872190D01*
X156016000Y-113848381D01*
X156039810Y-113800762D01*
X156039810Y-113610286D01*
X156016000Y-113562667D01*
X155968381Y-113538857D01*
X155873143Y-113538857D01*
X155825524Y-113562667D01*
X155801715Y-113610286D01*
X155801715Y-113657905D01*
X156039810Y-113705524D01*
X155587429Y-113872190D02*
X155587429Y-113538857D01*
X155587429Y-113634095D02*
X155563620Y-113586476D01*
X155539810Y-113562667D01*
X155492191Y-113538857D01*
X155444572Y-113538857D01*
X160563618Y-114672190D02*
X160730285Y-114434095D01*
X160849332Y-114672190D02*
X160849332Y-114172190D01*
X160658856Y-114172190D01*
X160611237Y-114196000D01*
X160587428Y-114219810D01*
X160563618Y-114267429D01*
X160563618Y-114338857D01*
X160587428Y-114386476D01*
X160611237Y-114410286D01*
X160658856Y-114434095D01*
X160849332Y-114434095D01*
X160158856Y-114648381D02*
X160206475Y-114672190D01*
X160301713Y-114672190D01*
X160349332Y-114648381D01*
X160373142Y-114600762D01*
X160373142Y-114410286D01*
X160349332Y-114362667D01*
X160301713Y-114338857D01*
X160206475Y-114338857D01*
X160158856Y-114362667D01*
X160135047Y-114410286D01*
X160135047Y-114457905D01*
X160373142Y-114505524D01*
X159968380Y-114338857D02*
X159849333Y-114672190D01*
X159730285Y-114338857D01*
X159539809Y-114624571D02*
X159516000Y-114648381D01*
X159539809Y-114672190D01*
X159563619Y-114648381D01*
X159539809Y-114624571D01*
X159539809Y-114672190D01*
X158825524Y-114172190D02*
X158777905Y-114172190D01*
X158730286Y-114196000D01*
X158706477Y-114219810D01*
X158682667Y-114267429D01*
X158658858Y-114362667D01*
X158658858Y-114481714D01*
X158682667Y-114576952D01*
X158706477Y-114624571D01*
X158730286Y-114648381D01*
X158777905Y-114672190D01*
X158825524Y-114672190D01*
X158873143Y-114648381D01*
X158896953Y-114624571D01*
X158920762Y-114576952D01*
X158944572Y-114481714D01*
X158944572Y-114362667D01*
X158920762Y-114267429D01*
X158896953Y-114219810D01*
X158873143Y-114196000D01*
X158825524Y-114172190D01*
%LPC*%
D11*
X162810000Y-107255000D03*
X153860000Y-112455000D03*
X161210000Y-108585000D03*
X161210000Y-111125000D03*
X151210000Y-108585000D03*
X151210000Y-111125000D03*
D12*
X151130000Y-115316000D03*
D13*
X148590000Y-115316000D03*
X146050000Y-115316000D03*
M02*
